<svg id="Calque_1" data-name="Calque 1" xmlns="http://www.w3.org/2000/svg" viewBox="0 0 500 500"><defs><style>.cls-1{fill:#fff;}</style></defs><path class="cls-1" d="M367.72,115.51h-.21a17,17,0,0,0,0,34h.21a17,17,0,0,0,0-34Z"/><path class="cls-1" d="M347.77,56A91.57,91.57,0,0,1,439,147.23V342.77A91.57,91.57,0,0,1,347.77,434H152.23A91.57,91.57,0,0,1,61,342.77V147.23A91.57,91.57,0,0,1,152.23,56H347.77m0-29H152.23C86.11,27,32,81.11,32,147.23V342.77C32,408.89,86.11,463,152.23,463H347.77C413.89,463,468,408.89,468,342.77V147.23C468,81.11,413.89,27,347.77,27Z"/><path class="cls-1" d="M251,175a75,75,0,1,1-75,75,75.08,75.08,0,0,1,75-75m0-27A102,102,0,1,0,353,250,102,102,0,0,0,251,148Z"/></svg>