<svg id="Calque_1" data-name="Calque 1" xmlns="http://www.w3.org/2000/svg" viewBox="0 0 500 500"><defs><style>.cls-1{fill:#fff;}</style></defs><path class="cls-1" d="M300.17,481H190.69V289.39H124.42l-1-11.87c-.06-.74-1.51-18.24-2.34-36.77-.49-11-.66-20.12-.5-27,.31-12.95,1.7-18.71,5.51-22.85a14,14,0,0,1,10.24-4.54h54.35V120c0-21.7,11.13-46.46,29.78-66.25C241.59,31.34,268.88,19,297.3,19c55.82,0,73.26,9.33,76.19,11.2l6,3.82v85.62H332.23c-5.57,0-13.74,1.36-20,5.18-6.77,4.14-9.93,10.23-9.93,19.17V187.2h75.9l-16,103.05h-62Zm-83.59-25.89h57.7V264.36H340l8-51.27H276.42V144c0-22.84,12.14-35.05,22.32-41.27,13.26-8.09,27.84-9,33.49-9h21.35V50.13c-8.23-2.19-25.26-5.24-56.28-5.24-28.63,0-48.62,16.68-58,26.62C225.5,86.15,216.58,105.18,216.58,120v92.24H146.49c-.39,11.07.45,31.54,1.84,51.27h68.25Z"/></svg>