<svg id="Calque_1" data-name="Calque 1" xmlns="http://www.w3.org/2000/svg" viewBox="0 0 500 500"><defs><style>.cls-1{fill:#fff;}</style></defs><path class="cls-1" d="M183,440.09a303.87,303.87,0,0,1-54.78-4.92c-61-11.18-97.58-38.45-99.11-39.6L0,373.52l36.49,1.69c47.65,2.22,78.73-7,96.4-15.08,3.86-1.77,7.26-3.56,10.24-5.3a123.14,123.14,0,0,1-24.92-11.16,99.92,99.92,0,0,1-28.36-24.85C77,302.1,74.26,287,74,285.36l-2.44-15.23,6.51.94a96.25,96.25,0,0,1-29.79-40.22c-8.53-22-6.25-40.56-6.15-41.35L44,174.84,56.54,180C40.26,155.52,38.1,132.56,40,115.67A96.06,96.06,0,0,1,56.54,71.9l8.38-11,9.14,10.38c37.87,43,85.53,65.31,118.85,76.49A313,313,0,0,0,242.1,160a102.11,102.11,0,0,1,8.75-48.68c7.9-17.55,24.76-41.39,60.31-55.31,26.07-10.21,53.9-8.72,80.47,4.31A128.62,128.62,0,0,1,418.3,77.9s38.63-14,61.75-22.15c-2.72,18.13-18.58,43.52-18.58,43.52L500,83.4s-15.25,39.89-49.48,77.09c-.95,49.61-9.81,93.89-26.34,131.68-15.54,35.5-37.87,65.45-66.38,89a242.75,242.75,0,0,1-54.65,33.92A276.36,276.36,0,0,1,244,434.05,308.63,308.63,0,0,1,183,440.09ZM78.78,396.89a256.44,256.44,0,0,0,53.54,16c60,11,146.93,3.85,211-49.15,55.38-45.79,83.83-116,84.56-208.64l0-5.24s34.7-23.38,39-37.44c-5.2,1.2-42.9,9.52-42.9,9.52.95-.5,19.73-22.56,28.84-34.9l-40.14,17.2-5.18-5.45A101.43,101.43,0,0,0,381,80.35c-20.8-10-41.51-11.09-61.58-3.23-51.31,20.09-59.67,66.71-52.78,93.14l4,15.21-15.68-1c-1.22-.08-30.31-2.13-69.22-15.17a322.55,322.55,0,0,1-64-29.41A279.11,279.11,0,0,1,68,97.9a74.63,74.63,0,0,0-5.51,21.31c-2.65,26.13,9.4,50.85,35.82,73.47l26.87,23-35.24-3.1a134,134,0,0,1-24.62-5.33,73.51,73.51,0,0,0,4.48,16.32c9,22.13,27.9,38.17,56.29,47.68l39.13,13.1-40.33,8.72a139.73,139.73,0,0,1-23.09,2.62,69.32,69.32,0,0,0,6.78,10.24c13.49,16.9,34.3,27.73,61.85,32.18l19.3,3.11-12.3,15.2C176.11,358,149.4,389.94,78.78,396.89Z"/></svg>