<svg id="svg2" xmlns="http://www.w3.org/2000/svg" viewBox="0 0 1000 1187.2"><defs><style>.cls-1{fill:#fff;}</style></defs><title>logo_apple</title><path id="path4" class="cls-1" d="M979,925.19A645,645,0,0,1,915.21,1040q-50.34,71.77-82.22,99.37-49.25,45.29-105.67,46.53c-27,0-59.65-7.69-97.61-23.3s-73.09-23.23-105.09-23.23q-50.34,0-108.06,23.23-57.84,23.42-93.37,24.55-54.18,2.31-108.06-47.78-34.41-30-86-102.89Q73.81,958.61,38.19,855.79,0,744.66,0,640.5,0,521.16,51.63,434.82q40.59-69.29,108.12-109.38c45.06-26.74,93.75-40.37,146.19-41.25,28.69,0,66.31,8.88,113.06,26.32s76.56,26.37,89.68,26.37c9.82,0,43.07-10.37,99.45-31.06q80-28.79,135.17-24,149.82,12.09,224.82,118.37-134,81.19-132.64,227.19Q836.7,741,917.78,816.22A270.35,270.35,0,0,0,1000,870.15q-9.88,28.7-21,55ZM750,23.75q0,89.06-64.92,166.12c-52.18,61-115.29,96.25-183.73,90.69a185.21,185.21,0,0,1-1.38-22.5c0-57,24.82-118,68.88-167.87q33-37.87,83.91-63Q703.51,2.44,748.72,0A215.59,215.59,0,0,1,750,23.75Z" transform="translate(0 0)"/></svg>