<svg id="Calque_1" data-name="Calque 1" xmlns="http://www.w3.org/2000/svg" xmlns:xlink="http://www.w3.org/1999/xlink" viewBox="0 0 1920 985"><defs><style>.cls-1{fill:none;}.cls-2{fill:#b8afd3;stroke:#fff;stroke-miterlimit:10;stroke-width:4.92px;}.cls-3{fill:#cad9e8;}.cls-4{fill:#badaf7;opacity:0.58;}.cls-10,.cls-13,.cls-15,.cls-16,.cls-21,.cls-30,.cls-4,.cls-45,.cls-49,.cls-55,.cls-57,.cls-63,.cls-64,.cls-67,.cls-7,.cls-76,.cls-79,.cls-85,.cls-86,.cls-9{isolation:isolate;}.cls-5{clip-path:url(#clip-path);}.cls-6{fill:#fff;}.cls-7{fill:#006e58;opacity:0.12;}.cls-16,.cls-8{fill:#9159ff;}.cls-44,.cls-9{fill:#6b47c4;}.cls-49,.cls-9{opacity:0.37;}.cls-10{opacity:0.15;fill:url(#Dégradé_sans_nom_42);}.cls-11{fill:url(#Dégradé_sans_nom_31);}.cls-12{fill:#1c172d;}.cls-13{fill:#513227;opacity:0.22;}.cls-14{fill:#5c566d;}.cls-15,.cls-17{fill:#49484c;}.cls-15,.cls-16{opacity:0.53;}.cls-18{fill:url(#Dégradé_sans_nom_60);}.cls-19{fill:url(#Dégradé_sans_nom_62);}.cls-20{fill:#3a16a8;}.cls-21{fill:#db5642;}.cls-21,.cls-79{opacity:0.55;}.cls-22{fill:url(#Dégradé_sans_nom_62-2);}.cls-23{fill:url(#Dégradé_sans_nom_4);}.cls-24{fill:url(#Dégradé_sans_nom_55);}.cls-25{fill:url(#Dégradé_sans_nom_60-2);}.cls-26{fill:url(#Dégradé_sans_nom_62-3);}.cls-27{fill:url(#Dégradé_sans_nom_60-3);}.cls-28{fill:url(#Dégradé_sans_nom_60-4);}.cls-29,.cls-30{opacity:0.45;}.cls-30{fill:url(#Dégradé_sans_nom_62-4);}.cls-31{fill:url(#Dégradé_sans_nom_62-5);}.cls-32{fill:url(#Dégradé_sans_nom_60-5);}.cls-33{fill:#ededed;}.cls-34{fill:#f27955;}.cls-35{fill:url(#Dégradé_sans_nom_60-6);}.cls-36{fill:url(#Dégradé_sans_nom_15);}.cls-37{fill:url(#Dégradé_sans_nom_60-7);}.cls-38{fill:#000015;}.cls-39{fill:url(#Dégradé_sans_nom_62-6);}.cls-40{fill:url(#Dégradé_sans_nom_62-7);}.cls-41{fill:url(#Dégradé_sans_nom_60-8);}.cls-42{fill:url(#Dégradé_sans_nom_62-8);}.cls-43{fill:url(#Dégradé_sans_nom_62-9);}.cls-45{opacity:0.38;fill:url(#Dégradé_sans_nom_62-10);}.cls-46{fill:url(#Dégradé_sans_nom_60-9);}.cls-47{fill:#b25144;}.cls-48{fill:url(#Dégradé_sans_nom_60-10);}.cls-49{fill:url(#Dégradé_sans_nom_55-2);}.cls-50{fill:url(#Dégradé_sans_nom_62-11);}.cls-51{fill:url(#Dégradé_sans_nom_62-12);}.cls-52{fill:url(#Dégradé_sans_nom_30);}.cls-53{fill:url(#Dégradé_sans_nom_60-11);}.cls-54,.cls-55,.cls-67,.cls-76{opacity:0.36;}.cls-55{fill:url(#Dégradé_sans_nom_62-13);}.cls-56,.cls-57{fill:url(#Dégradé_sans_nom_60-12);}.cls-57,.cls-64{opacity:0.24;}.cls-58{fill:#fff9e2;}.cls-59{fill:url(#Dégradé_sans_nom_60-14);}.cls-60{fill:#3f1703;}.cls-61{fill:url(#Dégradé_sans_nom_62-14);}.cls-62,.cls-63{opacity:0.2;}.cls-63,.cls-64{fill:url(#Dégradé_sans_nom_55-3);}.cls-65{fill:url(#Dégradé_sans_nom_62-15);}.cls-66{fill:url(#Dégradé_sans_nom_62-16);}.cls-67{fill:url(#Dégradé_sans_nom_62-17);}.cls-68{fill:url(#Dégradé_sans_nom_60-15);}.cls-69{fill:url(#Dégradé_sans_nom_55-5);}.cls-70{fill:url(#Dégradé_sans_nom_60-16);}.cls-71{fill:url(#Dégradé_sans_nom_62-18);}.cls-72{fill:url(#Dégradé_sans_nom_60-18);}.cls-73{fill:url(#Dégradé_sans_nom_62-19);}.cls-74{fill:url(#Dégradé_sans_nom_60-19);}.cls-75{fill:url(#Dégradé_sans_nom_60-20);}.cls-76{fill:url(#Dégradé_sans_nom_62-20);}.cls-77{fill:url(#Dégradé_sans_nom_60-21);}.cls-78{fill:url(#Dégradé_sans_nom_55-6);}.cls-79{fill:url(#Dégradé_sans_nom_56);}.cls-80{fill:url(#Dégradé_sans_nom_60-22);}.cls-81{fill:url(#Dégradé_sans_nom_60-23);}.cls-82{fill:url(#Dégradé_sans_nom_62-21);}.cls-83{fill:url(#Dégradé_sans_nom_60-24);}.cls-84,.cls-85,.cls-86{opacity:0.41;}.cls-85{fill:url(#Dégradé_sans_nom_62-22);}.cls-86{fill:url(#Dégradé_sans_nom_62-23);}.cls-87{fill:url(#Dégradé_sans_nom_60-25);}</style><clipPath id="clip-path"><path class="cls-1" d="M1747.39,984.09c158.72-2.46,230.18-199.43,107.66-290a24.68,24.68,0,0,1-5.3-3.83c-88.81-110.12,38.87-184.91,23.86-373.49-22.75-286.18-293-344.21-479.38-195.56C1053.42,392.91,890.63-135,558.6,41.62,381.54,136,489.22,402.2,315.27,387.3c-424.76-36.35-403.85,602.2-12.13,592Z"/></clipPath><linearGradient id="Dégradé_sans_nom_42" x1="650.56" y1="263.69" x2="835.44" y2="263.69" gradientTransform="matrix(1, 0, 0, -1, 539.04, 1134.34)" gradientUnits="userSpaceOnUse"><stop offset="0" stop-color="#f4454b"/><stop offset="1" stop-color="#ed7a62"/></linearGradient><linearGradient id="Dégradé_sans_nom_31" x1="315.93" y1="236.81" x2="579.47" y2="330.78" gradientTransform="matrix(1, 0, 0, -1, 539.04, 1134.34)" gradientUnits="userSpaceOnUse"><stop offset="0" stop-color="#6b47c4"/><stop offset="0.75" stop-color="#242363"/></linearGradient><linearGradient id="Dégradé_sans_nom_60" x1="10226.6" y1="272.33" x2="10292.38" y2="272.33" gradientTransform="matrix(1, 0, 0, -1, 539.04, 1134.34)" gradientUnits="userSpaceOnUse"><stop offset="0" stop-color="#ed7a62"/><stop offset="0.59" stop-color="#ff8c62"/></linearGradient><linearGradient id="Dégradé_sans_nom_62" x1="-70.95" y1="829.74" x2="-49.26" y2="829.74" gradientTransform="matrix(1, 0, 0, -1, 539.04, 1134.34)" gradientUnits="userSpaceOnUse"><stop offset="0" stop-color="#032c63"/><stop offset="1" stop-color="#033d63"/></linearGradient><linearGradient id="Dégradé_sans_nom_62-2" x1="-148.57" y1="985.86" x2="-139.6" y2="788.61" xlink:href="#Dégradé_sans_nom_62"/><linearGradient id="Dégradé_sans_nom_4" x1="-97.38" y1="725.47" x2="-90.35" y2="832.56" gradientTransform="matrix(1, 0, 0, -1, 539.04, 1134.34)" gradientUnits="userSpaceOnUse"><stop offset="0" stop-color="#ed7a62"/><stop offset="1" stop-color="#ff8c62"/></linearGradient><linearGradient id="Dégradé_sans_nom_55" x1="-100.53" y1="860.44" x2="-52.44" y2="752.25" gradientTransform="matrix(1, 0, 0, -1, 539.04, 1134.34)" gradientUnits="userSpaceOnUse"><stop offset="0" stop-color="#ed7a62"/><stop offset="1" stop-color="#ff8c62" stop-opacity="0"/></linearGradient><linearGradient id="Dégradé_sans_nom_60-2" x1="-128.38" y1="786.44" x2="-121.36" y2="970.31" xlink:href="#Dégradé_sans_nom_60"/><linearGradient id="Dégradé_sans_nom_62-3" x1="-125.89" y1="1037.52" x2="-103.77" y2="787.02" xlink:href="#Dégradé_sans_nom_62"/><linearGradient id="Dégradé_sans_nom_60-3" x1="-68.32" y1="785.13" x2="-60.99" y2="968.96" xlink:href="#Dégradé_sans_nom_60"/><linearGradient id="Dégradé_sans_nom_60-4" x1="-77.21" y1="314.92" x2="0.3" y2="314.92" xlink:href="#Dégradé_sans_nom_60"/><linearGradient id="Dégradé_sans_nom_62-4" x1="-101.63" y1="1038.64" x2="-54.48" y2="793.13" xlink:href="#Dégradé_sans_nom_62"/><linearGradient id="Dégradé_sans_nom_62-5" x1="1081.42" y1="873.93" x2="1096.23" y2="1002.79" xlink:href="#Dégradé_sans_nom_62"/><linearGradient id="Dégradé_sans_nom_60-5" x1="956.38" y1="796.12" x2="1107.32" y2="796.12" xlink:href="#Dégradé_sans_nom_60"/><linearGradient id="Dégradé_sans_nom_60-6" x1="976.31" y1="891.29" x2="1115.82" y2="891.29" xlink:href="#Dégradé_sans_nom_60"/><linearGradient id="Dégradé_sans_nom_15" x1="934.4" y1="525.33" x2="930.18" y2="111.9" gradientTransform="matrix(1, 0, 0, -1, 539.04, 1134.34)" gradientUnits="userSpaceOnUse"><stop offset="0" stop-color="#49484c"/><stop offset="1" stop-color="#009fda"/></linearGradient><linearGradient id="Dégradé_sans_nom_60-7" x1="945.28" y1="352.63" x2="1073.2" y2="352.63" xlink:href="#Dégradé_sans_nom_60"/><linearGradient id="Dégradé_sans_nom_62-6" x1="1053.04" y1="874.64" x2="1053.71" y2="1004.63" xlink:href="#Dégradé_sans_nom_62"/><linearGradient id="Dégradé_sans_nom_62-7" x1="984.94" y1="877.18" x2="997.82" y2="1006.35" xlink:href="#Dégradé_sans_nom_62"/><linearGradient id="Dégradé_sans_nom_60-8" x1="969.91" y1="897.09" x2="1003.84" y2="897.09" xlink:href="#Dégradé_sans_nom_60"/><linearGradient id="Dégradé_sans_nom_62-8" x1="299.95" y1="806.95" x2="465.15" y2="956.1" xlink:href="#Dégradé_sans_nom_62"/><linearGradient id="Dégradé_sans_nom_62-9" x1="399.28" y1="786.51" x2="561.84" y2="946.68" xlink:href="#Dégradé_sans_nom_62"/><linearGradient id="Dégradé_sans_nom_62-10" x1="298.87" y1="848.69" x2="525.05" y2="848.69" xlink:href="#Dégradé_sans_nom_62"/><linearGradient id="Dégradé_sans_nom_60-9" x1="395.84" y1="757.39" x2="401.65" y2="841.33" xlink:href="#Dégradé_sans_nom_60"/><linearGradient id="Dégradé_sans_nom_60-10" x1="382.72" y1="808.51" x2="402.5" y2="950.03" xlink:href="#Dégradé_sans_nom_60"/><linearGradient id="Dégradé_sans_nom_55-2" x1="404.84" y1="919.41" x2="458" y2="835.02" xlink:href="#Dégradé_sans_nom_55"/><linearGradient id="Dégradé_sans_nom_62-11" x1="329.81" y1="781.27" x2="402.48" y2="1028.39" xlink:href="#Dégradé_sans_nom_62"/><linearGradient id="Dégradé_sans_nom_62-12" x1="327.65" y1="821.06" x2="488.04" y2="987.81" xlink:href="#Dégradé_sans_nom_62"/><linearGradient id="Dégradé_sans_nom_30" x1="413.43" y1="352.09" x2="473.94" y2="24.64" gradientTransform="matrix(1, 0, 0, -1, 539.04, 1134.34)" gradientUnits="userSpaceOnUse"><stop offset="0" stop-color="#ffad3d"/><stop offset="0.75" stop-color="#ffd88a"/></linearGradient><linearGradient id="Dégradé_sans_nom_60-11" x1="312.03" y1="815.05" x2="343.18" y2="953.16" xlink:href="#Dégradé_sans_nom_60"/><linearGradient id="Dégradé_sans_nom_62-13" x1="940.17" y1="910.55" x2="1052.96" y2="910.55" xlink:href="#Dégradé_sans_nom_62"/><linearGradient id="Dégradé_sans_nom_60-12" x1="443.14" y1="805.9" x2="474.54" y2="943.98" xlink:href="#Dégradé_sans_nom_60"/><linearGradient id="Dégradé_sans_nom_60-14" x1="393.96" y1="887.1" x2="412.22" y2="887.1" xlink:href="#Dégradé_sans_nom_60"/><linearGradient id="Dégradé_sans_nom_62-14" x1="378.59" y1="846.33" x2="427.54" y2="846.33" xlink:href="#Dégradé_sans_nom_62"/><linearGradient id="Dégradé_sans_nom_55-3" x1="466.43" y1="938.02" x2="466.43" y2="854.24" xlink:href="#Dégradé_sans_nom_55"/><linearGradient id="Dégradé_sans_nom_62-15" x1="741.19" y1="614.71" x2="723.67" y2="944.36" xlink:href="#Dégradé_sans_nom_62"/><linearGradient id="Dégradé_sans_nom_62-16" x1="817.93" y1="620.89" x2="791.31" y2="950.22" xlink:href="#Dégradé_sans_nom_62"/><linearGradient id="Dégradé_sans_nom_62-17" x1="724.07" y1="725.86" x2="890.29" y2="725.86" xlink:href="#Dégradé_sans_nom_62"/><linearGradient id="Dégradé_sans_nom_60-15" x1="779.48" y1="708.94" x2="779.48" y2="798.23" xlink:href="#Dégradé_sans_nom_60"/><linearGradient id="Dégradé_sans_nom_55-5" x1="778.01" y1="795.63" x2="744.48" y2="713.27" xlink:href="#Dégradé_sans_nom_55"/><linearGradient id="Dégradé_sans_nom_60-16" x1="721.59" y1="766.62" x2="776.57" y2="910.69" xlink:href="#Dégradé_sans_nom_60"/><linearGradient id="Dégradé_sans_nom_62-18" x1="812.34" y1="620.84" x2="795.33" y2="950.49" xlink:href="#Dégradé_sans_nom_62"/><linearGradient id="Dégradé_sans_nom_60-18" x1="916.1" y1="276.63" x2="981.89" y2="276.63" xlink:href="#Dégradé_sans_nom_60"/><linearGradient id="Dégradé_sans_nom_62-19" x1="897.18" y1="640.04" x2="777.36" y2="931.39" xlink:href="#Dégradé_sans_nom_62"/><linearGradient id="Dégradé_sans_nom_60-19" x1="780.05" y1="847.39" x2="810.07" y2="847.39" xlink:href="#Dégradé_sans_nom_60"/><linearGradient id="Dégradé_sans_nom_60-20" x1="755.17" y1="761.32" x2="821.23" y2="898.45" xlink:href="#Dégradé_sans_nom_60"/><linearGradient id="Dégradé_sans_nom_62-20" x1="798.06" y1="745.67" x2="925.26" y2="745.67" xlink:href="#Dégradé_sans_nom_62"/><linearGradient id="Dégradé_sans_nom_60-21" x1="118.45" y1="715.53" x2="184.98" y2="761.74" xlink:href="#Dégradé_sans_nom_60"/><linearGradient id="Dégradé_sans_nom_55-6" x1="161.96" y1="798.51" x2="142.91" y2="706.23" xlink:href="#Dégradé_sans_nom_55"/><linearGradient id="Dégradé_sans_nom_56" x1="-49.74" y1="454.64" x2="108.69" y2="454.64" gradientTransform="matrix(1, 0, 0, -1, 539.04, 1134.34)" gradientUnits="userSpaceOnUse"><stop offset="0" stop-color="#006bda"/><stop offset="1" stop-color="#009fda"/></linearGradient><linearGradient id="Dégradé_sans_nom_60-22" x1="34.04" y1="286.21" x2="140.08" y2="286.21" xlink:href="#Dégradé_sans_nom_60"/><linearGradient id="Dégradé_sans_nom_60-23" x1="150.33" y1="752.59" x2="225.16" y2="885.47" xlink:href="#Dégradé_sans_nom_60"/><linearGradient id="Dégradé_sans_nom_62-21" x1="50.95" y1="863.46" x2="266.48" y2="863.46" xlink:href="#Dégradé_sans_nom_62"/><linearGradient id="Dégradé_sans_nom_60-24" x1="120.11" y1="853.1" x2="154.71" y2="853.1" xlink:href="#Dégradé_sans_nom_60"/><linearGradient id="Dégradé_sans_nom_62-22" x1="189.24" y1="954.67" x2="209.16" y2="954.67" xlink:href="#Dégradé_sans_nom_62"/><linearGradient id="Dégradé_sans_nom_62-23" x1="50.92" y1="863.42" x2="160.14" y2="863.42" xlink:href="#Dégradé_sans_nom_62"/><linearGradient id="Dégradé_sans_nom_60-25" x1="740.89" y1="277.18" x2="818.6" y2="277.18" xlink:href="#Dégradé_sans_nom_60"/></defs><path class="cls-2" d="M74.55,417.61C31.28,215.9,223,45.51,389.61,159.21,525.35,251.84,563.4,379.56,706,313.42S791.25,19,1043.73,31.08c226.34,10.83,212,313.11,368.42,287.38C1794.26,255.67,181.78,917.4,74.55,417.61Z"/><path class="cls-3" d="M1747.39,984.09c158.72-2.46,230.18-199.43,107.66-290a24.68,24.68,0,0,1-5.3-3.83c-88.81-110.12,38.87-184.91,23.86-373.49-22.75-286.18-293-344.21-479.38-195.56C1053.42,392.91,890.63-135,558.6,41.62,381.54,136,489.22,402.2,315.27,387.3c-424.76-36.35-403.85,602.2-12.13,592Z"/><path class="cls-4" d="M1607.68,975.43c135.68-1.83,196.71-144.59,91.92-215-1.47-1-2.95-2-4.52-3-128.13-82.34,6.24-143.86,20.29-290.36,19-198-205.73-365.83-409.82-152.22C1196.24,429.32,1164.79,558,1025.61,504.79S763,314.61,586.77,361.54c-206.53,55-22.2,225.51-170.9,213.88-363.12-28.31-377.46,414-42.62,406.29Z"/><g class="cls-5"><path class="cls-6" d="M1726,1005.62H1611L1586.6,889.06l-20.31,116.56H1424.44c-8.94-43.46-19.12-101.49-20.79-146.62a147.34,147.34,0,0,1,34.83-98.66h253.28A722.85,722.85,0,0,1,1726,995.57Z"/><path class="cls-7" d="M1438.48,760.32h61.06a147.17,147.17,0,0,0-33.81,86.95c-1.64,45.15,4.3,116.78,10,160.76l-51.2-2.41c-8.94-43.46-19.12-101.49-20.79-146.63A146.85,146.85,0,0,1,1438.48,760.32Z"/><path class="cls-7" d="M1534.34,1005.59l59.08,2.42-83.5-118.81Z"/><path class="cls-8" d="M1356.2,1003c8.85-82.07,16-180.78,16-180.78l-52.48-50.31s-67.66-99.11-114.64-42.1c-37.89,46-3.78,198.46,8,273.3Z"/><path class="cls-9" d="M1395.1,1003c8.86-82.07,16-180.78,16-180.78l-52.48-50.31S1291,672.76,1244,729.77c-37.88,46-3.77,198.46,8,273.3Z"/><path class="cls-8" d="M1455.61,1003c-25-82.1-73.88-215.06-73.88-215.06l-68.6-24.36s-102.49-62.39-121.81,8.91c-14.4,53.17,64.92,164,109.76,230.34Z"/><path class="cls-10" d="M1374.48,1003c-36.07-71.65-102.68-192.71-92.94-254.63-31.8-12.4-77.89-21.28-90.22,24.18-14.4,53.17,64.91,164,109.76,230.34Z"/><path class="cls-11" d="M1096.3,804.28a451.66,451.66,0,0,0-35.5-157.88L935.39,689.2,937,710.52l-36.91-21.2-76.4,6.07-13.18,85.37,8.32,246.8h269.56S1100.68,896.75,1096.3,804.28Z"/><path class="cls-12" d="M450.2,857.18,346.69,1086.82l16.93,122.33a120.64,120.64,0,0,1,.83,25L214.2,1103.7l70.36-381,47.62-29,91.58,6.85Z"/><path class="cls-13" d="M364.44,1234.05a120.64,120.64,0,0,0-.83-25l-16.93-122.25L425.52,912l-41.62-59-92.19,234s23.12,112.83,30.5,149.41C329.31,1269.85,364.44,1234.05,364.44,1234.05Z"/><path class="cls-12" d="M518.52,681.2s38.87,110.48,41.41,149.06c5.21,76.62-41.41,304.35-41.41,304.35L387.64,1149.1,384,834.42,396.39,706Z"/><path class="cls-13" d="M500.59,944.82c-7.77,89-23.09,186.3-23.09,186.3l41,3.49s46.62-227.73,41.4-304.35c-2.61-38.58-41.4-149.06-41.4-149.06l-61.36,12.49c12.93,30.74,41.62,101.36,45.84,130.88,3.78,26.64,1.78,72.16-2.41,120.25"/><path class="cls-14" d="M470.21,1102.86c64.66-38.15,48.62-67.85,48.62-106.51s-15.21-175.23-8.57-196.07c13.28-41.62,145.94-68,145.94-68l22.93,264L662,1060.75S405.77,1141,470.21,1102.86Z"/><path class="cls-15" d="M472.18,1107.83c61.58-43,48.64-67.85,48.64-106.51s-15.25-175.23-8.6-196.07c13.29-41.63,146-68,146-68l22.92,264L664,1065.73S401.3,1157.29,472.18,1107.83Z"/><path class="cls-16" d="M677.38,949.84,543.72,808.69S602,1041.34,597.85,1071c-4.43,32.17,64-30.69,64-30.69Z"/><path class="cls-17" d="M650.18,791.71l66.1,23.42s81.79,221.8,84.63,261.87-151.49,205.89-150.74,101.13c.38-53,24.56-77.71,16.17-109.09S514.21,869,532.83,800.28,650.18,791.71,650.18,791.71Z"/><path class="cls-15" d="M691.17,1144.58c3.93-41.63,27.14-58.59,21.5-71.3S602,771.11,602,771.11c-27.92-7.44-59.42-6.66-69.11,29.17C514.27,869,658,1037.57,666.41,1069s-15.79,56.09-16.18,109.09C649.43,1282.89,687.34,1185.37,691.17,1144.58Z"/></g><path class="cls-18" d="M247.44,799.09s-28.3,28.75-34.58,43.13-4.92,48-4.92,48S229.1,926.12,239,924.89c2.34-.31,5.55,0,4.43-9.55-1.11-8.76-14.79-22.2-14.76-31.19s14.52-29.83,14.52-29.83,10.84,3.66,9.4,27.44c-.86,14.38,14.69,7.19,16.65-3.6s4.2-51.67,4.2-51.67Z"/><path class="cls-19" d="M487.89,278.85s-14.62,28.72,1.89,51.51a24,24,0,0,1-21.32-16.66C464.91,302.05,487.89,278.85,487.89,278.85Z"/><path class="cls-20" d="M362.75,432.26l20-62.41c-60.61,0-102.9,30.66-128.74,209.44-3.22,22.2-26.25,232.48-26.25,232.48l64.69,38.52s.25-127.24,29.91-184.51c14.76-28.48-23.12-126,0-173.4S362.75,432.26,362.75,432.26Z"/><path class="cls-21" d="M322.43,492.34l-29.95,355-45-26.81Z"/><path class="cls-22" d="M438.82,174.86s-85.59,8.74-91.94,37.3c0,0-11.1-42.69,37.6-63.11C422.42,133.12,438.82,174.86,438.82,174.86Z"/><path class="cls-23" d="M479.89,233.8s-6,86.84-3.66,100.66c3.66,21.73,3.11,48.29,21,46.9s-28,29-28,29L389.76,418l-3.93-41.47a99.23,99.23,0,0,1,3.93-23.06c4.08-16.12,6-72.38,6-72.38l51.73-36.49"/><path class="cls-24" d="M512,381.36c-32.16,9.84-32.16-25.17-35.83-46.9-2.33-13.88,3.67-100.66,3.67-100.66l-32.34,10.77L395.67,281s20.51,47.54,17.18,68.19c31.72,19.25,49.69,49.17,95.69,36.21C515.06,381.05,517.77,379.58,512,381.36Z"/><path class="cls-20" d="M480.34,365.24a179.07,179.07,0,0,1,82.25,24.2c24.06,14.6,26.4,28.92,23.62,46.25L548.6,811s-19.42-1.42-93.66-3.94c-161-5.55-181.3-19.84-181.3-19.84L302.28,478.6C303,425.86,322.6,378.22,374.77,370h10.37s.49,14.1,17.72,21.37C423.78,400.16,455.75,405.09,480.34,365.24Z"/><path class="cls-21" d="M546.3,707.17l18.87-76.54-99.62,175,14.27,2.58Z"/><path class="cls-25" d="M347.52,265.61c0,1.39-.2,2.77-.22,4.13-.39,24.42,12.46,44.4,26.89,62.58,37.21,47.18,105.62-12.82,109.23-73.57,3.6-61.19-27.75-90.77-70.27-94.69-26.31-2.46-56.92,4.05-66.27,48.07-2,9.44,1.38,18.76,1.61,28.17a234.94,234.94,0,0,1-1,25.31Z"/><path class="cls-26" d="M491.75,161.32a56.4,56.4,0,0,0-4.89-5.36,95.8,95.8,0,0,0-9.6-8.05c-1.56-1.17-2.5-1.78-2.5-1.78-21.59-14.76-48.76-19.42-84.95-10.93-19.26,4.52-57.08,8.74-57.08,8.74,4.77,11.88,36.58,17.54,36.58,17.54-7.75,2.78-42.49,1-42.49,1a42.9,42.9,0,0,0,29.42,13c-7.66,3.52-29.42-1.39-29.42-1.39,42.43,37.46,79,17.09,105.16,17a53,53,0,0,1,32.72,22.42,78,78,0,0,1,6,16.65,41.64,41.64,0,0,1-2.5,20.37c-14.82,38.32,28.36,70.24,28.36,70.24-2.41-17.68,0-26,10.41-49.62C530.37,217.76,509.06,180.52,491.75,161.32Z"/><path class="cls-27" d="M460.16,245.41s14-20.15,24.76-9,1.72,41.43-22.64,36.6"/><path class="cls-28" d="M506.81,794.37s-33.3,16.65-45,39.71c0,0,40.54,8,71.15,10.38l6.36-21.87Z"/><path class="cls-21" d="M559.68,596.86,524.1,497a22.88,22.88,0,0,0-15.76,20.17,22.7,22.7,0,0,0,1.14,8.92l46,109.84Z"/><path class="cls-20" d="M494.05,391.22l70.65-.64s37,21.33,47.35,77.24,40.34,152.64,29,206.7c-9.74,46.32-101.72,176.31-101.72,176.31l-59.44-42.67,78.85-164.38-49-169.7Z"/><g class="cls-29"><path class="cls-30" d="M491.74,161.32a56.29,56.29,0,0,0-4.88-5.36,98.45,98.45,0,0,0-9.61-8.05c-1.55-1.16-2.5-1.77-2.5-1.77C453.16,131.38,426,126.71,389.8,135.2l-1.39.34c30.89-4.43,55.11,1.25,74.94,15,0,0,1,.66,2.77,1.94a105.34,105.34,0,0,1,10.3,8.8,65.94,65.94,0,0,1,5.25,5.83c18.62,21.06,41.48,61.77,16.37,120.08a206.88,206.88,0,0,0-9.84,26,88.18,88.18,0,0,0,8.32,7.49c-2.41-17.68,0-26,10.41-49.62C530.37,217.77,509.05,180.53,491.74,161.32Z"/></g><path class="cls-17" d="M1601.8,379.83l-27.75-43.26a107.82,107.82,0,0,1,92.8,52.5c33.91,55.84,61.72,193.49,61.72,193.49s41.49,139.62-20.56,254.38l-49.81-82.09s-52.73-76.56-60.73-84.53S1601.8,379.83,1601.8,379.83Z"/><path class="cls-31" d="M1646.37,166.17s9.55,27.59,8.33,46.75.17,47.56-11.6,56.58-48.35-80.48-44.41-84.59S1646.37,166.17,1646.37,166.17Z"/><path class="cls-32" d="M1601.07,292s2,64.92,35,72.16-24.45,49.73-24.45,49.73l-81.84,16.4L1495.42,375s31.66-12.07,11.1-114C1497.25,214.6,1601.07,292,1601.07,292Z"/><path d="M1680.59,484.63s44,149.44,45.51,207.83c.83,32.28-17.95,127.88-17.95,127.88l-38-118.39Z"/><path class="cls-6" d="M1560,376.87l16.65-8.63s5.55,2.35,21.93-4.67,10.88,29.92,10.88,29.92l2.27,21.51s-25.53.49-28.83,0-19.42-1.53-19.42-1.53Z"/><path class="cls-33" d="M1560,376.87l16.65-8.63s5.55,2.35,21.93-4.67,10.88,29.92,10.88,29.92l2.27,21.51s-25.53.49-28.83,0-19.42-1.53-19.42-1.53Z"/><path class="cls-34" d="M1586.21,320.53l15,7.69,5.55-.92.53,2.64s20.48,23.9-15.16,25.28c-12.62.49-65.22-25.39-73.41-60.69a193.07,193.07,0,0,1-4.82-53Z"/><path class="cls-35" d="M1652.56,242.06c.36,1.36.67,2.77,1,4.11,4.63,24.36-4.75,46.54-16,67.35-29,53.7-121.31,9.52-122.11-54.58-.81-52.73,12-95.8,53.84-107.15,25.92-7,57.69-5.86,74.79,36.6,3.66,9.11,1.88,19,3.33,28.48a227.37,227.37,0,0,0,5.21,25.19Z"/><path class="cls-17" d="M1575.38,398c34.77,5.91,58.09-7.9,40.27-46.4-2.22-4.83,28.92,5.69,30.72,10.69,15.6,43,51.4,189.24,51.4,235.68,0,52.9,29,181.89-9.84,196.35a15.41,15.41,0,0,1-5.55.88c-12.74,0-71.52,0-78.15-1.91-7.44-2.17-24.53,15-60.47,1s-102,15.18-121.53-1.11-29.45-146-11.1-173.84,25-266.19,25-266.19,23.09-15,72.46-8.68C1522.79,346.29,1519.1,388.48,1575.38,398Z"/><path class="cls-36" d="M1407.91,696.71l-4.42,49.1s68.18,50,117.06,43.87-8.33-54.86-8.33-54.86Z"/><path class="cls-37" d="M1611.85,827.37c2-4.33-3.86-7.08-18.73-14.1-.56-.25-3.16-3.55-3.77-3.86-2.34-1.38,18.56,9.16,21,5.3,3.19-5.13-.81-8.32-19.63-17.26-12.09-5.82-23.72-10.52-24.6-15.18-2.3-12,31.22-6.55,18.85-14.07a136.23,136.23,0,0,0-20.81-8.68c-10.94-3.53-9.3-3.72-30.34-5.55-33-2.78-55-57-48.22-17.32a105.31,105.31,0,0,0,13.88,40.26c16.34,26,43.63,48.68,61,57.08l3.31,1.64c8.68,4.74,17.12,6.89,18.86,4.89,2.61-3.09-7.68-9.47-15.84-13.24-2.34-1.08,27,12.27,29.94,8.86s-10-10.52-19.59-15.08C1574.38,819.79,1608.77,833.9,1611.85,827.37Z"/><path class="cls-17" d="M1507.67,393.36a43.75,43.75,0,0,0-38-47.19c-.77,0-3.82-.77-4.63-.83-28.42-2-45,21.26-62.17,43.13-19.76,25-68.71,139.09-72.15,230.06a38,38,0,0,0,4.3,18.82c15.46,29.69,70.36,123.83,157,148.39,0,0,47.18-22.78,52.4-51,0,0-93.61-115.47-120.67-133.79C1423.81,601,1501.17,475.23,1507.67,393.36Z"/><path class="cls-38" d="M1488.18,487.9,1423.83,601l91.39,98.38-62.56-98.82Z"/><path class="cls-39" d="M1550.88,189.07s99.91,11.81,131.66-33.3l-29,4.63A49.29,49.29,0,0,0,1686,126a87.31,87.31,0,0,1-41.24,13.1l12.16-19.63a67,67,0,0,1-42.38,14.66,41,41,0,0,0,10.66-17.26s-19.42,20.31-45.93,12.84c-17.51-5-64,1.28-79,33.67C1491.27,182.6,1550.88,189.07,1550.88,189.07Z"/><path class="cls-40" d="M1575.38,173.8l9.58-34.32S1511,122.66,1489.18,171c-32.41,72,24.51,148.48,24.51,148.48s26.31-26.73,12.54-62.81C1518.05,235.22,1551.57,231.53,1575.38,173.8Z"/><path class="cls-41" d="M1542.16,228.12c-1.91-9.58-22.81-23.2-31.55-1-7.08,17.93,9.37,40.44,32.27,29.25"/><path class="cls-6" d="M1513,320.17s29.89,42.52,72.49,47.85l-29.83,49.2-60.44-74.93Z"/><path class="cls-6" d="M1602.91,356a130.53,130.53,0,0,1-17.43,12L1617,409.64l9.66-61.05-13.49-10.47S1613,345.28,1602.91,356Z"/><path class="cls-42" d="M989.48,158.2s-14.66-53.76-63-50c-41,3.16-40.88,33.3-72.16,41.63-30.08,7.9-37.05,38-26.45,69.6S821,239.31,811.66,263s-5.3,42.16,14.21,58-15.3,32.42-24.23,65.22c-15.38,56.34,32.66,76.37,32.66,76.37l53.14-26.07,39.27-18L958,143.09Z"/><path class="cls-43" d="M936.05,139.12s39.3-22.2,64.86-2c21.84,17.18,5.71,33.46,28.3,51.66,28.67,23.09,33.31,46.07,27,68.36-6.33,22.72-13.24,25.69-4.39,45.9s63.69,36.07,44.41,96.69c-9.74,30.5-80.26,18.32-80.26,18.32Z"/><path class="cls-8" d="M891.65,344.48H866.07s-47,9.41-79.57,39.47-55.87,241.28-55.87,241.28S765.49,762.38,835.26,801s39.91-154.91,39.91-154.91Z"/><path class="cls-44" d="M852.24,575.85l-45.76-86.64L787.08,609l4.78,144.66Z"/><path class="cls-45" d="M984.26,244.57,1003,208.49A69.79,69.79,0,0,1,1013.37,281c-10.55,26.12,54.09,30.81,50.59,78.4-4.3,58.5-158.19,19.43-158.19,19.43s-27.95,23.39-49.62,6.51c-51.18-39.82,23.06-58.41,9.43-108.24-11.81-43.1-17.87-66.39,23.57-97.43"/><path class="cls-8" d="M1009.68,341.43h25.59s47,9.4,79.59,39.46,55.83,241.28,55.83,241.28S1135.86,759.32,1066.07,798s-39.88-154.91-39.88-154.91Z"/><path class="cls-44" d="M1049.12,572.8l45.76-86.64,19.4,119.8-4.75,144.66Z"/><path class="cls-8" d="M837.14,370.6l-19.42-9.84s13.23-48.29,87.06-58.28c86-11.77,105.79,3.13,130.43,39"/><path class="cls-46" d="M902.84,291.73,897.28,287l-.44,34.47a17.45,17.45,0,0,1-11.1,16l-25.09,9.76s39.43,33.95,77.93,30.09S1013,351.2,1013,351.2l-19.42-8a17.35,17.35,0,0,1-10.69-15.35l-1.91-46.9Z"/><path class="cls-47" d="M902.84,291.74,897,309.28s14.66,20.45,45.25,23.23S988,319.45,988,319.45s-6,9.5-5.9-29.6Z"/><path class="cls-48" d="M871,214.05c3.74-39.77,25.8-73.77,72.71-70,72.16,5.8,68.39,126.35,29.81,163.45-23.4,22.49-62.39,19.43-79.4-2.77S867.92,246.16,871,214.05Z"/><path class="cls-49" d="M997,208.49c-3.33-15.57-6.33-30.72-14.32-42.51l-37.36,17.78s-6,34.86-5,46.49a115.55,115.55,0,0,0,11.1,33.55l-6.24,3.89S948.19,309,942.33,323c12.85-1.81,32.28-13.71,38.69-24.34A118.82,118.82,0,0,0,997,208.49Z"/><path class="cls-50" d="M986,134.7s8.8,36.77-19.73,48.68a55,55,0,0,1-50.68-3.72,47.17,47.17,0,0,1-38.52,36.08c-26.64,5-6.69,36.71-6.69,36.71s-15.84-32.86-15.07-55.06S885.46,147,885.46,147l24.8-15.43L960.91,126Z"/><path class="cls-51" d="M960.9,152.71s-5.42,25.67,9.1,26.95c22.81,2,16.85,13.88,19.42,22.89a67.75,67.75,0,0,0,20.21,30.17l3.24-39.3-7.46-35.58L991.53,144,966.93,141Z"/><path class="cls-52" d="M935.11,689.29l.28-.09-.06-.64Z"/><path class="cls-53" d="M881,224.32s-4.58-20.15-18.2-9-5.55,50.68,18.4,37.77"/><path class="cls-44" d="M926.84,699.88l42.77,168.43s88.45-5.86,123.61-27.07S926.84,699.88,926.84,699.88Z"/><g class="cls-54"><path class="cls-55" d="M1496.26,182c16.9-43.51,67.6-51.48,81.65-50a43.34,43.34,0,0,0,14.09-.84,43,43,0,0,1-12.76-1.6c-13.57-3.86-44.63-.95-64.86,15.68a52.46,52.46,0,0,0-25.19,25.8c-32.42,72,24.5,148.42,24.5,148.42A62.88,62.88,0,0,0,1527.87,294C1506.89,267.41,1481.74,219.59,1496.26,182Z"/></g><path class="cls-56" d="M994.84,220.79s3.69-17.26,15.43-7.91,5.32,43.27-15.3,32.48"/><path class="cls-57" d="M994.84,220.79s3.69-17.26,15.43-7.91,5.32,43.27-15.3,32.48"/><path class="cls-58" d="M867.73,346s25.79,23.76,76.07,16.65,53.4-17.9,53.4-17.9l41.4,15.75,22.76,51.26s16.65,43.74,16.37,47.37-15.4,58.28-15.4,58.28l2.56,195.55s-34.25,39.1-116,43.73S819,726.75,819,726.75L830.11,582l8.55-111,7.24-94.08-2.77-30.51Z"/><path class="cls-8" d="M992,338.1s-6-1.14-4.3,48.51c6,171.54-87.9,296.11-87.9,296.11l75.13,172.07s97.8,5.55,133.21-19.07c0,0,7.68-47.18,1.47-85s-27.42-104.43-25.75-152.44,11.1-112,11.1-112l-26.67-107.68S1050.73,354.77,992,338.1Z"/><path class="cls-44" d="M942.13,716.25l67.58-33.33L932.2,871.3,817.61,849.16Z"/><path class="cls-8" d="M860.62,347.26s19.73,1.91,21.29,40.34c7.27,178.39,127.66,295.29,127.66,295.29L925,858.75S794.27,856,782.72,834.86c0,0,18.7-97.85,21.67-124s4.5-45.27,8.86-88.47-8-93.83-4.58-124.89S793.91,386,793.91,386,823.38,341.23,860.62,347.26Z"/><path class="cls-44" d="M1017.59,346.31l17.68-4.88s-5.55,8.32-13,18.15a292.66,292.66,0,0,0-30.75,50.18Z"/><path class="cls-44" d="M835.7,359.41l-18.12,2.95a176,176,0,0,1,26.26,22.34,259.38,259.38,0,0,1,34,42.65Z"/><path class="cls-8" d="M891.51,333.94c-15.68,43.79-7.57,78.51-4.16,101.54,0,0-29-58.91-69.63-74.71C817.72,360.77,905,296.28,891.51,333.94Z"/><path class="cls-8" d="M984.79,330.86c7.07,32.72.86,94.08.86,94.08s17.71-49,26.92-60.72c16.95-21.68,22.7-22.79,22.7-22.79S977.13,295.36,984.79,330.86Z"/><path class="cls-44" d="M896.62,315s-21.07,9.44-13.88,59.05c0,0,2-32.78,8.77-40.16A22.94,22.94,0,0,0,896.62,315Z"/><path class="cls-44" d="M982.43,315.92s-.5,16.65,3.49,21l1.92,20.56S994,331.27,982.43,315.92Z"/><path class="cls-44" d="M959.76,737.73a10,10,0,0,1-12,9.85,10,10,0,0,1-7.32-13.69,10,10,0,0,1,19.33,3.84Z"/><path class="cls-44" d="M979.85,692.86A10,10,0,0,1,962.7,700a9.92,9.92,0,0,1-2.75-5.14,10,10,0,1,1,19.9-2Z"/><path class="cls-59" d="M939.07,226.09s-.33,28,7.66,36.52A20.68,20.68,0,0,1,933,268.16s12.1,1.72,18.26-4.47C951.23,263.8,940,242,939.07,226.09Z"/><path class="cls-60" d="M966.5,204.86a25,25,0,0,1,7.46.83,29.77,29.77,0,0,1,6.72,2.53,32.18,32.18,0,0,1,5.86,3.88,35.58,35.58,0,0,1,4.82,4.92,33.75,33.75,0,0,0-5.55-3.93,29.11,29.11,0,0,0-6.07-2.61,28.63,28.63,0,0,0-6.36-1.17,22.39,22.39,0,0,0-6.11.39h0a2.47,2.47,0,0,1-3-1.84,2.49,2.49,0,0,1,1.85-3Z"/><path class="cls-60" d="M910.05,212.08a22.78,22.78,0,0,0-6.44.13A31.42,31.42,0,0,0,897,214a30.45,30.45,0,0,0-6.13,3.3,37.43,37.43,0,0,0-5.55,4.58,39.05,39.05,0,0,1,4.63-5.55,32.5,32.5,0,0,1,5.8-4.6,31.22,31.22,0,0,1,6.83-3.25,27.11,27.11,0,0,1,7.75-1.56,2.61,2.61,0,0,1,1,.12,2.59,2.59,0,0,1,1.54,1.36,2.74,2.74,0,0,1,.26,1,2.6,2.6,0,0,1-.17,1,2.53,2.53,0,0,1-.56.89,2.69,2.69,0,0,1-.86.59,2.64,2.64,0,0,1-1,.21h-.49Z"/><path class="cls-61" d="M917.63,280.65s20.42,32.28,49,1.22C966.58,281.76,939.94,296.33,917.63,280.65Z"/><path class="cls-60" d="M918.76,234.75a10.58,10.58,0,0,0-5.55-5.25,13.65,13.65,0,0,0-7.32-.77,14.6,14.6,0,0,0-6.75,2.91,9.39,9.39,0,0,0-3.55,6.27v.67l-.56-.17c-1.42-.49-2.77-.86-4.24-1.36,1.47,0,3,.22,4.42.36l-.61.49a9.74,9.74,0,0,1,.78-4.23,9.59,9.59,0,0,1,2.52-3.48,14.08,14.08,0,0,1,7.72-3.5,13.17,13.17,0,0,1,8.33,1.44,9.6,9.6,0,0,1,3.14,2.77,9.41,9.41,0,0,1,1.67,3.85Z"/><path class="cls-60" d="M896,236.11l-4.88-1.75,5.16.49Z"/><path class="cls-60" d="M960.89,234.75a9.58,9.58,0,0,1,4.72-6.63,13.09,13.09,0,0,1,8.32-1.45,14.18,14.18,0,0,1,7.75,3.5,9.65,9.65,0,0,1,3.28,7.72l-.61-.49c1.47,0,2.95-.31,4.42-.36-1.38.49-2.77.88-4.24,1.35l-.53.17v-.66a9.28,9.28,0,0,0-3.55-6.28,14.45,14.45,0,0,0-6.75-2.91,13.76,13.76,0,0,0-7.32.78,10.54,10.54,0,0,0-5.5,5.24Z"/><path class="cls-60" d="M983.4,234.86l5.16-.49-4.88,1.75Z"/><g class="cls-62"><path class="cls-63" d="M994.84,220.79s3.69-17.26,15.43-7.91,5.32,43.27-15.3,32.48"/><path class="cls-64" d="M994.84,220.79s3.69-17.26,15.43-7.91,5.32,43.27-15.3,32.48"/></g><path class="cls-65" d="M1306.72,192.56h-18.79s-32.31,4-48.32-4-33.3,52.53,0,65.52S1306.72,192.56,1306.72,192.56Z"/><path class="cls-66" d="M1257,305.79s-29.52,77.54-1.81,140.9,142,64.46,142,64.46l58.47-62.22-15.12-79.22Z"/><path class="cls-67" d="M1273.8,305.79s-23.08,77.54-1.43,140.92,111.2,64.46,111.2,64.46L1429.33,449l-11.85-79.22Z"/><path class="cls-68" d="M1321.45,325.58l33.69-16.84s-3,85.69,20.51,104.73c0,0-60.06,53.48-114.25,5.9a128,128,0,0,0,13.18-82.78C1265.78,290.43,1321.45,325.58,1321.45,325.58Z"/><path class="cls-69" d="M1323.56,341.71l20-5.86s-.64,59.67-72.65,63.14l10.37-44.1Z"/><path class="cls-70" d="M1313,196.64c-29.62-5.27-56.31,2-74.63,35.64-10.93,20.06-4.5,54.23-13.38,64.66-5.86,6.86-9.55,5.22-7.38,9.63a14.88,14.88,0,0,0,10,7.08s5.3,51.17,33.3,58.28a80.53,80.53,0,0,0,85.48-35.61C1358.39,317,1377.71,208.19,1313,196.64Z"/><path class="cls-70" d="M1313,196.64c-29.62-5.27-56.31,2-74.63,35.64-10.93,20.06-4.5,54.23-13.38,64.66-5.86,6.86-9.55,5.22-7.38,9.63a14.88,14.88,0,0,0,10,7.08s5.3,51.17,33.3,58.28a80.53,80.53,0,0,0,85.48-35.61C1358.39,317,1377.71,208.19,1313,196.64Z"/><path class="cls-71" d="M1252,195.09s20.37.36,24.76,27.22,23.92,56.65,57.61,52.26S1361,319.51,1361,319.51L1420.83,252a104.38,104.38,0,0,0-73.26-62C1323,184.27,1272.16,197,1252,195.09Z"/><path class="cls-72" d="M1481.33,794.79s28.31,28.77,34.58,43.15,4.89,48,4.89,48-21.16,35.92-31.09,34.69c-2.33-.3-5.55,0-4.42-9.54,1.11-8.77,14.79-22.34,14.76-31.2S1485.53,850,1485.53,850s-10.85,3.67-9.41,27.42c.87,14.4-14.68,7.19-16.78-3.58s-4.2-51.66-4.2-51.66Z"/><path class="cls-20" d="M1350.75,514.58l16.65-112.37s58.42,11.65,61.06,127a855,855,0,0,0,12.46,123l60,152.34s-49.69,39.57-72.51,39.57l-54.21-89.36Z"/><path class="cls-12" d="M1362.41,633.52l30.89-73.76L1412,675.51l44.77,156.89a46,46,0,0,1-28.44,11.81l-54.21-89.38Z"/><path class="cls-20" d="M1269,399s50,43.94,98.4,3.22a120.83,120.83,0,0,1,32.42,36.9c14.65,25-4.38,112.09-4.38,112.09s11.1,216.83,24.17,239.53c0,0-76.93,27.75-158.19,19-68.47-7.41-93.78-12.47-93.78-12.47S1196.7,627,1203.53,563.73c3.5-32.47,11.1-143.86,11.1-143.86S1242.63,397.46,1269,399Z"/><path class="cls-73" d="M1370.12,254.11s-78-2.22-69.18,4.11c30.75,22,38.63,44.77,30.5,99.24-28.69,193.79,97.47,216.75,109.1,188.3,26.14-64,60.3-288.24-79.6-349.15Z"/><path class="cls-74" d="M1319.09,277.87s17.65-20.28,27.06-6.66-4.72,43.55-27,34.5"/><path class="cls-75" d="M1318.65,279.26s19.09-21.95,29.28-7.19,1.17,56-29.22,37.3"/><path class="cls-12" d="M1211.94,620.69c-14.51-55.5-1.47-72.15-1.47-108.24,0-6.69-.17-16.38-.45-27.75-2.27,30.5-4.85,63.63-6.49,79-6.83,63.36-35.92,233.64-35.92,233.64s25.31,5.06,93.78,12.47c81.28,8.79,158.18-19,158.18-19C1417,786.27,1261.4,809.74,1211.94,620.69Z"/><path class="cls-20" d="M1216.71,418S1181,438.59,1171,492.56s-38.87,147.28-28,199.57c9.38,44.73,137.23,186.74,137.23,186.74l62.23-53.47L1238,659.39l31.75-160.77,2.46-13A57,57,0,0,0,1216.7,418Z"/><path class="cls-12" d="M1252.48,531.42l-14.48,128,98.66,156.8-75.28-152.27Z"/><path class="cls-76" d="M1400.26,221.45c56.92,88.57,54.87,183.81,29.09,227.57-9.24,15.63-58.51,73.24-92.25,31.33,26,79.68,95,86.2,103.49,65.5C1463.93,488.62,1493.67,303.82,1400.26,221.45Z"/><path class="cls-77" d="M750,363.91S716.64,361.8,691.17,479s-26.5-30-26.5-30l-46.32-59.67s47.18-49.34,47.81-88.57S750,363.91,750,363.91Z"/><path class="cls-78" d="M766.77,329.91,721.34,393s-63.47,47.18-93.75-14.27l35.66-35.05Z"/><path class="cls-44" d="M629.11,379.56a150,150,0,0,0,30.34,40.66c11.48,10.37,25.78,18.56,42.18,18.17,0,0,15.62,16.65,18.45,61.86s-.86,106.87,3.39,138.75,16.32,167.46,27.75,181.56-29.61,24-84.81,16.24-87.2-27.61-106-26.39c-47.51,3.11-39.15,18.87-60.69,7.83,0,0-24-59.73,2.78-142.09S561.73,488.9,561.73,488.9,614.93,371.45,629.11,379.56Z"/><path class="cls-79" d="M546.49,648.59,619.82,536l-30,141.15,57.86,146.31L534.11,809.54s-30.51,22.57-34.58,8.61S481.21,742,495.56,701a86.84,86.84,0,0,1,50.93-52.45Z"/><path class="cls-80" d="M614,795.93l22.79,26.57,42.31,27.75s-28.39,44.4-56.64,50.09l-49.4-70.85Z"/><path class="cls-44" d="M618.35,429.7l9.29-50.95s-41.3,17.4-75.88,70.29a546.25,546.25,0,0,0-36.54,73.27c-23.62,55.34-46.6,123.47-43.91,155.8,4.22,50.81,80,168.34,117.14,193.37,0,0,29.64-33.86,59.28-48,0,0-74.65-132.21-90.33-167.3,0,0,35.3-84.08,73.41-122.83S618.35,429.7,618.35,429.7Z"/><path class="cls-81" d="M718,222.56c30.22-4.27,54.25,7.67,70.68,44.91,9.84,22.2.56,45.09,9.05,56.95,5.55,7.77,9.63,6.39,7,10.85a15.9,15.9,0,0,1-11.1,6.66s-9.24,44.71-36.53,53.09c-24.53,7.52-75.2-8.69-90.47-46.46C657.51,326.22,648.71,232.36,718,222.56Z"/><path class="cls-82" d="M700.75,262.61a30.53,30.53,0,0,1,24.19-2.28c47.6,10.61,75.16-4,79.57-21,3.69-14.12-2.77-32.72-19.42-33.75-15.26-1-17.9-5.55-27-17.34-4.6-6-10.4-12.57-17.95-12.3-9,.36-18.09,11.27-25.36,5.94-17.16-12.52-48.49-8.16-60.28,11.65-6.08,10.22-17.6,12.16-28.7,15.66a27.73,27.73,0,0,0-18.2,32.58c3.19,13.52-2.53,21-9.61,31-5.55,7.72-10.05,17.4-6.94,26.34,2.39,6.89,8.86,11.52,12.66,17.76,6.77,11.1,4.3,26.08,11,37.33a26.15,26.15,0,0,0,19,12.4c28.2,3.5,39.94-33.3,38.63-55.22-1.55-25.73-5.16-33.3,4.43-38.87C683.46,268.71,692.06,268.24,700.75,262.61Z"/><path class="cls-83" d="M693.75,271.47c0-8-20.37-23.37-31.2-7.66s5.42,50.15,31,39.74"/><g class="cls-84"><path class="cls-85" d="M730.69,181.91c-.78-.55-1.61-1-2.41-1.52A30.8,30.8,0,0,1,740.21,176a14,14,0,0,1,8,2.33C741.9,181.3,735.82,185.69,730.69,181.91Z"/><path class="cls-86" d="M597.84,273c7.07-10.07,12.79-17.54,9.6-31a27.77,27.77,0,0,1,18.43-32.69c11.1-3.5,22.63-5.55,28.69-15.65,8.72-14.62,28.05-20.81,44.41-18a40.35,40.35,0,0,0-28.62,18c-6,10.05-17.62,12.16-28.72,15.66a27.74,27.74,0,0,0-18.34,32.58c3.19,13.52-2.53,21-9.61,31.05-5.55,7.72-10.07,17.4-7,26.34,2.42,6.89,8.86,11.52,12.69,17.76,6.77,11.1,4.3,26.08,11.1,37.33a26.12,26.12,0,0,0,14.68,11.43,26.58,26.58,0,0,1-11.52,1,26.13,26.13,0,0,1-19-12.41c-6.66-11.1-4.19-26.17-11-37.32-3.81-6.25-10.27-10.88-12.66-17.77C587.8,290.37,592.4,280.65,597.84,273Z"/></g><path class="cls-44" d="M689.86,455.71a70.62,70.62,0,0,1,26.08-22.63c6.55-3.39,11.81-8.33,6.8-13.88-10.1-11.31-14.16-4.21-38.63-20.26s-42.77-57.44-56.45-35a54.78,54.78,0,0,0-9.29,25.45Z"/><path class="cls-87" d="M1320.53,825.4l37.11,26.08s-36.08,33.46-57.39,37.44l-20.32-24.23Z"/></svg>