<?xml version="1.0" encoding="utf-8"?>
<!-- Generator: Adobe Illustrator 24.3.0, SVG Export Plug-In . SVG Version: 6.00 Build 0)  -->
<svg version="1.1" id="Calque_1" xmlns="http://www.w3.org/2000/svg" xmlns:xlink="http://www.w3.org/1999/xlink" x="0px" y="0px"
	 viewBox="0 0 180.3 344.5" style="enable-background:new 0 0 180.3 344.5;" xml:space="preserve">
<style type="text/css">
	.st0{fill:#CFAE90;}
	.st1{fill:#EDCFB4;}
	.st2{fill:#C4A589;}
	.st3{opacity:0.1;}
	.st4{clip-path:url(#SVGID_2_);}
	.st5{fill:#424242;}
	.st6{clip-path:url(#SVGID_4_);}
	.st7{clip-path:url(#SVGID_6_);}
	.st8{fill:#E5E5E5;}
	.st9{clip-path:url(#SVGID_8_);}
	.st10{fill:url(#SVGID_9_);}
	.st11{fill:#F7E5D5;}
	.st12{fill:none;}
</style>
<path class="st0" d="M40.7,81.6c0,0-15.2-19-23.5-10.7S16.7,93.6,32.4,115s24.7-5.3,24.7-5.3L40.7,81.6z"/>
<path class="st0" d="M47.8,119.1L0,146.2c0,0,15.3,21.7,42.5,6S62.2,119,62.2,119L47.8,119.1z"/>
<path class="st1" d="M3.9,150.3c8.2-3.5,25.9-12.1,20.2-17.8L0,146.2C1.2,147.7,2.5,149.1,3.9,150.3"/>
<path class="st2" d="M62.4,182.8l-32.7,9.8c-6.5,2-11.6,7.2-13.3,13.8l-7.9,29.8c0,0,23.6,1,37.1-29S62.4,182.8,62.4,182.8"/>
<path class="st0" d="M58.5,152.4l-32.7,9.8c-6.5,2-11.6,7.2-13.3,13.8l-7.9,29.8c0,0,23.6,1,37.1-29S58.5,152.4,58.5,152.4"/>
<path class="st1" d="M16.3,182.3c0,0,2.5-8.2-3.1-8.6c-0.3,0.7-0.5,1.4-0.7,2.2l-7.9,29.8c2,0,4.1-0.2,6.1-0.7L16.3,182.3z"/>
<path class="st0" d="M94,338c2.2,0.7,4.5,1.3,6.8,1.8c0.5-0.3,1.1-0.4,1.7-0.5c8-0.6,16-0.1,24,0c8.4-0.7,16.9-1.7,25.4-1.5
	c-2.9-47.4-7.7-122.5-7.7-122.5l4.7-51.3l-40.9-6.2l-32,18.5l-46.1,2.4c0,0,3.7,103.7,38.2,123.6c12,6.9,19.3,20.6,23.7,35.4
	C92.5,337.7,93.3,337.8,94,338z"/>
<g class="st3">
	<g>
		<defs>
			<rect id="SVGID_1_" x="29.8" y="157.9" width="119" height="100.7"/>
		</defs>
		<clipPath id="SVGID_2_">
			<use xlink:href="#SVGID_1_"  style="overflow:visible;"/>
		</clipPath>
		<g class="st4">
			<path d="M107.8,157.9l-32,18.5l-46.1,2.4c0,0,1.6,43.7,12.1,79.8h102.9c0.7,0,1.4-0.1,2.1-0.2c-1.6-24.5-2.8-43.1-2.8-43.1
				l4.7-51.3L107.8,157.9z"/>
		</g>
	</g>
</g>
<path class="st5" d="M144.8,246.7H38.9c-8.1,0-14.8-6.6-14.8-14.7V14.8C24.1,6.6,30.7,0,38.9,0h105.9c8.2,0,14.8,6.6,14.8,14.8V232
	C159.6,240.2,152.9,246.8,144.8,246.7"/>
<g class="st3">
	<g>
		<defs>
			<rect id="SVGID_3_" x="104.5" y="128.3" width="55" height="118.5"/>
		</defs>
		<clipPath id="SVGID_4_">
			<use xlink:href="#SVGID_3_"  style="overflow:visible;"/>
		</clipPath>
		<g class="st6">
			<path d="M159.6,232V128.3c-8,2.1-18.6,10.7-22.2,40.1c-5.1,43-22.2,60.5-32.9,78.3h40.2C152.9,246.7,159.5,240.1,159.6,232"/>
		</g>
	</g>
</g>
<g>
	<defs>
		<path id="SVGID_5_" d="M144.8,5.2h-27.9c0,4.2-3.4,7.5-7.5,7.5H74.4c-4.2,0-7.5-3.4-7.5-7.5H38.9c-5.3,0-9.6,4.3-9.6,9.6l0,0l0,0
			V232c0,5.3,4.3,9.6,9.6,9.6h105.9c5.3,0,9.6-4.3,9.6-9.6V14.8C154.4,9.5,150.1,5.2,144.8,5.2L144.8,5.2L144.8,5.2"/>
	</defs>
	<clipPath id="SVGID_6_">
		<use xlink:href="#SVGID_5_"  style="overflow:visible;"/>
	</clipPath>
	<g class="st7">
		<rect x="27.7" y="4.7" class="st8" width="129" height="238.3"/>
		<g>
			<defs>
				<path id="SVGID_7_" d="M53.7,219.8c0.4-0.8,0.5-1.7,0.5-2.6v-7.1c0-1.8,0.3-3.7,0.9-5.4l1.2-3.4c0.6-1.6,0.4-3.4-0.4-4.9l9-13.4
					l20.4-0.8l6.8,5.8l1.3,0.3v11.2L84,216.9l-0.9,4.2h-5.4c-4.3,0-8.2,2.4-10.2,6.1l-1.1,2C61.6,225.9,55.7,221.3,53.7,219.8
					 M99.1,209.6l-4.9-4.4l2.7-4.9v-12.9l5.3-7.5l5.9,4.4c-1,3.4-0.9,6.9,0.4,10.2c0.7,1.8,0.9,4.8,1.1,7.8c0.2,4.1,0.4,8.3,2,11.2
					l-7.8,3.5L99.1,209.6z M128.8,184.3c-1.9-3.2-4-6.2-6.4-9l8.5,4.5c1.8,3.4,3.1,6.9,4,10.6C132.4,188.8,130.4,186.7,128.8,184.3
					 M104.2,177l1.8-2.5l11.4,0.2c1.5,1.7,6.2,7.1,8.4,11.2c2.5,4.5,7.7,7.7,9.8,8.9c0,0.4,0.1,0.7,0.1,1.1c0.1,1.4,0.1,2.8,0,4.2
					c-1.9-0.9-3.6-2-5.3-3.2l-16-12.1l2.1-3l2.9,2.4l1-1.2l-4.2-3.5l-3,4.3L104.2,177z M141.2,181.3c-0.7-1.6-1.5-3.1-2.2-4.7
					c-1.2-2.4-2.4-4.8-3.5-7.6c4.8,2.9,8.3,10.1,9.7,14.9C143.6,182.9,142.2,182,141.2,181.3 M73,169.7c3.6-0.6,6.9-2.3,9.4-5
					l17.2,13.1l-5,7.2l-0.7-0.1l-7.2-6.1L73,179.2V169.7z M118.5,169.4l-0.2-0.5h0.2c3,0,5.5-2.4,5.7-5.4v-0.5
					c1.1,4,2.5,7.8,4.3,11.6L118.5,169.4z M86.2,159.9c3.6-4.6,10.3-5.4,14.9-1.8c4.4,3.5,5.3,9.7,2.2,14.3l-1.8,2.5l-17-12.9l0,0
					L86.2,159.9z M68.4,151.5c0.9,0.1,1.9,0.1,2.8,0c0.3,0.7,0.2,1.4-0.1,2c-0.5,0.4-1.1,0.7-1.7,0.7
					C69.1,153.3,68.8,152.4,68.4,151.5 M87.4,153c0-3.6-1.2-7-3.4-9.9l7-3l5.5,12.3c-3.2-0.4-6.5,0.3-9.2,2
					C87.3,153.9,87.3,153.4,87.4,153 M107.8,171.1c2.5-6.7-0.5-14.3-7-17.4l-6.7-14.9l6.2-2.6l15.2,35.1L107.8,171.1z M103.5,134.8
					l18.2-7.7c-0.1,2.8-0.2,5.5-0.3,8.3c-0.2,7.4,0.3,14.7,1.5,22l-0.3,6c-0.1,2.2-1.9,3.9-4.2,3.9h-0.8L103.5,134.8z M46.4,132.6
					l6.6-9.5l6.1,4.7l-6.6,9.4L46.4,132.6z M80.8,140l-10-7.6l6.8-9.6l0.6,0.5c1.7,1.2,3.8,1.7,5.8,1.3l5.6,12.5l-8.1,3.4
					C81.3,140.3,81,140.1,80.8,140 M87.2,123.4l6.4-2.8l5.4,12.4l-6.3,2.7L87.2,123.4z M31.3,121.6V118l18.1,2.4l0.9,0.7l-7,10
					L31.3,121.6z M63.8,127l6.7-9.5l4.3,3.2l-6.8,9.6L63.8,127z M52.3,118.3l6.1-10c0.2,0.2,0.4,0.4,0.7,0.6l8.7,6.5l-6.7,9.6
					L52.3,118.3z M64.8,108.9c2.6-1.7,6-1.4,8.4,0.5l0.8,0.6c2.3,1.8,3.2,4.8,2.4,7.6L64.8,108.9z M132.8,105.8l6.6,0.9
					c-3,1.9-5.6,4.4-7.5,7.5C132.1,111.4,132.4,108.6,132.8,105.8 M96.8,119.3l10.8-4.6c2.5-1.1,4.2-3.3,4.5-6l0.2-1.6l4-2
					c-0.3,1.4,0,2.8,0.8,4c1,1.3,2.5,2.1,4.1,2.1c0.6,0,1.2,0,1.7-0.2c-0.4,4.1-0.8,8.3-1,12.4l-19.7,8.4L96.8,119.3z M139,201.5
					c0.1-1.2,0.2-2.3,0.2-3.4c0-0.8,0-1.6-0.1-2.4c-0.6-8.3-3.2-13.5-5.9-19c-4.1-8.2-8.7-17.6-8.4-41.2c0.2-10.2,0.9-20.4,2.2-30.5
					l2.4,0.3c-1.2,10-2,20-2.1,30.1c-0.3,24.4,4.5,34.1,8.8,42.7c2.7,5.4,5,10.1,5.6,17.8c0.1,2.1,0.1,4.2-0.2,6.3
					C140.6,202,139.8,201.8,139,201.5 M121.2,109c-1.6,0.1-2.9-1.1-3-2.7c0,0,0,0,0,0c0-0.4,0.1-0.8,0.2-1.1
					c0.1-0.5,0.4-0.9,0.7-1.2l4.5,0.6c-0.2,1.3-0.3,2.6-0.5,3.9C122.6,108.8,121.9,109,121.2,109L121.2,109 M42.9,116l2.1-12.5
					l11.2,0.6c0.1,0.3,0.1,0.7,0.2,1l-7.3,11.8L42.9,116z M112.7,103l2.2,0.3l-2.4,1.2L112.7,103z M30.8,114.5l1.5-11.7l9.2,0.5
					l-2,12.3L30.8,114.5z M104.9,107.4c-1.3-0.5-2-1.8-1.7-3.2c0.2-1,0.8-1.8,1.6-2.4l4.6,0.7l-0.5,3.9h-0.1c-1,0.6-2.1,1-3.2,1.1
					C105.4,107.4,105.1,107.4,104.9,107.4 M127.5,101c0.1-0.8,0.2-1.7,0.3-2.5l2.4,0.3c-0.1,0.8-0.2,1.7-0.3,2.5L127.5,101z
					 M77.8,98l13.9,2c-3.5,3.4-9.2,3.3-12.6-0.3c0,0,0,0,0,0C78.6,99.2,78.2,98.6,77.8,98 M113.2,99l0.3-2.5l11,1.6
					c-0.1,0.8-0.2,1.7-0.3,2.5L113.2,99z M61.1,106.2c-1-0.8-1.7-2-1.7-3.3c0-0.2,0-0.3,0-0.5l0.8-6.9l12.8,1.8
					c2.1,6.8,9.3,10.7,16.2,8.6c2.9-0.9,5.4-2.7,7-5.3l5.8,0.8c-0.5,0.7-0.9,1.5-1.1,2.3c-0.5,2.4,0.9,4.8,3.2,5.6
					c1.4,0.3,3,0.2,4.3-0.5c-0.3,1.2-1.2,2.2-2.3,2.7L84.3,121c-1.4,0.6-2.9,0.4-4.1-0.5l-2.5-1.8c1.3-3.5,0.2-7.5-2.8-9.8l-0.8-0.6
					c-3.1-2.5-7.5-2.6-10.7-0.2L61.1,106.2z M98,96.8c0.2-0.8,0.4-1.6,0.4-2.5l11.8,1.7l-0.3,2.5L98,96.8z M45.6,99.5l1-6L57,95
					l-0.6,5.1L45.6,99.5z M32.5,98.8L32,91.4L43.2,93l-1,6.3L32.5,98.8z M76.6,93.8v-0.2c0-0.8,0.1-1.5,0.3-2.3l17.5,2.5
					c0,0.8-0.2,1.7-0.4,2.5L76.6,93.8z M114,92.5l0.4-3.2c1,1.4,2.1,2.6,3.4,3.7L114,92.5z M60.8,91.5l0.3-2.5l11.8,1.7
					c-0.2,0.8-0.3,1.7-0.3,2.5L60.8,91.5z M122.6,93.7l-0.9-0.5c-0.5-0.3-1-0.6-1.5-1c-0.4-0.5-0.6-1.2-0.6-1.9
					c0.2-1.2,1.1-2.3,2.3-2.6c1.7-0.3,3.4,0.8,3.8,2.5c0,0,0,0,0,0l0,0c-0.2,1.2-0.4,2.5-0.6,3.8L122.6,93.7z M134.1,95.4
					c0.5-3.3,1-6.5,1.5-9.5c1,3.9,3,7.6,5.7,10.6L134.1,95.4z M32.1,87.4l0.2-2.5l25.4,3.6L57.5,91L32.1,87.4z M79,87.5
					c3.3-3.6,8.9-3.9,12.6-0.6c0.8,0.7,1.5,1.6,2,2.6L79,87.5z M47.3,83l0.7-4.3l10.7,1.7l-0.5,4.2L47.3,83z M33.8,81l2.5-4.2
					l8.4,1.3L44,82.5L33.8,81z M23.5,79.6l0.6-4.6l8.5,1.3l-2.5,4.2L23.5,79.6z M98,90.2c-0.9-3.3-3-6-5.9-7.8l6.6-9.9l11.1,8.3
					c1.2,0.9,1.8,2.3,1.6,3.8l-0.9,7.4L98,90.2z M61.6,85l0.8-6.2c0.2-1.5,1.1-2.7,2.5-3.3l21.9-9.4c1.4-0.6,2.9-0.4,4.1,0.5
					l5.2,3.9l-7,10.6c-5.6-1.6-11.5,0.8-14.5,5.8L61.6,85z M24.7,71l1.2-8.8l9.9,1.8l-1.6,8.5L24.7,71z M92.9,63.9
					c-0.2-0.2-0.5-0.4-0.8-0.5l5.7-8.6l5.7,4.7l-5.5,8.2L92.9,63.9z M128.4,94.6c3.1-20.6,7.2-37,8.1-40.3c0.9-0.1,1.7-0.3,2.5-0.7
					c-0.2,0.5-0.3,1.1-0.4,1.6c-1.5,6.1-5.1,21.3-7.8,39.7L128.4,94.6z M26.4,58.2l0.4-3c0.7-4.7,3.1-8.9,6.8-11.8l5.4,11
					c-1.1,1.2-1.9,2.7-2.2,4.3L36.6,60L26.4,58.2z M37.6,73l2.6-13.6c0.3-1.8,1.5-3.3,3.2-4L73,42l9.6,22.1l-8.3,3.6l-3.9-8.3
					l-3.1,1.5l3.8,8.1l-7.7,3.3c-1.8,0.8-3.2,2.2-4,4L37.6,73z M135.4,50.7c-0.9-0.4-1.5-1.8-1.5-3.6c0-1.5,0.4-3,1-4.3
					c1.7-3.7,4.7-5.5,6.3-4.8s2.2,4.2,0.5,7.9c-1.4,3.2-3.8,4.9-5.5,4.9C135.9,50.9,135.6,50.8,135.4,50.7 M129.1,38.8l0.8-0.9
					l4,0.2c-0.9,1-1.6,2.2-2.1,3.4c-0.1,0.3-0.2,0.6-0.4,0.9L129.1,38.8z M36.5,41.5l0.4-0.2l7.2-3.6l5,11.3l-7.1,3.2l-0.2,0.1
					L36.5,41.5z M76.1,40.6l8.2-3.6l3.8,9.3l7.1,6.2l-6.6,9.9c-1,0-1.9,0.1-2.9,0.5L76.1,40.6z M124.1,72.2L108,58.8l15.4-23.1
					l3.3,2.8l0,0l4,6.1c-0.8,3.7,0.1,7.1,2.5,8.7c-0.8,2.9-4.1,16.2-7,33.7c-1.3-1.2-3-1.7-4.8-1.4c-2,0.5-3.6,2.1-3.9,4.1
					c-1.1-1.2-2-2.5-2.7-3.9L115,85c0-0.3,0-0.6,0-0.9c0-2.4-1.1-4.6-3-6l-11.3-8.4l5.4-8.1L122,74.8L124.1,72.2z M47,36.2l19.3-9.6
					l5.3,12.3l-19.5,8.8L47,36.2z M48.7,14.8l1.6-0.8l3.6,8l-1.5,0.8L48.7,14.8z M69.4,25.1l25.4-12.6l26,21l-15.5,23l-6.8-5.7
					l-7.6-6.6l-4.8-11.8l-11.3,5.1L69.4,25.1z M122.7,30.7L98.2,10.9L100,10l-1.6-3.1L35.3,38.3c-3.2,1.6-5.9,3.9-8,6.8l-3.6-0.5
					c1.8-3.4,4.6-6.1,8-7.8L94.8,5.5l-1.5-3L57.5,20.2L50.8,5.1h-4.4l2.3,5.1L47,11.1l-2.7-5.9H40l3.5,7.8l-5.2,2.7l-4.5-9.1
					l-0.3,0.1l-0.7,0.4c-0.3,0.4-0.7,0.7-1.1,1l-0.3,0.4c0,0.1-0.1,0.1-0.2,0.2l-0.1,0.2c-0.1,0.2-0.2,0.4-0.3,0.6l3.9,8L24.4,23
					c0.3,1.4,0.4,2.9,0.4,4.3l20.4-10.7l3.6,7.9l-18.5,9.2c-2.1,1-4,2.4-5.6,4.1l-1-2c-0.1,4.2-0.3,8.5-0.6,12.7l2.2,0.3
					c-0.8,1.9-1.4,3.8-1.7,5.8L23.3,56c0.3,5.4-0.2,11-0.2,16.4c0,3.7,0,7.4-0.1,11.2l5.9,0.9l-0.2,2.5l-5.7-0.8v4.1l5.6,0.8
					l0.4,7.6l-5.9-0.3c0,1.3,0.1,2.7,0.2,4l5.6,0.3L27.5,114l-3.5-0.4c0.1,1.2,0.2,2.3,0.2,3.5l4.9,0.6v5l4.4,3.5l-7.9,11.4
					l-1.1-0.8c-0.2,1.2-0.5,2.4-1,3.5l8.1,6l2-2.7l-5.4-4l7.9-11.3l5.8,4.6l-0.4,0.5l19.5,14.6c3.4,2.5,5.4,6.5,5.4,10.7h3.4
					c0-0.8-0.1-1.6-0.2-2.3c1.2-0.1,2.2-0.6,3-1.5c0.5-0.7,0.7-1.4,0.7-2.3c0-0.5-0.1-1.1-0.2-1.6c0.7-0.3,1.4-0.7,2-1.1l-2-2.8
					c-4.2,3-8.7-0.6-8.8-0.8l0,0c-0.4-0.4-0.8-0.7-1.3-1.1l-8-6l6.6-9.4l17,12.9c5.7,4.3,6.8,12.4,2.4,18.1c0,0,0,0,0,0
					c-0.1,0.2-0.3,0.4-0.4,0.5l-0.6,0.7c-4.3,5.1-11.9,6.1-17.3,2.2L51,155.8l-2,2.8l11.9,8.5c2.8,2,6.1,3,9.5,3v9.4l-7.3,0.3
					l-9.5,14.2c-0.5-0.3-1.1-0.5-1.8-0.7l-1.3-0.3c-3.9-0.9-7.5-2.7-10.6-5.2l-7-5.9l-1.5,0.6c-1,0.4-2.2-0.1-2.6-1.1
					c-0.3-0.6-0.3-1.3,0.1-1.9l1.1-2l3.1-5.2l1.8,1.3l1.2-1.8l-3.7-2.7l-3.7,6.3l-0.4-0.3c-0.1,2.9-0.2,5.8-0.2,8.7
					c1.2,0.9,2.7,1.2,4.1,0.7l0.3-0.1l6,5.1c3.3,2.8,7.3,4.8,11.5,5.7l1.3,0.3c2.2,0.5,3.6,2.6,3.1,4.8c0,0.2-0.1,0.3-0.1,0.5
					l-1.2,3.4c-0.7,2-1,4-1,6.1v7.1c0,1.9-1.3,3.7-3.1,4.2l-4.7,1.5c-0.6,0.2-1.2,0.4-1.9,0.5c-0.7-4-2.8-7.5-6.1-9.9l-8.4-6.3v4.2
					l6.5,4.8c2.5,1.8,4.1,4.5,4.7,7.5c-3.8,0-7.5-1.3-10.5-3.6l-1-0.8l-0.2,2.6c4.5,3.5,10.3,4.8,15.8,3.6c0.4,4.2-0.8,8.4-3.5,11.8
					l-4.9,5.9c1.3,0.1,2.5,0.4,3.8,0.8l3.7-4.6c2.8-3.5,4.3-7.8,4.3-12.2c0-0.9-0.1-1.7-0.2-2.6l3.2-1c0.7-0.2,1.4-0.6,1.9-1
					c2.8,2.3,13.5,10.7,19,12.9c2.7,1.1,3.6,4,3.4,6.4c-0.2,1.7-0.9,3.1-1.9,3.3l0.7,3.3c2.5-0.5,4.3-3,4.6-6.3v-1
					c0.1-3.8-2-7.3-5.5-8.9c-0.8-0.4-1.6-0.8-2.4-1.2l1.2-2.2c1.4-2.7,4.2-4.3,7.2-4.3h8.1l1.3-6.4l5.4-9.8l4,3.5l4.8,7.3l-3,4.9
					c-1.3,2.2-0.8,5,1.2,6.6l8.5,6.8v4.6h3.4v-6.2l-9.8-7.8c-0.7-0.5-0.8-1.5-0.4-2.2l3.2-5.3l9.7-4.4l0,0l0.6,0.3
					c4.9,2.8,9.5,5.4,15.4,1.4l-1.9-2.8c-3.4,2.3-5.9,1.7-9.8-0.4l3-3.2c1.3-1.3,2.9-2.3,4.7-2.8l1.9-0.5l-0.8-3.3l-1.9,0.5
					c-2.4,0.6-4.6,1.9-6.3,3.7l-3.5,3.7c-1.9-1.7-2.2-6.5-2.4-10.7c-0.2-3.4-0.4-6.6-1.3-8.9c-0.8-2.1-1.1-4.4-0.6-6.6l17.3,13.1
					c2.2,1.6,4.5,3,7,4.1c-1.2,8.2-4.7,17.4-8.4,25.2l0.6-0.8c1.2-1.4,2.9-2.3,4.7-2.7c2.9-6.6,5-13.5,6.3-20.6
					c0.8,0.2,1.5,0.5,2.3,0.6c-1.4,6.9-3.6,13.5-6.5,19.9c0.8,0.3,1.1,1,0.3,2.4c0.9-0.4,1.8-0.7,2.7-0.8c3-6.7,5.3-13.7,6.8-20.8
					h0.2l5.5,0.8c0-1.3,0-2.6,0.1-3.9c-0.1-3.1-0.1-6.3-0.1-9.4c-0.2,0.1-0.4,0.2-0.6,0.2c-1.1,3.1-1.2,6.4-0.4,9.5l-4-0.6h-0.2
					c0.2-1.6,0.3-3.2,0.3-4.8c0-0.8,0-1.6-0.1-2.4c-0.1-1.2-0.2-2.3-0.4-3.4c0.4-0.1,0.8-0.3,1.1-0.6c-0.2-0.6-0.4-1.2-0.4-1.9
					c-0.2,0.4-0.5,0.8-0.9,1c-0.3-1.3-0.6-2.7-1-4c0.6,0.4,1.3,0.8,2,1.2c0.2-1.5,0.7-3,1.4-4.4c-0.7-2.6-1.7-5-3-7.4
					c-1.5-2.8-4.6-7.5-9-9.3c-2.4-6.9-4.3-16.2-4.1-31.4c0-4.2,0.2-8.5,0.5-12.7h0.2c0-0.1,2-11.2,12.9-15.3l24.4,3.5l0.6-4
					l-35.9-5.1c0.1-0.8,0.2-1.7,0.3-2.5l34.9,5l0.6-4l-23-3.3c-6-5-9.2-12.7-8.5-20.5h-0.2c1.8-9.4,3.6-16.8,4.5-20.5
					c0.4-1.5,0.8-3,1.4-4.4l2.6-6.5c2.2-5.6,4.9-11,8.1-16.2l13.7-22.2L164.6,5L151,27.1c-2.1,3.4-4,7-5.7,10.6
					c-0.3-0.8-0.8-1.4-1.5-2l17.9-29L158.8,5l-18.2,29.5c-1.8,0-3.5,0.6-4.9,1.8l-6.7-0.3l-3.7-3.1l19.4-29L141.9,2L122.7,30.7z"/>
			</defs>
			<clipPath id="SVGID_8_">
				<use xlink:href="#SVGID_7_"  style="overflow:visible;"/>
			</clipPath>
			<g class="st9">
				
					<linearGradient id="SVGID_9_" gradientUnits="userSpaceOnUse" x1="-2021.1603" y1="336.2652" x2="-2020.1603" y2="336.2652" gradientTransform="matrix(1.582183e-14 -258.39 -258.39 -1.582183e-14 86983.5859 -521995)">
					<stop  offset="0" style="stop-color:#6752A9"/>
					<stop  offset="0.12" style="stop-color:#6B56AB"/>
					<stop  offset="0.24" style="stop-color:#7664B2"/>
					<stop  offset="0.27" style="stop-color:#7967B4"/>
					<stop  offset="0.39" style="stop-color:#716AB4"/>
					<stop  offset="0.58" style="stop-color:#5A74B2"/>
					<stop  offset="0.82" style="stop-color:#3582B0"/>
					<stop  offset="1" style="stop-color:#1390AE"/>
				</linearGradient>
				<rect x="23" y="1.9" class="st10" width="146.1" height="246.4"/>
			</g>
		</g>
	</g>
</g>
<path class="st1" d="M125.7,344h3.5c8.9,0,17.7,0.2,26.6,0.2c6,0,12.1-0.5,18.1-0.3l-8.6-53.9c0,0,18.1-33.4,14.5-61.6
	s-7.6-34.2,0.5-104.4c0,0-25.7-8.9-31.6,40.1s-27.3,64.9-36.9,86s0.5,46.6,7.2,67.7C121.4,325.3,123.7,334.9,125.7,344z"/>
<path class="st1" d="M91.5,344.4c4.1-0.1,8.3,0.2,12.4,0.1c8.4-0.2,16.8-0.5,25.3-0.5c6,0,12,0.1,18,0.1l-3.1-14.6l-7.4-36.5
	l-24.9-42.9c0,0-32,31.4-23,79.4C89.8,334.8,90.7,339.8,91.5,344.4z"/>
<path class="st1" d="M20.7,211.5l-5.2-1.6l-7,26.2c1.8,0,3.6-0.2,5.3-0.6C21.3,227.3,20.7,211.6,20.7,211.5"/>
<path class="st11" d="M172.1,123.7l-3.4,30.1c1.9,2.6,5,4.1,8.2,4.1c0.8-9.4,1.9-20.4,3.4-33.9C177.7,123.2,174.8,123.1,172.1,123.7
	"/>
<rect x="25.7" y="4" class="st12" width="130" height="238.3"/>
<path class="st12" d="M135.3,122.6c-0.1-0.2-0.2-0.5-0.1-0.7c0-0.6,0.2-1.2,0.6-1.6c1.1-1.2,2.6-2.1,4.2-2.5c0.1,1,0,2-0.3,3
	c-0.6,1.2-1.7,2.1-3.1,2.4h-0.2C135.9,123.3,135.5,123,135.3,122.6 M146.5,114.3c-1.3,0.1-2.7,0.3-4,0.5L141,115
	c-2.7,0.3-5.2,1.6-7.1,3.5c-1.3,1.3-1.7,3.4-1,5.1c0.7,1.4,2.2,2.3,3.8,2.1c2.3-0.4,4.2-1.8,5.2-3.9c0.4-1.4,0.6-3,0.5-4.5l0.4-0.1
	c1.2-0.2,2.5-0.4,3.7-0.5c1.3,0,2.7,0.1,4,0.3c0.7,0.1,1.4,0.2,2.1,0.3c2.8,0.2,5.5,0.3,8.3,0.3v-2.5c-2.7,0-5.4,0-8.1-0.3
	c-0.7-0.1-1.4-0.2-2-0.3c-1.2-0.2-2.5-0.4-3.7-0.4L146.5,114.3"/>
</svg>
