<svg id="Calque_1" data-name="Calque 1" xmlns="http://www.w3.org/2000/svg" viewBox="0 0 500 500"><defs><style>.cls-1{fill:#c2afef;}.cls-2{fill:#7e61d8;}.cls-3{fill:#6649c1;}.cls-4{fill:#c1dee2;}.cls-5{fill:#b28b67;}.cls-6{fill:#191847;}.cls-7{fill:#75b5bc;}.cls-8{fill:#90d5e0;}.cls-9{fill:#e4e4e4;}.cls-10{fill:#2f3676;}.cls-11{fill:#217987;}.cls-12{fill:#f2f2f2;}.cls-13{fill:#1491af;}</style></defs><title>Plan de travail 1</title><g id="Calque_3" data-name="Calque 3"><path class="cls-1" d="M130.3,131c.9-1.6,3,3.6,3.3,4.3a10.37,10.37,0,0,1-.4-1,43.86,43.86,0,0,1,4.6,9.8c1,3.5,1.9,7.1,2.9,10.6,1.8,6.6,4.2,13,5.9,19.7a64.52,64.52,0,0,1,1.6,19.6,165.08,165.08,0,0,0-.2,21.1c.2,3.3,1.3,6.4,2.1,9.7s1.3,6.5,2.2,9.6c.2-.4.2,1,.2,1.1a5.38,5.38,0,0,1-.4,2.2c-.7,1.9-1.9,3.6-3.7,4.1-3.4,1-6.5-2.1-7.6-5.3a89.38,89.38,0,0,1-3.2-14.7,67.87,67.87,0,0,1-.6-13.5c.4-9,2-17.8,2.5-26.8.5-9.7-1.5-18.9-3.1-28.4a87.86,87.86,0,0,0-3-13.5,27.46,27.46,0,0,0-2.3-4.9C130.6,133.7,129.7,132.1,130.3,131Z"/><path class="cls-1" d="M141.7,69.6c6.7,19.2,18.4,32.6,24.4,52.6a126.23,126.23,0,0,1,4.7,37.7c-.1,7.1-.3,14.2-.5,21.3-.2,6.9-.5,13.8-1.1,20.7s-1.4,13.7-1.8,20.7c-.3,5.4-.5,11.7-2.2,16.6-1.4,3.9-4.7,4.4-5.4-.4a46.06,46.06,0,0,1-.2-8.3c.1-3.5.4-7,.5-10.5.6-14,.5-28.1,1-42.1.5-13.7,2.3-27.4.9-41-1.2-11.3-4.6-21-8.6-30.3-3.8-9-8-17.8-10.5-28a54,54,0,0,1-1.5-9.1C141.5,69.3,141.6,69.4,141.7,69.6Z"/><path class="cls-2" d="M134.15,99.65c1.5,1.2,2.3,3,3.3,4.8,1.2,2.2,2.7,4.2,3.9,6.4,2.6,4.6,4.8,9.4,7.1,14.2a104.63,104.63,0,0,1,9.5,29.1c1.7,10.8,2.2,22,2.9,33,.8,11.7,1.5,23.4,1.6,35.1,0,5.2.3,10.8-.3,16-.3,3.2-1.6,6-4.4,6-6-.1-8.9-7.8-10.1-14.2a139.52,139.52,0,0,1-1.8-28.9c.3-11.5,2.1-22.9,2.8-34.4.8-12.2.3-24.1-3.3-35.6-1.8-5.8-3.9-11.5-5.8-17.2a57.3,57.3,0,0,0-2.6-7.3,76.59,76.59,0,0,1-3.7-7.6A7,7,0,0,1,134.15,99.65Z"/><path class="cls-1" d="M212.3,72.6c.2-.2.4-.3.6-.5-.6,2.6-1.8,4.8-2.6,7.2a51.12,51.12,0,0,0-1.7,7c-1.2,5.5-2.6,11-3.8,16.6-2.3,11.1-1.9,23-.4,35.3,1.4,11.6,3.7,23.2,4.7,34.8a153.37,153.37,0,0,1,.4,28.7c-.6,6.2-2.5,13.7-7.6,13-2.4-.3-3.7-3.2-4.2-6.5-.8-5.3-1-10.8-1.3-16-.7-11.7-.9-23.3-1-34.9-.1-10.9-.5-22.1.2-32.7a98.74,98.74,0,0,1,6.1-28.1c1.7-4.5,3.2-9.1,5.1-13.4.9-2.1,2-3.9,2.9-5.9C210.6,75.4,211.1,73.7,212.3,72.6Z"/><path class="cls-3" d="M162.1,115.8c-.3,11.2-.9,22.3-2.1,33.3-1.3,11.3-2.8,22.5-4,33.8-1.2,11-2.5,22.2-2.3,33.3.1,8.2-1,22.1,6.7,26.1s9.4-13.4,10-19.2c1-11.1.7-22.3.2-33.5-.5-11.4-1.3-22.8-2.3-34.2q-1.65-19.05-2.7-38.1c-.3-6.3-.4-12.6-.3-18.8.1-5.9-.1-11.9-1.9-17.6-.1.1-.2.2-.3.2"/><path class="cls-3" d="M188.4,78c-2.6.1-2.1,13-2.1,14.7,0,6,.3,12,.3,18,.1,13.1.2,26.2-1.3,39.2-.8,7-1.7,13.9-2.8,20.9s-2.5,13.9-3.1,21c-.6,6.8.2,13.6.6,20.4a196.47,196.47,0,0,0,2,20.3c.3,1.7.6,3.3,1,4.9.3,1.4.2,3.1.7,4.4.7,2.1,3.4,2.7,5.2,2.3,4.8-1.1,7.7-7.3,9.2-11.8,1.9-5.8,2.8-12,3.7-18.1a144.14,144.14,0,0,0,1.5-20.7c.1-14.1-1.3-28.2-2.9-42.2-.9-7.8-1.8-15.5-3.1-23.3s-2.9-15.3-4-23.1c-.8-5.6-1.6-11.2-2.2-16.9-.3-1.5-.7-10.1-2.7-10"/><path class="cls-2" d="M186.85,173.05c-.3-13.6-4.8-73.1-5.8-89.5-.3-4.1-2.7-21.2-3-25.8-.9,1.3-.8,21.8-.8,26.5s-.5,9.2-.7,13.8-6,65.7-6.7,70.2c-1.5,9-2.5,18.3-3.2,27.5-.7,9-1.9,18.5-.9,27.5a29,29,0,0,0,1.2,6c.6,2.1,1.1,4,1.6,6.1.8,3.5,2.3,6.5,4.6,8,4.7,2.9,7.2-3.7,8.5-9.5a204.39,204.39,0,0,0,4-28.4c.5-10.7,1.5-21.5,1.2-32.4"/><path class="cls-1" d="M231.6,62.2a59.51,59.51,0,0,1-2,9.7c-3.3,10.9-9.4,36.8-11.1,47.5-1.9,12.2-1.1,7.6-2.8,19.7-2.1,14.7,4.1,17.9,4.4,32.7.3,15.1-.3,30.2.2,45.3.1,3.8.3,7.5.4,11.3a38.88,38.88,0,0,1-.5,9c-1.1,5.1-5.1,4.5-6.6.3-2-5.3-2.1-12.1-2.3-17.9-.3-7.5-1-14.8-1.7-22.3s-.8-14.8-.9-22.3-.2-15.3-.1-22.9c.1-14.1,2-27.8,6.6-40.4,7.8-21.3,7.4-29,16-49.4C231.4,62.2,231.5,62.1,231.6,62.2Z"/><path class="cls-2" d="M250.85,96.85c-1.1,2.8-2.9,5.1-4.3,7.6a46.64,46.64,0,0,0-3,7.3c-2.2,5.8-4.7,11.5-6.8,17.4-4.2,11.6-4.7,23.6-3.8,35.9.9,11.6,2.9,23.1,3.3,34.7.3,9.7-.1,19.7-2.1,29.1-1.4,6.4-4.7,14.2-11.8,14.3-3.3,0-4.8-2.8-5.2-6-.6-5.2-.3-10.9-.3-16.1.1-11.8,1-23.6,1.9-35.4.8-11.1,1.4-22.4,3.4-33.3a92.58,92.58,0,0,1,11.1-29.4c2.7-4.8,5.4-9.7,8.3-14.3,1.4-2.2,3.1-4.2,4.6-6.4,1.2-1.8,2.1-3.6,3.8-4.8Z"/><path class="cls-4" d="M247.6,135.4a37.77,37.77,0,0,0-2.2,5,87.41,87.41,0,0,0-2.8,13.5c-1.5,9.5-3.2,18.7-2.6,28.4.6,8.9,2.3,17.8,2.9,26.7a67.76,67.76,0,0,1-.4,13.5,91,91,0,0,1-2.9,14.7c-1,3.3-4.1,6.4-7.5,5.5a5.87,5.87,0,0,1-3.8-4,5.38,5.38,0,0,1-.4-2.2c0-.1,0-1.5.2-1.1.8-3.2,1.4-6.5,2.1-9.7s1.7-6.3,1.9-9.7a165.2,165.2,0,0,0-.5-21.1,64.4,64.4,0,0,1,1.3-19.6c1.6-6.7,3.8-13.2,5.6-19.8.9-3.5,1.8-7.1,2.7-10.6a42.05,42.05,0,0,1,4.4-9.9,10.37,10.37,0,0,0-.4,1c.3-.7,2.3-5.9,3.2-4.3C249,132.8,248.1,134.5,247.6,135.4Z"/><path class="cls-3" d="M215.4,80.2l-.2-.2c-1.5,5.6-1.7,11.6-1.6,17.6.1,6.3,0,12.6-.3,18.8-.6,12.7-1.3,25.4-2.3,38.1-.9,11.4-1.5,22.8-2,34.2-.4,11.2-.7,22.4.2,33.5.4,5.8,1.8,23.3,8.4,19.2s5.5-17.9,5.6-26.1c.1-11.1-.9-22.3-1.9-33.3-1-11.3-2.3-22.5-3.4-33.8-1.1-11.1-1.5-22.1-1.8-33.3"/><path class="cls-2" d="M197.25,174.05c-.2,10.8.6,21.6,1.1,32.4a237.22,237.22,0,0,0,3.1,28.4c1,5.8,2.9,12.5,6.6,9.5,1.8-1.4,2.9-4.5,3.6-8,.4-2.2.7-4.1,1.2-6.1a39.44,39.44,0,0,0,.9-6c.8-9-.1-18.5-.7-27.5-.6-9.2-1.4-18.5-2.5-27.5-.6-4.5-5-65.5-5.2-70.2s-.6-9.2-.5-13.8.1-25.2-.6-26.5c-.2,4.6-2.1,21.7-2.3,25.8-.9,16.4-4.4,75.9-4.7,89.5"/><path class="cls-1" d="M243.3,97.9c.8-1.4,2.6,3.2,2.9,3.8a3.55,3.55,0,0,0-.4-.9,43.36,43.36,0,0,1,4.1,8.7c.9,3.1,1.7,6.3,2.6,9.4,1.6,5.9,3.7,11.5,5.2,17.4a56.45,56.45,0,0,1,1.4,17.4,144.52,144.52,0,0,0-.2,18.6c.2,3,1.2,5.7,1.8,8.5s1.2,5.7,2,8.5c.2-.4.2.9.2,1a6.93,6.93,0,0,1-.3,2,5.22,5.22,0,0,1-3.3,3.6c-3,.9-5.8-1.9-6.7-4.7a81.28,81.28,0,0,1-2.8-13,69,69,0,0,1-.6-12c.4-7.9,1.8-15.8,2.2-23.7.4-8.6-1.3-16.7-2.7-25.1a68.42,68.42,0,0,0-2.7-11.9,34.89,34.89,0,0,0-2-4.4C243.6,100.3,242.8,98.9,243.3,97.9Z"/><path class="cls-1" d="M253.4,43.5c5.9,17,16.3,28.9,21.6,46.5a114.64,114.64,0,0,1,4.2,33.4c-.1,6.3-.3,12.6-.5,18.9-.1,6.1-.4,12.2-1,18.3s-1.2,12.2-1.6,18.3c-.3,4.8-.5,10.4-2,14.7-1.2,3.5-4.1,3.9-4.8-.3a36.64,36.64,0,0,1-.2-7.4c.1-3.1.3-6.2.5-9.3.6-12.4.4-24.8.9-37.3.5-12.1,2.1-24.2.8-36.3-1.1-10-4.1-18.6-7.6-26.9-3.4-8-7.1-15.7-9.3-24.7a53.37,53.37,0,0,1-1.3-8C253.2,43.3,253.3,43.4,253.4,43.5Z"/><path class="cls-2" d="M246.85,70.35c1.3,1.1,2,2.7,2.9,4.2,1.1,1.9,2.4,3.7,3.5,5.6,2.3,4,4.3,8.3,6.3,12.6a91.9,91.9,0,0,1,8.4,25.8c1.5,9.6,1.9,19.5,2.6,29.2.7,10.3,1.4,20.7,1.5,31.1,0,4.6.3,9.6-.2,14.2-.3,2.9-1.4,5.3-3.9,5.3-5.4,0-7.9-6.9-8.9-12.5a121.57,121.57,0,0,1-1.6-25.6c.3-10.2,1.8-20.3,2.5-30.5.7-10.8.3-21.4-2.9-31.5-1.6-5.1-3.5-10.1-5.2-15.2a44.11,44.11,0,0,0-2.3-6.4,69.48,69.48,0,0,1-3.3-6.7C246.45,70,246.65,70.15,246.85,70.35Z"/><path class="cls-1" d="M315.9,46.3c.2-.1.4-.3.6-.4a58.5,58.5,0,0,1-2.3,6.3,56.21,56.21,0,0,0-1.5,6.2c-1.1,4.9-2.3,9.7-3.4,14.7-2,9.8-1.6,20.3-.3,31.2,1.3,10.3,3.2,20.5,4.2,30.8a144.28,144.28,0,0,1,.4,25.4c-.5,5.5-2.2,12.1-6.7,11.5-2.1-.3-3.3-2.8-3.7-5.7-.7-4.7-.9-9.6-1.2-14.2-.6-10.4-.8-20.7-.9-30.9-.1-9.7-.4-19.5.2-28.9a86.61,86.61,0,0,1,5.4-24.8c1.5-4,2.9-8.1,4.5-11.9.8-1.8,1.8-3.4,2.5-5.2S314.9,47.2,315.9,46.3Z"/><path class="cls-3" d="M271.5,84.4c-.3,9.9-.8,19.7-1.9,29.5-1.1,10-2.4,19.9-3.5,29.9-1.1,9.7-2.2,19.6-2,29.5.1,7.3-.9,19.6,5.9,23.1s8.4-11.9,8.8-17c.9-9.8.6-19.7.2-29.6-.4-10.1-1.2-20.2-2-30.3-1-11.2-1.8-22.5-2.4-33.7-.3-5.6-.4-11.1-.3-16.7.1-5.3-.1-10.6-1.7-15.5-.1.1-.2.1-.2.2"/><path class="cls-3" d="M294.8,51c-2.3.1-1.8,11.5-1.8,13,0,5.3.2,10.6.3,15.9.1,11.6.1,23.2-1.1,34.7-.7,6.2-1.5,12.3-2.5,18.5s-2.3,12.3-2.8,18.6c-.5,6,.2,12,.5,18a156.74,156.74,0,0,0,1.8,18c.3,1.5.5,2.9.8,4.4.3,1.2.2,2.7.6,3.9.6,1.8,3,2.3,4.6,2,4.3-1,6.8-6.5,8.1-10.5a85.57,85.57,0,0,0,3.2-16,141.1,141.1,0,0,0,1.4-18.4c.1-12.5-1.2-24.9-2.5-37.3-.8-6.9-1.6-13.8-2.8-20.6s-2.5-13.6-3.5-20.4c-.7-5-1.4-9.9-2-14.9-.2-1.3-.6-9-2.3-8.9"/><path class="cls-2" d="M293.55,135.35c-.3-12-4.3-64.7-5.2-79.2-.2-3.6-2.4-18.7-2.7-22.9-.8,1.2-.7,19.3-.7,23.4s-.4,8.2-.6,12.3-5.3,58.1-5.9,62.1c-1.3,8-2.2,16.2-2.9,24.3s-1.7,16.4-.8,24.4a29.27,29.27,0,0,0,1,5.3c.6,1.8.9,3.5,1.4,5.4.7,3.1,2,5.8,4.1,7.1,4.1,2.6,6.4-3.3,7.5-8.4a160.94,160.94,0,0,0,3.5-25.2c.7-9.5,1.5-19,1.3-28.6"/><path class="cls-1" d="M333,37a46.81,46.81,0,0,1-1.8,8.6c-2.9,9.7-8.3,32.6-9.8,42-1.7,10.8-1,6.8-2.5,17.5-1.9,13,3.6,15.9,3.9,28.9.3,13.4-.2,26.7.2,40.1.1,3.3.3,6.7.4,10a34.63,34.63,0,0,1-.4,7.9c-.9,4.5-4.5,4-5.9.2-1.8-4.7-1.8-10.7-2.1-15.9-.3-6.6-.9-13.1-1.5-19.7s-.7-13.1-.8-19.7c0-6.8-.1-13.5-.1-20.3.1-12.5,1.8-24.6,5.9-35.8,6.9-18.9,6.5-25.6,14.2-43.8Z"/><path class="cls-2" d="M350.15,67.85a65.16,65.16,0,0,1-3.8,6.8,63.21,63.21,0,0,0-2.7,6.5c-2,5.1-4.2,10.2-6,15.4-3.7,10.2-4.2,20.9-3.4,31.8.8,10.3,2.6,20.4,2.9,30.7a106.17,106.17,0,0,1-1.9,25.8c-1.2,5.7-4.2,12.6-10.4,12.7-2.9,0-4.2-2.4-4.6-5.3-.6-4.6-.3-9.6-.3-14.3.1-10.4.9-20.9,1.7-31.3.7-9.8,1.2-19.8,3-29.5a82.63,82.63,0,0,1,9.8-26c2.4-4.3,4.7-8.6,7.4-12.7,1.3-2,2.8-3.7,4-5.7a14.39,14.39,0,0,1,3.4-4.3C349.65,68.15,350,68.05,350.15,67.85Z"/><path class="cls-1" d="M347.2,101.9a34.34,34.34,0,0,0-1.9,4.4,69.11,69.11,0,0,0-2.5,12c-1.3,8.4-2.9,16.6-2.3,25.2.5,7.9,2.1,15.7,2.6,23.6a60.25,60.25,0,0,1-.4,12,80.87,80.87,0,0,1-2.6,13c-.9,2.9-3.6,5.6-6.6,4.8a5.14,5.14,0,0,1-3.4-3.6,11.8,11.8,0,0,1-.4-2c0-.1,0-1.3.2-1,.7-2.8,1.2-5.7,1.8-8.6s1.5-5.6,1.7-8.6a144,144,0,0,0-.5-18.6,56.59,56.59,0,0,1,1.2-17.4c1.4-5.9,3.4-11.6,4.9-17.5.8-3.1,1.6-6.3,2.4-9.4a40.7,40.7,0,0,1,3.9-8.8l-.3.9c.3-.6,2-5.2,2.9-3.8C348.4,99.6,347.6,101,347.2,101.9Z"/><path class="cls-3" d="M318.6,53l-.2-.2A57.43,57.43,0,0,0,317,68.3c.1,5.6,0,11.1-.3,16.7-.5,11.2-1.2,22.5-2,33.7-.8,10.1-1.4,20.2-1.7,30.3a265.63,265.63,0,0,0,.1,29.6c.4,5.1,1.6,20.6,7.5,17s4.9-15.9,5-23.1a290,290,0,0,0-1.7-29.5c-.9-10-2-19.9-3-29.9-.9-9.8-1.4-19.6-1.6-29.5"/><path class="cls-2" d="M302.75,136.15c-.2,9.6.5,19.2,1,28.7a206.67,206.67,0,0,0,2.7,25.2c.9,5.1,2.6,11,5.8,8.4,1.6-1.3,2.6-4,3.1-7.1a46.92,46.92,0,0,1,1.1-5.4,30.79,30.79,0,0,0,.8-5.3c.7-8-.1-16.4-.6-24.4-.5-8.2-1.2-16.4-2.2-24.3-.5-4-4.4-58-4.6-62.1s-.5-8.1-.5-12.3.1-22.3-.5-23.4c-.2,4.1-1.9,19.2-2.1,22.9-.7,14.4-3.7,67.1-4,79.1"/><path class="cls-1" d="M333.6,147.1c.9-1.4,2.7,3.3,3,3.9a3.55,3.55,0,0,0-.4-.9,41.07,41.07,0,0,1,4.2,9c1,3.2,1.8,6.5,2.7,9.7,1.7,6.1,3.8,11.9,5.4,18a57,57,0,0,1,1.5,18,155.38,155.38,0,0,0-.2,19.3c.2,3.1,1.2,5.9,1.9,8.8s1.2,5.9,2,8.8c.2-.4.2.9.2,1a6.93,6.93,0,0,1-.3,2,5.45,5.45,0,0,1-3.4,3.8c-3.1.9-6-1.9-6.9-4.9a89,89,0,0,1-2.9-13.4,64.06,64.06,0,0,1-.6-12.4c.4-8.2,1.8-16.3,2.3-24.5.4-8.9-1.3-17.3-2.8-26a73.1,73.1,0,0,0-2.8-12.3,36.82,36.82,0,0,0-2.1-4.5C334,149.7,333.1,148.1,333.6,147.1Z"/><path class="cls-1" d="M344,90.9c6.1,17.6,16.9,29.9,22.3,48.1,3.2,10.8,4.4,22.5,4.3,34.5-.1,6.5-.3,13-.5,19.5-.2,6.3-.4,12.6-1,18.9s-1.3,12.6-1.6,18.9c-.3,5-.5,10.7-2.1,15.2-1.3,3.6-4.3,4-5-.3a38.44,38.44,0,0,1-.2-7.6c.1-3.2.4-6.4.5-9.6.6-12.8.4-25.7.9-38.5.5-12.5,2.1-25.1.8-37.6-1.1-10.3-4.2-19.2-7.8-27.8-3.5-8.2-7.3-16.3-9.6-25.6a55.29,55.29,0,0,1-1.4-8.3C343.9,90.7,344,90.8,344,90.9Z"/><path class="cls-2" d="M337.25,118.55a15.55,15.55,0,0,1,3,4.4c1.1,2,2.4,3.8,3.6,5.8,2.3,4.2,4.4,8.6,6.5,13a95.07,95.07,0,0,1,8.7,26.7c1.6,9.9,2,20.1,2.7,30.2.7,10.7,1.4,21.4,1.5,32.1,0,4.8.3,9.9-.2,14.7-.3,3-1.5,5.5-4.1,5.5-5.5-.1-8.1-7.1-9.2-13a129.75,129.75,0,0,1-1.7-26.4c.3-10.6,1.9-21,2.6-31.5.7-11.1.3-22.1-3-32.6-1.7-5.3-3.6-10.5-5.4-15.7a40.16,40.16,0,0,0-2.4-6.6,73.69,73.69,0,0,1-3.4-6.9A.83.83,0,0,1,337.25,118.55Z"/><path class="cls-3" d="M362.8,133.2c-.3,10.2-.8,20.4-2,30.5-1.2,10.3-2.5,20.6-3.6,30.9-1.1,10.1-2.2,20.3-2.1,30.5.1,7.5-.9,20.2,6.1,23.9s8.6-12.3,9.1-17.6c.9-10.2.6-20.4.2-30.6-.4-10.5-1.2-20.9-2.1-31.3-1-11.6-1.8-23.2-2.5-34.9-.3-5.8-.4-11.5-.3-17.2.1-5.4-.1-10.9-1.7-16.1-.1.1-.2.1-.3.2"/><path class="cls-3" d="M386.8,98.6c-2.4.1-1.9,11.9-1.9,13.4,0,5.5.2,11,.3,16.4.1,12,.2,24-1.2,35.9-.7,6.4-1.6,12.8-2.5,19.1s-2.3,12.8-2.9,19.2c-.5,6.2.2,12.4.5,18.6s.8,12.5,1.8,18.6l.9,4.5c.3,1.3.2,2.8.6,4,.6,1.9,3.1,2.4,4.8,2.1,4.4-1,7-6.7,8.4-10.8a102.57,102.57,0,0,0,3.3-16.5,150.41,150.41,0,0,0,1.4-19c.1-12.9-1.2-25.8-2.6-38.6-.8-7.1-1.7-14.2-2.9-21.3s-2.6-14-3.7-21.1c-.8-5.1-1.5-10.3-2.1-15.4,0-1.2-.4-9.1-2.2-9.1"/><path class="cls-2" d="M385.55,185.75c-.3-12.4-4.4-66.9-5.3-81.9-.2-3.8-2.5-19.4-2.8-23.6-.8,1.2-.7,19.9-.7,24.2s-.4,8.4-.6,12.7-5.5,60.1-6.1,64.3c-1.4,8.3-2.3,16.7-3,25.2-.7,8.2-1.7,16.9-.8,25.2a24.38,24.38,0,0,0,1.1,5.5,50.92,50.92,0,0,1,1.4,5.6c.8,3.2,2.1,6,4.2,7.3,4.3,2.7,6.6-3.4,7.8-8.7a159.57,159.57,0,0,0,3.6-26c.5-10,1.4-19.9,1.2-29.8"/><path class="cls-1" d="M426.4,84.2a42.62,42.62,0,0,1-1.9,8.9c-3,10-8.6,33.7-10.1,43.4-1.7,11.2-1,7-2.6,18.1-1.9,13.4,3.7,16.4,4,29.9.3,13.8-.3,27.6.2,41.5.1,3.4.3,6.9.4,10.3a37.3,37.3,0,0,1-.4,8.2c-1,4.7-4.6,4.1-6.1.3-1.8-4.9-1.9-11.1-2.1-16.4-.3-6.9-.9-13.6-1.5-20.4s-.8-13.6-.8-20.4c0-7-.2-14-.1-21,.1-12.9,1.9-25.4,6.1-37,7.1-19.5,6.8-26.5,14.6-45.2C426.1,84.2,426.2,84.1,426.4,84.2Z"/><path class="cls-2" d="M444.05,116.05a59.62,59.62,0,0,1-3.9,7,39.1,39.1,0,0,0-2.7,6.7c-2,5.3-4.3,10.5-6.3,15.9-3.9,10.6-4.3,21.6-3.5,32.9.8,10.6,2.7,21.1,3,31.8a114,114,0,0,1-1.9,26.7c-1.3,5.9-4.3,13-10.8,13.1-3,0-4.4-2.5-4.8-5.5-.6-4.8-.3-9.9-.3-14.8.1-10.8.9-21.6,1.8-32.4.8-10.2,1.3-20.5,3.1-30.5a87.36,87.36,0,0,1,10.1-26.9c2.5-4.4,4.9-8.9,7.6-13.1,1.3-2,2.9-3.9,4.2-5.9,1.1-1.6,1.9-3.3,3.5-4.4A2.36,2.36,0,0,1,444.05,116.05Z"/><path class="cls-1" d="M441,151.2a31.91,31.91,0,0,0-2,4.6,85.28,85.28,0,0,0-2.6,12.4c-1.3,8.7-3,17.1-2.4,26,.5,8.2,2.1,16.3,2.6,24.4a57,57,0,0,1-.4,12.4,76.86,76.86,0,0,1-2.7,13.5c-.9,3-3.8,5.8-6.9,5a5.42,5.42,0,0,1-3.5-3.7,7.11,7.11,0,0,1-.4-2c0-.1,0-1.4.2-1,.8-2.9,1.2-5.9,1.9-8.9s1.6-5.8,1.7-8.9a155.51,155.51,0,0,0-.5-19.3,57.38,57.38,0,0,1,1.2-18c1.4-6.1,3.5-12,5.1-18.1.8-3.2,1.6-6.5,2.5-9.7a39.11,39.11,0,0,1,4.1-9.1,3.55,3.55,0,0,1-.4.9c.3-.6,2.1-5.4,3-3.9C442.3,148.8,441.5,150.4,441,151.2Z"/><path class="cls-3" d="M411.5,100.7l-.2-.2c-1.4,5.2-1.5,10.6-1.5,16.1.1,5.8,0,11.5-.3,17.2-.5,11.6-1.2,23.3-2.1,34.9-.8,10.4-1.4,20.9-1.8,31.3a283.87,283.87,0,0,0,.1,30.6c.4,5.3,1.7,21.3,7.7,17.6s5.1-16.4,5.2-23.9a282.06,282.06,0,0,0-1.8-30.5c-1-10.3-2.1-20.6-3.1-30.9-1-10.1-1.4-20.3-1.7-30.5"/><path class="cls-2" d="M395.05,186.65c-.2,9.9.5,19.8,1,29.7a220,220,0,0,0,2.8,26c.9,5.3,2.7,11.4,6,8.7,1.6-1.3,2.7-4.1,3.3-7.3.4-2,.7-3.7,1.1-5.6a31.66,31.66,0,0,0,.8-5.5c.7-8.3-.1-17-.6-25.2-.5-8.4-1.2-16.9-2.3-25.2-.5-4.2-4.6-59.9-4.8-64.3-.2-4.2-.5-8.4-.5-12.7s.1-23-.6-24.2c-.2,4.3-2,19.9-2.1,23.6-.7,15.1-3.9,69.6-4.1,82"/><path class="cls-1" d="M50.4,200.5c.9-1.6,3,3.6,3.3,4.3a10.37,10.37,0,0,1-.4-1,43.86,43.86,0,0,1,4.6,9.8c1,3.5,1.9,7.1,2.9,10.6,1.8,6.6,4.2,13,5.9,19.7a64.52,64.52,0,0,1,1.6,19.6,165.08,165.08,0,0,0-.2,21.1c.2,3.3,1.3,6.4,2.1,9.7s1.3,6.5,2.2,9.6c.2-.4.2,1,.2,1.1a5.38,5.38,0,0,1-.4,2.2c-.7,1.9-1.9,3.6-3.7,4.1-3.4,1-6.5-2.1-7.6-5.3a89.38,89.38,0,0,1-3.2-14.7,67.87,67.87,0,0,1-.6-13.5c.4-9,2-17.8,2.5-26.8.5-9.7-1.5-18.9-3.1-28.4a87.86,87.86,0,0,0-3-13.5,27.46,27.46,0,0,0-2.3-4.9C50.8,203.3,49.8,201.6,50.4,200.5Z"/><path class="cls-1" d="M61.8,139.1c6.7,19.2,18.4,32.6,24.4,52.6a126.23,126.23,0,0,1,4.7,37.7c-.1,7.1-.3,14.2-.5,21.3-.2,6.9-.5,13.8-1.1,20.7s-1.4,13.7-1.8,20.7c-.3,5.4-.5,11.7-2.2,16.6-1.4,3.9-4.7,4.4-5.4-.4a46.06,46.06,0,0,1-.2-8.3c.1-3.5.4-7,.5-10.5.6-14,.5-28.1,1-42.1.5-13.7,2.3-27.4.9-41-1.2-11.3-4.6-21-8.6-30.3-3.8-9-8-17.8-10.5-28a54,54,0,0,1-1.5-9.1C61.6,138.9,61.7,138.9,61.8,139.1Z"/><path class="cls-2" d="M54.25,169.15c1.5,1.2,2.3,3,3.3,4.8,1.2,2.2,2.7,4.2,3.9,6.4,2.6,4.6,4.8,9.4,7.1,14.2a104.63,104.63,0,0,1,9.5,29.1c1.7,10.8,2.2,22,2.9,33,.8,11.7,1.5,23.4,1.6,35.1,0,5.2.3,10.8-.3,16-.3,3.2-1.6,6-4.4,6-6-.1-8.9-7.8-10.1-14.2a139.52,139.52,0,0,1-1.8-28.9c.3-11.5,2.1-22.9,2.8-34.4.8-12.2.3-24.1-3.3-35.6-1.8-5.8-3.9-11.5-5.8-17.2a57.3,57.3,0,0,0-2.6-7.3,76.59,76.59,0,0,1-3.7-7.6A7,7,0,0,1,54.25,169.15Z"/><path class="cls-1" d="M132.4,142.2c.2-.2.4-.3.6-.5-.6,2.6-1.8,4.8-2.6,7.2a51.12,51.12,0,0,0-1.7,7c-1.2,5.5-2.6,11-3.8,16.6-2.3,11.1-1.9,23-.4,35.3,1.4,11.6,3.7,23.2,4.7,34.8a153.37,153.37,0,0,1,.4,28.7c-.6,6.2-2.5,13.7-7.6,13-2.4-.3-3.7-3.2-4.2-6.5-.8-5.3-1-10.8-1.3-16-.7-11.7-.9-23.3-1-34.9-.1-10.9-.5-22.1.2-32.7a98.74,98.74,0,0,1,6.1-28.1c1.7-4.5,3.2-9.1,5.1-13.4.9-2.1,2-3.9,2.9-5.9S131.3,143.2,132.4,142.2Z"/><path class="cls-3" d="M82.3,185.3c-.3,11.2-.9,22.3-2.1,33.3-1.3,11.3-2.8,22.5-4,33.8-1.2,11-2.5,22.2-2.3,33.3.1,8.2-1,22.1,6.7,26.1s9.4-13.4,10-19.2c1-11.1.7-22.3.2-33.5-.5-11.4-1.3-22.8-2.3-34.2q-1.65-19.05-2.7-38.1c-.3-6.3-.4-12.6-.3-18.8.1-5.9-.1-11.9-1.9-17.6-.1.1-.2.2-.3.2"/><path class="cls-3" d="M108.5,147.5c-2.6.1-2.1,13-2.1,14.7,0,6,.3,12,.3,18,.1,13.1.2,26.2-1.3,39.2-.8,7-1.7,13.9-2.8,20.9s-2.5,13.9-3.1,21c-.6,6.8.2,13.6.6,20.4a196.47,196.47,0,0,0,2,20.3c.3,1.7.6,3.3,1,4.9.3,1.4.2,3.1.7,4.4.7,2.1,3.4,2.7,5.2,2.3,4.8-1.1,7.7-7.3,9.2-11.8,1.9-5.8,2.8-12,3.7-18.1a144.14,144.14,0,0,0,1.5-20.7c.1-14.1-1.3-28.2-2.9-42.2-.9-7.8-1.8-15.5-3.1-23.3s-2.9-15.3-4-23.1c-.8-5.6-1.6-11.2-2.2-16.9-.3-1.4-.7-10-2.7-10"/><path class="cls-2" d="M107,242.65c-.3-13.6-4.8-73.1-5.8-89.5-.3-4.1-2.7-21.2-3-25.8-.9,1.3-.8,21.8-.8,26.5s-.5,9.2-.7,13.8-6,65.7-6.7,70.2c-1.5,9-2.5,18.3-3.2,27.5-.7,9-1.9,18.5-.9,27.5a29,29,0,0,0,1.2,6c.6,2.1,1.1,4,1.6,6.1.8,3.5,2.3,6.5,4.6,8,4.7,2.9,7.2-3.7,8.5-9.5a204.39,204.39,0,0,0,4-28.4c.5-10.8,1.5-21.6,1.2-32.4"/><path class="cls-1" d="M151.7,131.7a59.51,59.51,0,0,1-2,9.7c-3.3,10.9-9.4,36.8-11.1,47.5-1.9,12.2-1.1,7.6-2.8,19.7-2.1,14.7,4.1,17.9,4.4,32.7.3,15.1-.3,30.2.2,45.3.1,3.8.3,7.5.4,11.3a38.88,38.88,0,0,1-.5,9c-1.1,5.1-5.1,4.5-6.6.3-2-5.3-2.1-12.1-2.3-17.9-.3-7.5-1-14.8-1.7-22.3s-.8-14.8-.9-22.3-.2-15.3-.1-22.9c.1-14.1,2-27.8,6.6-40.4,7.8-21.3,7.4-29,16-49.4C151.5,131.7,151.6,131.7,151.7,131.7Z"/><path class="cls-2" d="M171,166.35c-1.1,2.8-2.9,5.1-4.3,7.6a46.64,46.64,0,0,0-3,7.3c-2.2,5.8-4.7,11.5-6.8,17.4-4.2,11.6-4.7,23.6-3.8,35.9.9,11.6,2.9,23.1,3.3,34.7.3,9.7-.1,19.7-2.1,29.1-1.4,6.4-4.7,14.2-11.8,14.3-3.3,0-4.8-2.8-5.2-6-.6-5.2-.3-10.9-.3-16.1.1-11.8,1-23.6,1.9-35.4.8-11.1,1.4-22.4,3.4-33.3a92.58,92.58,0,0,1,11.1-29.4c2.7-4.8,5.4-9.7,8.3-14.3,1.4-2.2,3.1-4.2,4.6-6.4,1.2-1.8,2.1-3.6,3.8-4.8Z"/><path class="cls-1" d="M167.7,205a37.77,37.77,0,0,0-2.2,5,87.41,87.41,0,0,0-2.8,13.5c-1.5,9.5-3.2,18.7-2.6,28.4.6,8.9,2.3,17.8,2.9,26.7a67.76,67.76,0,0,1-.4,13.5,91,91,0,0,1-2.9,14.7c-1,3.3-4.1,6.4-7.5,5.5a5.87,5.87,0,0,1-3.8-4,5.38,5.38,0,0,1-.4-2.2c0-.1,0-1.5.2-1.1.8-3.2,1.4-6.5,2.1-9.7s1.7-6.3,1.9-9.7a165.2,165.2,0,0,0-.5-21.1,64.4,64.4,0,0,1,1.3-19.6c1.6-6.7,3.8-13.2,5.6-19.8.9-3.5,1.8-7.1,2.7-10.6a42.05,42.05,0,0,1,4.4-9.9,10.37,10.37,0,0,0-.4,1c.3-.7,2.3-5.9,3.2-4.3C169.2,202.4,168.2,204,167.7,205Z"/><path class="cls-3" d="M135.5,149.8l-.2-.2c-1.5,5.6-1.7,11.6-1.6,17.6.1,6.3,0,12.6-.3,18.8-.6,12.7-1.3,25.4-2.3,38.1-.9,11.4-1.5,22.8-2,34.2-.4,11.2-.7,22.4.2,33.5.4,5.8,1.8,23.3,8.4,19.2s5.5-17.9,5.6-26.1c.1-11.1-.9-22.3-1.9-33.3-1-11.3-2.3-22.5-3.4-33.8-1.1-11.1-1.5-22.1-1.8-33.3"/><path class="cls-2" d="M117.35,243.55c-.2,10.8.6,21.6,1.1,32.4a237.22,237.22,0,0,0,3.1,28.4c1,5.8,2.9,12.5,6.6,9.5,1.8-1.4,2.9-4.5,3.6-8,.4-2.2.7-4.1,1.2-6.1a39.44,39.44,0,0,0,.9-6c.8-9-.1-18.5-.7-27.5-.6-9.2-1.4-18.5-2.5-27.5-.6-4.5-5-65.5-5.2-70.2s-.6-9.2-.5-13.8.1-25.2-.6-26.5c-.2,4.6-2.1,21.7-2.3,25.8-.9,16.4-4.4,75.9-4.7,89.5"/></g><g id="Calque_2" data-name="Calque 2"><g id="Head"><path class="cls-5" d="M232.7,192.2h20.4l-3.5-24.5c5.5,3.3,10.9,4.9,13.5,4.3,6.4-1.6,7-25,2-34.2s-30.3-13.2-31.6,5c-.4,6.3,2.2,12,6.1,16.6Z"/></g><path id="hair" class="cls-6" d="M266.6,135.3a1.87,1.87,0,0,1,.5,1.4,2.59,2.59,0,0,1-.7,1.1,6.53,6.53,0,0,1-2.4,1.5c-3.3,1.4-7,1.6-10.2,3.2a11.78,11.78,0,0,0-5.7,7.5c-2.1-1.1-4.8-2.4-7.2-1.3-1.9.9-2.5,3.4-2.2,5.4a7.22,7.22,0,0,0,2.6,4.9,2.7,2.7,0,0,1,.8.7c.2.2.1.4-.1.6a13.93,13.93,0,0,1-1.5,1.9c-1.4,1.5-3.6,1.6-5.5,1.2-1-.2-1.9-.6-2.9-.9a23.94,23.94,0,0,1-2.8-1.3,8.53,8.53,0,0,1-3.7-5.3,23.69,23.69,0,0,1-.4-7.5,32,32,0,0,1,1.5-7.6,18.32,18.32,0,0,1,3.4-6.3,12.74,12.74,0,0,1-6.5-3.6c-1.9-2.1-3.8-7.8-3.9-10a12.78,12.78,0,0,1,.7-5.3,7.89,7.89,0,0,1,4.5-4.1,1.27,1.27,0,0,1,.6-.1c.2-.1.2-.2.3-.4a4.19,4.19,0,0,1,.9-1.4,8,8,0,0,1,6.6-2.3,6.28,6.28,0,0,1,3.2,1.2c.4.3.6.6,1.1.5s.9-.3,1.4-.4a7.35,7.35,0,0,1,3.3,0,6.21,6.21,0,0,1,2.9,1.5,10.31,10.31,0,0,1,1.8,2.8,23.38,23.38,0,0,1,2.4,6.7,15.51,15.51,0,0,1-1,7.4,27.3,27.3,0,0,1,8.5.9C259.9,128.6,265.2,133.1,266.6,135.3Z"/><path id="Skin" class="cls-5" d="M317.3,280.9c-3.3,5.4-11.2,20.7-19.7,38.6-4.9,10.4-11.2,28.4-18.9,53.7l9.8,4.5c17.6-28.4,30.8-50.3,39.4-65.8-.5,4.6-1,9.5-1.4,14.5-1.6,17.3,0,54.5.9,65.3.5,6.7,9.7,5,10.6-.4s17.3-90.9,17.3-108.9c0-6.9-15.3-12.3-21.4-4.1C328.8,274.7,321.7,273.7,317.3,280.9Z"/><path id="Leg-Back" class="cls-7" d="M301.1,367c1.9-5.1,33.6-60.4,39.8-77.4,2.7-7.5-19.8-23.1-27.9-10.2l-33.6,79.7Z"/><path id="Leg-Front" class="cls-8" d="M345.2,273.6q-19.95-3-83.4-10.5H212.3c.9,29.7,11.4,45.4,37,44.5,17.7-.7,76.8-9.6,78.3-8.8.7.3-1.1,23.6-5.3,69.7l24,.8c0-5,9.9-58.1,9.9-80.7C356.1,282.3,353.7,274.8,345.2,273.6Z"/><path id="shoe" class="cls-9" d="M277.39,370.58a1.67,1.67,0,0,1,2.42-.22h0a14,14,0,0,0,4.69,2.71,16.17,16.17,0,0,0,6.33-.17l2.2-3.06h0a.85.85,0,0,1,1.17-.12l19.24,15c1.67.73,3.73,1.55,6.28,2.49s2.67,3.35.52,7l-46.58-11.62a44.1,44.1,0,0,1,.85-6.69,19.12,19.12,0,0,1,2.73-5.19A.37.37,0,0,0,277.39,370.58Z"/><path class="cls-9" d="M326.1,378.8a1.68,1.68,0,0,1,2.3-.8h0a14,14,0,0,0,5.2,1.5,16.19,16.19,0,0,0,6.1-1.7l1.4-3.5h0a.84.84,0,0,1,1.1-.4l22.3,9.9c1.8.3,4,.6,6.7.9s3.4,2.6,2.2,6.7h-48a44.8,44.8,0,0,1-.8-6.7A19,19,0,0,1,326,379C326,378.9,326,378.8,326.1,378.8Z"/><path id="Base" class="cls-10" d="M325.4,394.3h0a3,3,0,0,0,3,3h39.2a3,3,0,0,0,3-3h0a3,3,0,0,0-3-3H328.4A3.08,3.08,0,0,0,325.4,394.3Z"/><path id="Seat" class="cls-10" d="M201.2,276.4v38.3a3.37,3.37,0,0,0,3.4,3.4H309.3V276.4a8.49,8.49,0,0,0-8.5-8.5H209.7A8.49,8.49,0,0,0,201.2,276.4Z"/><path id="Wheel-Stuff" class="cls-10" d="M320.6,388.8h9.1L311,275a8.49,8.49,0,0,0-8.4-7.1h-1.9"/><circle id="Front-Wheel" class="cls-6" cx="325.4" cy="390.5" r="15.3"/><g id="Wheel"><path class="cls-6" d="M276.9,339.4a64.7,64.7,0,1,0-64.7,64.7A64.74,64.74,0,0,0,276.9,339.4Zm-117.4,0a52.8,52.8,0,1,1,52.8,52.8A52.81,52.81,0,0,1,159.5,339.4Z"/><rect class="cls-6" x="208.8" y="283.2" width="6.8" height="112.3"/><path class="cls-6" d="M248.3,298.5l-77,77a1.63,1.63,0,0,0,0,2.4l2.4,2.4a1.63,1.63,0,0,0,2.4,0l77-77a1.63,1.63,0,0,0,0-2.4l-2.4-2.4A1.63,1.63,0,0,0,248.3,298.5Z"/><path class="cls-6" d="M266.7,336H157.8a1.75,1.75,0,0,0-1.7,1.7v3.4a1.75,1.75,0,0,0,1.7,1.7H266.7a1.75,1.75,0,0,0,1.7-1.7v-3.4A1.75,1.75,0,0,0,266.7,336Z"/><path class="cls-6" d="M253.2,375.5l-77-77a1.63,1.63,0,0,0-2.4,0l-2.4,2.4a1.63,1.63,0,0,0,0,2.4l77,77a1.63,1.63,0,0,0,2.4,0l2.4-2.4A1.82,1.82,0,0,0,253.2,375.5Z"/></g><path class="cls-5" d="M306.8,189.2l25.1-14.8c11.7-.7,17.2-1.9,16.6-3.5-1-2.4-4.3-1.3-5.2-2.8s2.3-5.5,5.5-9.1.6-3.8-.9-3.5a74.13,74.13,0,0,0-17,10.3l-32.3,9.7Zm-17.1,57.9,26.9,11.1c7.6,8.9,11.9,12.7,12.8,11.2,1.3-2.2-1.6-4.2-.9-5.9s5.8-1.5,10.6-1.1,3.4-1.8,2.3-2.8c-4.9-3-11.1-5.4-18.5-7.4l-27.1-19.9Z"/><path id="Coat-Back" class="cls-11" d="M242,177.5c1.3,11,2.9,31.8,5.2,38.3,9,26,27.2,33.8,61.8,46.7l11.7-13.2c-31-22-52.4-43.1-67.2-70.7Z"/><path id="Shirt" class="cls-12" d="M236.2,173.4c5.9,2.5,11.4,3.1,16.5,1.6.7-.2,2.3,1.3,2.3,2.2.3,16.9,7.9,47.9,22.8,93.2H212.3C215.3,229.2,220.7,198.4,236.2,173.4Z"/><path id="Coat-Front" class="cls-13" d="M241.8,173.4H231.6a4.58,4.58,0,0,0-4.2,2.9c-13.5,26.1-28.1,77.8-22.6,115.1h34.9c22.6,0,23.1-35.9,12.8-79.8,23.6,1.9,50.5-11.4,77-28.4L326,165.9c-34.9,11.2-65.4,7.7-84.2,7.5Z"/></g><g id="Herbe"><g id="Succulents"><path class="cls-1" d="M244,342.4c6.7,13.7,18.1,23.2,24.2,37.4a70.18,70.18,0,0,1,5.2,27c0,5.1-.1,10.2-.1,15.3a145.24,145.24,0,0,1-.7,14.8c-.5,5-1,9.9-1.3,14.9-.2,3.9-.3,8.4-1.8,12-1.2,2.8-4.3,3.2-5.2-.2a23.94,23.94,0,0,1-.4-6l.3-7.5c.3-10.1-.1-20.1.1-30.2.2-9.8,1.7-19.7.1-29.5-1.3-8.1-4.8-15-8.7-21.7-3.8-6.4-7.9-12.6-10.5-19.9a36.3,36.3,0,0,1-1.6-6.5C243.8,342.3,243.9,342.3,244,342.4Z"/><path class="cls-2" d="M242.1,369.4a11.45,11.45,0,0,1,3,3.2c1.1,1.5,2.4,2.8,3.5,4.3,2.3,3.1,4.4,6.3,6.5,9.5a58.1,58.1,0,0,1,8.6,19.6c1.6,7.3,2,14.8,2.7,22.2.7,7.8,1.4,15.7,1.5,23.6,0,3.5.3,7.3-.2,10.8-.3,2.2-1.5,4-4,4-5.5,0-8.1-5.3-9.2-9.5a70.5,70.5,0,0,1-1.7-19.4c.3-7.8,1.9-15.4,2.6-23.2.7-8.2.3-16.2-3-24-1.7-3.9-3.6-7.7-5.3-11.6a36,36,0,0,0-2.3-4.9,56.48,56.48,0,0,1-3.4-5.1A4.23,4.23,0,0,1,242.1,369.4Z"/><path class="cls-1" d="M243.8,392c.7-1,2.3,2.4,2.6,2.8l-.3-.6a28.23,28.23,0,0,1,3.6,6.6c.8,2.3,1.5,4.7,2.3,7.1,1.4,4.4,3.3,8.7,4.6,13.1a36.14,36.14,0,0,1,1.3,13.1,94.81,94.81,0,0,0-.1,14.1,35.26,35.26,0,0,0,1.6,6.4c.6,2.1,1,4.3,1.7,6.4.2-.3.2.6.2.7a4,4,0,0,1-.3,1.5,4.14,4.14,0,0,1-2.9,2.7c-2.6.6-5.1-1.4-5.9-3.6a54.17,54.17,0,0,1-2.5-9.8,38.88,38.88,0,0,1-.5-9c.3-6,1.6-11.9,1.9-17.8.4-6.5-1.1-12.6-2.4-18.9a45.93,45.93,0,0,0-2.4-9,21.12,21.12,0,0,0-1.8-3.3C244.1,393.8,243.4,392.7,243.8,392Z"/><path class="cls-3" d="M265.2,381.8a183.1,183.1,0,0,1-2,22.2c-1.2,7.5-2.5,15-3.7,22.6-1.1,7.3-2.3,14.8-2.1,22.2.1,5.5-.9,14.7,6.2,17.4s8.7-8.9,9.2-12.8c.9-7.4.6-14.9.2-22.3q-.75-11.4-2.1-22.8c-1-8.5-1.8-16.9-2.5-25.4q-.45-6.3-.3-12.6c.1-4-.1-8-1.7-11.7-.1.1-.2.1-.3.2"/><path class="cls-2" d="M303.9,413.9c-1.4,1.6-2.8,3.1-4.1,4.8a25,25,0,0,0-5.5,10.6c-1.9,9.1-1.5,19-1.9,28.4-.1,1.9-.5,3.8.3,5.6s2.1,3,3.5,3.1c3.1.1,3-6.3,3.2-9.2.3-5,0-10,.4-14.9a96.07,96.07,0,0,1,2.2-14.4,77.11,77.11,0,0,1,4.6-13.3c.3-.6,2.2-5,.6-4.3"/><path class="cls-3" d="M288.7,356.6c-2,0-2,8.6-2.1,9.7-.2,4-.2,8-.3,12a190.14,190.14,0,0,1-2.2,26.1c-.8,4.6-1.8,9.3-2.8,13.9s-2.4,9.2-3.1,13.9c-.6,4.5-.3,9.1-.2,13.6a103.54,103.54,0,0,0,.9,13.6l.6,3.3a25.35,25.35,0,0,0,.4,2.9c.5,1.4,2.6,1.9,4,1.6,3.8-.6,6.2-4.7,7.5-7.7,1.7-3.8,2.5-7.9,3.4-11.9a80.23,80.23,0,0,0,1.8-13.8c.5-9.4-.2-18.8-.9-28.2-.4-5.2-.9-10.4-1.7-15.6s-1.8-10.3-2.4-15.5c-.5-3.8-.9-7.5-1.2-11.3-.1-.8-.1-6.6-1.7-6.6"/><path class="cls-2" d="M284.2,419.2c-.3-9-3.7-48.7-4.4-59.7-.2-2.7-2.1-14.1-2.3-17.2-.7.9-.6,14.5-.6,17.7s-.4,6.2-.5,9.2-4.6,43.8-5.1,46.8c-1.1,6-1.9,12.2-2.5,18.3s-1.4,12.3-.7,18.4a16.7,16.7,0,0,0,.9,4c.5,1.4.8,2.7,1.2,4.1.6,2.3,1.8,4.4,3.5,5.3,3.6,2,5.5-2.5,6.5-6.4a109,109,0,0,0,3-19c.5-7.1,1.2-14.3,1-21.5"/></g><path class="cls-1" d="M447.5,292.3a48.62,48.62,0,0,1-1.8,8.6c-2.9,9.6-7.6,17.8-11.8,26.2-4.4,8.8-8.3,17.9-9.8,28.5-1.8,12.9-.2,25.9.1,38.8.3,13.3-.2,26.6.2,39.8.1,3.3.3,6.6.4,9.9a34.63,34.63,0,0,1-.4,7.9c-.9,4.5-4.4,4-5.8.2-1.7-4.7-1.8-10.6-2.1-15.8-.3-6.6-.9-13.1-1.5-19.6s-.7-13-.8-19.6-.1-13.4-.1-20.2c.1-12.4,1.8-24.4,5.8-35.6,6.8-18.7,19.7-31.2,27.3-49.3C447.3,292.3,447.4,292.3,447.5,292.3Z"/><path class="cls-2" d="M450.1,327.5a55.06,55.06,0,0,1-3.8,6.7,50.46,50.46,0,0,0-2.6,6.4c-2,5.1-4.1,10.1-6,15.3-3.7,10.2-4.2,20.8-3.4,31.6.8,10.2,2.5,20.3,2.9,30.5a104.55,104.55,0,0,1-1.9,25.6c-1.2,5.6-4.1,12.5-10.3,12.6-2.9,0-4.2-2.4-4.6-5.3-.6-4.6-.3-9.6-.3-14.2.1-10.4.9-20.8,1.7-31.1.7-9.8,1.2-19.7,3-29.3a82.84,82.84,0,0,1,9.7-25.8c2.4-4.2,4.7-8.5,7.3-12.6,1.3-1.9,2.7-3.7,4-5.6a12.84,12.84,0,0,1,3.4-4.2Z"/><path class="cls-1" d="M378.2,336.3c.9,1.8,1.9,3.3,2.7,5.1,1.8,3.7,3.4,7.7,5,11.6a87.41,87.41,0,0,1,6.4,24.4c1,9.3,1.1,19.1,1.4,28.7.3,10.2.6,20.4.4,30.7-.1,4.6,0,9.5-.5,14.1-.3,2.9-1.3,5.5-3.4,5.9-4.5.7-6.4-5.7-7.1-11.2a140.51,140.51,0,0,1-.7-25.2c.5-10.2,2-20.5,2.9-30.7.9-10.8.8-21.3-1.6-31-1.2-4.9-2.7-9.6-3.9-14.4a54.29,54.29,0,0,0-1.7-6.1c-.8-2.1-1.9-3.9-2.6-6.2.2.1.4.3.6.4A13.11,13.11,0,0,1,378.2,336.3Z"/><path class="cls-1" d="M446.6,361a44.81,44.81,0,0,0-2,4.4,77.71,77.71,0,0,0-2.7,11.8c-1.4,8.3-3.1,16.4-2.7,25,.4,7.9,1.8,15.7,2.2,23.5a59,59,0,0,1-.6,11.9,80.09,80.09,0,0,1-2.8,12.9c-1,2.8-3.7,5.5-6.7,4.7a5.42,5.42,0,0,1-3.3-3.6,6.28,6.28,0,0,1-.3-1.9c0-.1,0-1.3.2-.9.8-2.8,1.3-5.7,1.9-8.5a49.45,49.45,0,0,0,1.8-8.5,142.78,142.78,0,0,0-.2-18.5,58.35,58.35,0,0,1,1.4-17.2c1.5-5.9,3.5-11.5,5.2-17.3.9-3.1,1.6-6.2,2.6-9.3a37.47,37.47,0,0,1,4-8.6,3.55,3.55,0,0,1-.4.9c.3-.6,2.1-5.1,2.9-3.7C447.9,358.8,447.1,360.2,446.6,361Z"/><path class="cls-3" d="M422.4,314c-.1-.1-.2-.1-.3-.2-1.9,5-2.1,10.2-2,15.4.1,5.5,0,11-.4,16.6-.7,11.2-1.7,22.4-2.8,33.5-1.1,10-1.9,20-2.4,30.1-.5,9.8-.8,19.7.2,29.4.5,5.1,2.3,20.5,10.4,16.9s6.8-15.8,6.9-23c.2-9.8-1.1-19.6-2.4-29.3-1.3-9.9-2.8-19.8-4.2-29.7a286.62,286.62,0,0,1-2.2-29.3"/><path class="cls-3" d="M396.7,311.2c-1.7,0-1.8,7.6-1.9,8.8-.3,5-.9,9.9-1.4,14.9-.7,6.8-1.8,13.6-2.7,20.4s-1.4,13.7-1.9,20.6c-.9,12.4-1.7,24.8-1.1,37.2a138.93,138.93,0,0,0,2.1,18.2,106.91,106.91,0,0,0,3.8,15.8c1.5,3.9,4.2,9.3,8.5,10.1,1.6.3,3.9-.3,4.5-2.2.3-1.2.2-2.7.4-3.9.2-1.5.5-2.9.7-4.4a152.24,152.24,0,0,0,1.1-17.9c.1-6,.5-12-.2-17.9-.8-6.2-2.3-12.2-3.5-18.3s-2.2-12.1-3.2-18.3c-1.7-11.4-2.1-22.9-2.5-34.4-.2-5.3-.1-10.5-.3-15.8-.2-1.5-.2-12.9-2.4-12.9"/><path class="cls-2" d="M400.75,395c-.3,9.5.8,19,1.5,28.5a146.64,146.64,0,0,0,4.2,25c1.4,5.1,4.1,11,9.1,8.4,2.4-1.3,4-4,4.9-7a48.43,48.43,0,0,1,1.7-5.4,31.55,31.55,0,0,0,1.3-5.3c1.1-7.9-.2-16.3-1-24.2a243.08,243.08,0,0,0-3.5-24.2c-.8-4-6.9-57.6-7.2-61.7s-.8-8.1-.8-12.2.1-22.1-.8-23.3c-.3,4.1-3,19.1-3.2,22.7-1,14.5-5.8,66.8-6.2,78.7"/><path class="cls-1" d="M126.8,288.8c.2-.2.5-.3.7-.5a57,57,0,0,1-2.9,7.2,51.35,51.35,0,0,0-1.9,7c-1.4,5.5-2.9,11-4.2,16.6-2.5,11.1-2.1,23-.4,35.3,1.6,11.6,4,23.2,5.2,34.8a145.44,145.44,0,0,1,.5,28.7c-.6,6.2-2.7,13.7-8.4,13-2.7-.3-4.1-3.2-4.6-6.5a146.09,146.09,0,0,1-1.4-16c-.8-11.7-.9-23.4-1.1-34.9-.1-10.9-.5-22.1.3-32.7a92.59,92.59,0,0,1,6.7-28.1c1.8-4.5,3.6-9.1,5.6-13.4,1-2.1,2.2-3.9,3.2-5.9C124.9,291.5,125.5,289.9,126.8,288.8Z"/><path class="cls-3" d="M95.9,303.6c-2.5.2-1.2,12.3-1.1,13.9.4,5.6,1,11.3,1.5,16.9,1,12.3,1.9,24.7,1.3,37-.3,6.6-.8,13.2-1.3,19.8s-1.6,13.2-1.7,19.9c-.1,6.4,1.1,12.8,1.9,19.1a150.88,150.88,0,0,0,3.3,19c.4,1.5.8,3.1,1.3,4.6.4,1.3.4,2.9.9,4.1.8,1.9,3.5,2.3,5.2,1.9,4.6-1.3,7-7.3,8.2-11.6,1.5-5.5,1.9-11.5,2.4-17.2a142.46,142.46,0,0,0,.1-19.6c-.8-13.3-3.1-26.5-5.6-39.6-1.4-7.3-2.8-14.5-4.6-21.7s-3.8-14.3-5.4-21.5c-1.2-5.2-2.3-10.5-3.3-15.8-.2-1.2-1.2-9.4-3.1-9.2"/><path class="cls-2" d="M100.6,404.3c-1-10.3-7.4-55.5-9-67.9-.4-3.1-3.1-16-3.6-19.6-.5,1,.6,16.6.9,20.2s.2,7,.2,10.6-.8,50.3-1,53.8c-.6,6.9-.8,14-.8,21.1,0,6.9-.4,14.2.8,21a23.93,23.93,0,0,0,1.2,4.6c.6,1.5,1,3,1.5,4.6.8,2.6,2,4.9,3.7,5.9,3.5,2,5-3.1,5.6-7.6a143.43,143.43,0,0,0,1.3-21.8c-.2-8.4,0-16.6-.8-24.9"/><path class="cls-1" d="M148.2,278.3A50.73,50.73,0,0,1,146,288c-3.6,10.9-10.4,36.8-12.2,47.5-2.1,12.2-1.2,7.6-3.1,19.7-2.3,14.7,4.5,17.9,4.8,32.7.3,15.1-.3,30.2.2,45.3.1,3.8.4,7.5.5,11.3a34.06,34.06,0,0,1-.5,9c-1.2,5.1-5.6,4.5-7.3.3-2.2-5.3-2.3-12.1-2.6-17.9-.3-7.5-1.1-14.8-1.8-22.3s-.9-14.8-1-22.3-.2-15.3-.1-22.9c.1-14.1,2.2-27.8,7.3-40.4,8.6-21.3,8.2-29,17.7-49.4C147.9,278.3,148,278.3,148.2,278.3Z"/><path class="cls-2" d="M168,311.7c-1.2,2.8-3.2,5.1-4.8,7.6a48,48,0,0,0-3.3,7.3c-2.5,5.8-5.2,11.5-7.5,17.4-4.7,11.6-5.2,23.6-4.2,35.9,1,11.6,3.2,23.1,3.6,34.7a109.08,109.08,0,0,1-2.3,29.1c-1.5,6.4-5.2,14.2-13,14.3-3.7,0-5.3-2.8-5.7-6-.7-5.2-.4-10.9-.3-16.1.1-11.8,1.1-23.6,2.1-35.4.9-11.1,1.5-22.4,3.8-33.3a90.31,90.31,0,0,1,12.2-29.4c3-4.8,5.9-9.7,9.2-14.3,1.6-2.2,3.4-4.2,5-6.4,1.3-1.8,2.3-3.6,4.2-4.8C167.3,312.1,167.7,311.9,168,311.7Z"/><path class="cls-1" d="M166.1,351.6a37.77,37.77,0,0,0-2.2,5,87.41,87.41,0,0,0-2.8,13.5c-1.5,9.5-3.2,18.7-2.6,28.4.6,8.9,2.3,17.8,2.9,26.7a67.76,67.76,0,0,1-.4,13.5,91,91,0,0,1-2.9,14.7c-1,3.3-4.1,6.4-7.5,5.5a5.87,5.87,0,0,1-3.8-4,5.38,5.38,0,0,1-.4-2.2c0-.1,0-1.5.2-1.1.8-3.2,1.4-6.5,2.1-9.7s1.7-6.3,1.9-9.7a165.2,165.2,0,0,0-.5-21.1,64.4,64.4,0,0,1,1.3-19.6c1.6-6.7,3.8-13.2,5.6-19.8.9-3.5,1.8-7.1,2.7-10.6a42.05,42.05,0,0,1,4.4-9.9,10.37,10.37,0,0,0-.4,1c.3-.7,2.3-5.9,3.2-4.3C167.5,349,166.5,350.7,166.1,351.6Z"/><path class="cls-3" d="M130.2,296.4c-.1-.1-.2-.2-.3-.2-1.7,5.6-1.8,11.6-1.8,17.6.1,6.3,0,12.6-.3,18.8-.7,12.7-1.5,25.4-2.5,38.1-.9,11.4-1.7,22.8-2.2,34.2-.4,11.2-.7,22.4.2,33.5.5,5.8,2,23.3,9.3,19.2s6.1-17.9,6.2-26.1c.2-11.1-1-22.3-2.1-33.3-1.2-11.3-2.5-22.5-3.7-33.8-1.2-11.1-1.7-22.1-2-33.3"/><path class="cls-2" d="M108.8,388.9c-.2,10.8.6,21.6,1.2,32.4a202.21,202.21,0,0,0,3.4,28.4c1.1,5.8,3.2,12.5,7.2,9.5,2-1.4,3.2-4.5,3.9-8a54.5,54.5,0,0,1,1.4-6.1,39.54,39.54,0,0,0,1-6c.9-9-.1-18.5-.8-27.5-.7-9.2-1.5-18.5-2.8-27.5-.6-4.5-5.5-65.5-5.7-70.2s-.6-9.2-.6-13.8.1-25.2-.7-26.5c-.3,4.6-2.4,21.7-2.6,25.8-.7,16.4-4.6,76-4.9,89.5"/><path class="cls-1" d="M70.5,347.9c1.1-1.6,3.2,3.7,3.6,4.3-.1-.3-.3-.7-.4-1a39.74,39.74,0,0,1,4.9,9.9c1.1,3.5,2,7.1,3,10.6,1.9,6.6,4.4,13.1,6.1,19.8a58.73,58.73,0,0,1,1.5,19.6,148.77,148.77,0,0,0-.6,21.1c.2,3.3,1.3,6.5,2.1,9.7s1.4,6.5,2.3,9.7c.2-.4.2,1,.2,1.1a7.8,7.8,0,0,1-.4,2.2,6.23,6.23,0,0,1-4.2,4c-3.7.9-7.1-2.2-8.3-5.5a82,82,0,0,1-3.2-14.7,61.06,61.06,0,0,1-.5-13.5c.6-9,2.5-17.8,3.2-26.7.7-9.7-1.3-18.9-2.9-28.4a77.72,77.72,0,0,0-3.1-13.5,32.74,32.74,0,0,0-2.4-5C70.8,350.7,69.8,349,70.5,347.9Z"/></g></svg>