<svg id="Calque_1" data-name="Calque 1" xmlns="http://www.w3.org/2000/svg" viewBox="0 0 74.37 77.28"><defs><style>.cls-1{fill:#9159ff;}.cls-2{fill:#6b47c4;}.cls-3{fill:#6138e0;}.cls-4{fill:#1491af;}.cls-5{fill:#13707a;}</style></defs><title>Plan de travail 1</title><polygon class="cls-1" points="5.53 40.37 0 77.22 74.37 77.28 66.86 40.37 5.53 40.37"/><path class="cls-2" d="M66.86,40.37H5.53L5,43.85c16,.12,46.78.7,53.48,3.25C64.43,49.37,69.31,66,72,77.28h2.34Z"/><polygon class="cls-3" points="2.77 30.26 70.37 30.26 69.24 40.3 3.9 40.3 2.77 30.26"/><polygon class="cls-4" points="27.92 77.24 38.24 77.25 39.28 30.26 35.25 30.26 27.92 77.24"/><path class="cls-5" d="M28.09,14.28C19,9,13,14.6,14.72,18.84S35.37,30.26,35.37,30.26s1.77-10.68-7.28-16m-9.37,4.64c-1.28-2.35,1.9-3.64,7.49-1.39s6.9,10.1,6.9,10.1S20,21.27,18.72,18.92"/><path class="cls-5" d="M60.83,27.86c9.4-5,1.61-9.65-5.14-9.16S35.25,30.28,35.25,30.28s16.17,2.61,25.58-2.42M55,21.24c3.8-.49,5.33,1.71,1.09,5s-16.48,3-16.48,3,11.6-7.47,15.39-8"/><path class="cls-5" d="M26.75,0s6.17-1,9.34,8.63-.84,21.6-.84,21.6,11.09-12,10.33-18.81S43.07,3,43.07,3s-4.94.22-7.82-1.53S26.75,0,26.75,0"/></svg>