<svg id="Calque_1" data-name="Calque 1" xmlns="http://www.w3.org/2000/svg" xmlns:xlink="http://www.w3.org/1999/xlink" viewBox="0 0 299.9 283.44"><defs><style>.cls-1{fill:#49acbd;}.cls-19,.cls-2{fill:#010101;}.cls-2{fill-opacity:0.1;}.cls-3{fill:#b0b9c5;}.cls-4{fill:#c5cfd7;}.cls-5{opacity:0.35;}.cls-6{fill:url(#Dégradé_sans_nom_2);}.cls-7{fill:url(#Dégradé_sans_nom_2-2);}.cls-8{fill:#62c2d2;}.cls-9{fill:#1991af;}.cls-10{opacity:0.7;}.cls-11{fill:#b18b67;}.cls-12{fill:#222046;}.cls-13{fill:#7db0b5;}.cls-14{fill:#4f391d;}.cls-15{fill:#896035;}.cls-16{fill:#e4e4e3;}.cls-17{fill:#4d3a8e;}.cls-18{fill:#5b4d9b;}.cls-19{fill-opacity:0.4;}.cls-20{fill:#93c7c8;}.cls-21{fill:#2f3676;}.cls-22{fill:#9a7759;}.cls-23{fill:#5c64ab;}.cls-24{fill:#135d69;}.cls-25{fill:#dde3e9;}.cls-26{fill:url(#Dégradé_sans_nom_2-3);}.cls-27{fill:url(#Dégradé_sans_nom_2-4);}</style><linearGradient id="Dégradé_sans_nom_2" x1="10.69" y1="106.15" x2="212.53" y2="106.15" gradientTransform="matrix(1, 0, 0, -1, 0, 302)" gradientUnits="userSpaceOnUse"><stop offset="0" stop-color="#5b4d9b"/><stop offset="0.5" stop-color="#6a5ba4"/><stop offset="1" stop-color="#1991af"/></linearGradient><linearGradient id="Dégradé_sans_nom_2-2" x1="114.81" y1="79.86" x2="299.9" y2="79.86" xlink:href="#Dégradé_sans_nom_2"/><linearGradient id="Dégradé_sans_nom_2-3" x1="0" y1="124.38" x2="201.83" y2="124.38" xlink:href="#Dégradé_sans_nom_2"/><linearGradient id="Dégradé_sans_nom_2-4" x1="104.11" y1="98.08" x2="289.2" y2="98.08" xlink:href="#Dégradé_sans_nom_2"/></defs><title>contact-citoyen</title><g id="Clock"><circle id="Clock-Frame" class="cls-1" cx="81.24" cy="59.15" r="22.83"/><circle id="Time" class="cls-2" cx="81.24" cy="41.08" r="1.26"/><circle class="cls-2" cx="63.17" cy="59.15" r="1.26"/><circle class="cls-2" cx="99.31" cy="59.15" r="1.26"/><circle class="cls-2" cx="81.24" cy="77.22" r="1.26"/><polygon id="Hand" class="cls-3" points="81.24 43.67 82.08 58.73 80.39 58.73 81.24 43.67"/><polygon class="cls-3" points="88.89 66.8 80.94 60.05 82.14 58.85 88.89 66.8"/><circle class="cls-4" cx="81.24" cy="59.15" r="1.75"/></g><g id="Background-Shape-2" class="cls-5"><path id="Background-Shape" class="cls-6" d="M212.44,210.52c-2.95-32.88-160.75-96.31-190.09-65.17s-1.14,89.57,60.23,104.51S215.33,243.41,212.44,210.52Z" transform="translate(0 -17.28)"/><path class="cls-7" d="M114.87,231.91c2.65-27.95,144-81.8,170.21-55.36s19.58,82.1-35.41,94.81S112.22,259.79,114.87,231.91Z" transform="translate(0 -17.28)"/></g><g id="Light"><ellipse id="Hanging-Lamp-Light" class="cls-8" cx="156.16" cy="58.89" rx="15.66" ry="7.05"/><path id="Hanging-Lamp" class="cls-9" d="M174.41,81.05c0-8.68-8.19-15.72-18.25-15.72s-18.25,7-18.25,15.72" transform="translate(0 -17.28)"/></g><rect id="Wire" class="cls-9" x="155.26" width="1.87" height="50.29"/><g class="cls-10"><ellipse class="cls-8" cx="184.71" cy="44.33" rx="11.68" ry="5.72"/><path class="cls-9" d="M198.39,65.52c0-7-6.09-12.7-13.62-12.7s-13.61,5.66-13.61,12.7" transform="translate(0 -17.28)"/><rect class="cls-9" x="183.99" width="1.87" height="42.76"/></g><g id="Head"><path class="cls-11" d="M64.43,141.84a14.76,14.76,0,0,1-3.19-10.6c1.44-11.33,17-7.89,19.69-1.93s1.51,20.48-2.52,21.26c-1.63.3-4.88-.9-8.2-3.19l1.21,15.42L58.77,162Z" transform="translate(0 -17.28)"/></g><path id="Hair" class="cls-12" d="M71.78,133.16c.06,6.87,1.14,10.3,3.25,10.42,3.13.18,5.84-1.62,7.23-1.56,1,.06.72,1.32,0,2.23-.6.72-3.31,1.32-3.37,2.53s2.11.42,2,1.08c-.06,1.14.19,3.37-1.86,3.25s-7.83-1.2-8.68-4.33c-.54-2-.72-6.15-.54-12.35-.12,0-.24-.06-.36-.06a3.21,3.21,0,0,0-3.37,3,3,3,0,0,0,.84,2.35,40.24,40.24,0,0,1-2.71,3.13c-3.37-2.35-5.66-8.79-1.81-14.57a7.74,7.74,0,0,1,6-4.88,8.89,8.89,0,0,1,6-.06c3.55.54,6.63,1.8,7.47,2.53-.18,3.37-.9,4.33-6.45,3.91A9.58,9.58,0,0,0,71.78,133.16Z" transform="translate(0 -17.28)"/><ellipse id="Ballsy-Ball" class="cls-13" cx="55.1" cy="239.72" rx="39.03" ry="37.64"/><path id="Skin" class="cls-11" d="M135,287c-5.42-33.42-9.88-55.59-12.47-62.33-1.68-4.46-14.57-3.92-13.07,5,.61,3.74,3.08,13.8,6.33,25.24,1.87,6.69,6.56,19.34,13.07,33.85ZM55.4,249.35c2.29-.3,28.91-3.13,47.7-5.9,7.53-1.09,3.49-15.36-4.34-13.86-2.65.49-5.42,1.09-8.31,1.69-10.06,2.11-31,9.58-36.92,11.93C49.74,244.71,52.14,249.77,55.4,249.35Z" transform="translate(0 -17.28)"/><path id="Leg-Back" class="cls-14" d="M103.64,227.37c-.36,20.35,14.1,32.16,18.61,49.14l11.87-1.8c-1.21-3.13-4.94-45.12-11.08-53.67L123,221v-.06q-1-3.43-47.83-15.42H71.3v3.62l32.22,16.56A8,8,0,0,0,103.64,227.37Z" transform="translate(0 -17.28)"/><path id="Leg-Front" class="cls-15" d="M64.25,239.53l3,9c6.51-1.63,25.9,3.43,50.48-6.21a.41.41,0,0,0,.24-.36c4.57-3.07,7.1-14.94-1-18.19-12.16-4.94-35.65-14.27-40.17-15.54H49.19C46.6,224.84,51,232.43,66,235c2.35.37,5.06.91,8,1.45Z" transform="translate(0 -17.28)"/><path id="shoe" class="cls-16" d="M55.6,241.71a1,1,0,0,1,1,1h0a8.62,8.62,0,0,0,.56,3.21,9.34,9.34,0,0,0,2.51,2.8l2.21-.14h0a.52.52,0,0,1,.51.49l.47,14.71c.31,1.06.73,2.33,1.28,3.86s-.45,2.51-3,2.94c-7.89-16.32-12-25-12.54-26a25.52,25.52,0,0,1,3.42-2.2,11.36,11.36,0,0,1,3.4-.73Z" transform="translate(0 -17.28)"/><path class="cls-11" d="M98.1,204.24l16,6.68c4.52,5.36,7,7.59,7.59,6.75.78-1.33-1-2.53-.54-3.49s3.43-.91,6.32-.67,2-1.08,1.33-1.68a42.35,42.35,0,0,0-11-4.46l-16.15-12.05ZM14.56,222.49c-1,1.32-7,4.88-11.14,6.74-1.63.79-1.27,2.17-.79,2.65,4,3.62,7.59.85,11.87-.3,4.64-1.26,3.31,4.4,7,3.44-.61-2.53-2.29-7.41-.67-10.06q1.09-1.82,16.63-33l-8.92-1.63Q16.52,219.75,14.56,222.49Z" transform="translate(0 -17.28)"/><path id="Back-Arm" class="cls-17" d="M72.44,152.74,67,155c.24,5.9-.6,22.22,1.87,27,7.35,14.28,23.49,20.78,40.65,29.45l4.1-8.43c-.48-.36-1-.66-1.38-1a2.11,2.11,0,0,0,1.38-1.45,2.33,2.33,0,0,0-1.45-2.95,16.31,16.31,0,0,0-6.74-1C90.21,183.64,80,168.52,72.44,152.74Z" transform="translate(0 -17.28)"/><path id="Shirt" class="cls-12" d="M64.73,152.92c3.74.54,6.39.42,7.89-.36,0,14.57,5.36,30,13.55,51,.55,1.33.61,6.27-.54,6.51q-13.72,2.63-37.64,0C50,185.2,54.61,168,64.73,152.92Z" transform="translate(0 -17.28)"/><path id="Coat-Front" class="cls-18" d="M22.57,267.48c20.9-8.43,42.4,2.11,57.46-1.27,8.13-42.28-15.3-91.85-13.61-114.56H60.7q-29.91,18.53-43.07,58.67a9.53,9.53,0,0,0-3.07,1.08c-.9.49.36,3.38,1.45,4-.37,1.32-.79,2.71-1.15,4l9.58,2.83c6.44-17.23,13.79-29.4,21.92-36.44-.06,6.14,1.69,12.46.66,18.85-.12.78-.24,1.5-.42,2.29a2.28,2.28,0,0,0-2,1.86l-.25,1.51a2.46,2.46,0,0,0,.67,2.11C39,230.44,23.35,250.43,22.57,267.48Z" transform="translate(0 -17.28)"/><polygon id="Shade-Lapel" class="cls-2" points="58.05 143.77 62.74 149.13 58.05 153.95 72.14 173.83 60.64 153.95 65.39 149.13 60.09 143.05 62.74 134.92 58.05 143.77"/><path id="Buttons" class="cls-19" d="M70.82,196.77a2,2,0,1,0-2,2h0a2,2,0,0,0,2-2Zm2.53,11.8a2,2,0,1,0-2,2.05h0a2,2,0,0,0,2-2Zm.48,11.75a2,2,0,1,0-2,2.05h0a2,2,0,0,0,2-2Z" transform="translate(0 -17.28)"/><path class="cls-20" d="M127.19,287.54a.84.84,0,0,1,1.1-.45l.05,0h0a6.83,6.83,0,0,0,2.65.78,7.58,7.58,0,0,0,3.07-.91l.72-1.8h0a.44.44,0,0,1,.54-.24l11.39,5.12c.9.12,2,.3,3.43.48s1.75,1.32,1.08,3.43H126.77a24.62,24.62,0,0,1-.36-3.43,9.23,9.23,0,0,1,.78-3C127.13,287.6,127.13,287.54,127.19,287.54Z" transform="translate(0 -17.28)"/><g id="Head-2"><path class="cls-11" d="M206.88,138.46H195.74L197.6,125c-3,1.81-6,2.71-7.35,2.35-3.49-.9-3.79-13.79-1.08-18.85s16.56-7.29,17.23,2.77a12.7,12.7,0,0,1-3.38,9.15Z" transform="translate(0 -17.28)"/></g><path id="hair-2" class="cls-12" d="M189.11,106c-.6,1.38-.24,3.07,2.29,2.89,2.59,3.13,6.26,5.24,6.74,5.24.07,0,1.69-2.29,3.26-1.32,1.8,1.08,1.5,3.13.48,4.69-.54.85-1.33,2.11,0,3,2.05,1.5,7.35-1.87,8.25-4.7,1.63-5.3-.66-12.59-6.44-13.61.36-1,1.74-1.39,2.71-1.63a16.86,16.86,0,0,1,6.92.48c2.77.6,5.54,1.51,8.38,1.51a11.55,11.55,0,0,0,4.27-.79,18.08,18.08,0,0,0,3.8-2.16,4.26,4.26,0,0,1,3.73-.25,19.3,19.3,0,0,1,3.86,1.57c2.65,1.39,5,3.07,7.89,4.1a21.85,21.85,0,0,0,6.56,1.2c3.86.06,8.49-.78,11-4a7.45,7.45,0,0,0,.67-7.65,11.92,11.92,0,0,0-4.82-5.49,15.46,15.46,0,0,0-7.41-2.83,13.51,13.51,0,0,0-8.13,2.29c-2.41,1.51-4.52,3-7.41,3.5a18.45,18.45,0,0,1-8.31-.79,35.51,35.51,0,0,0-8.56-2.17,17.48,17.48,0,0,0-8.37,1.15,11.62,11.62,0,0,0-5.48,5,16.72,16.72,0,0,0-1.5,3.79,14.38,14.38,0,0,0-.31,1.45,3.27,3.27,0,0,1-.24,1.38c-.3.43-.78.3-1.26.3-.72,0-4.7.19-6.14.43C193.45,102.87,189.71,104.61,189.11,106Z" transform="translate(0 -17.28)"/><path id="Leg" class="cls-11" d="M197.84,178q-29.33,47.16-30.29,55.17-.6,5.59,25.29,55.83l3.74-2.65c-12.11-32-18.19-48.18-18.07-48.72.18-1.21,41.32-47.23,40.84-61.62Z" transform="translate(0 -17.28)"/><path id="Pant" class="cls-21" d="M187.91,254.53c-1.81-5.72-3.68-11.38-5.49-17a91.31,91.31,0,0,0,27.77-62.39L186,181.29a195.67,195.67,0,0,0-12.11,22.1c-5.66,12.11-8.49,18.31-8.55,26.14-.12,7.29,2.29,13,7.05,24.22a189.29,189.29,0,0,0,14.69,27.76c2.95-.42,5.84-.78,8.8-1.2C193.33,271.88,190.68,263.26,187.91,254.53Z" transform="translate(0 -17.28)"/><path id="shoe-2" class="cls-20" d="M198.35,286.93a1,1,0,0,0-1.25-.45h0a5.49,5.49,0,0,1-6.07,0l-.79-1.89h0a.48.48,0,0,0-.61-.23l-12,5.62c-1,.16-2.16.3-3.62.54s-1.86,1.44-1.15,3.69c16.34-.14,25-.21,25.9-.25a20.93,20.93,0,0,0,.39-3.7,8.4,8.4,0,0,0-.78-3.3Z" transform="translate(0 -17.28)"/><polygon class="cls-22" points="192.6 156.48 239.82 271.16 245.37 271.82 228.02 219.84 211.34 158.83 192.6 156.48"/><path class="cls-20" d="M245.73,286.21a.92.92,0,0,0-1.23-.44l0,0h0a6.92,6.92,0,0,1-2.83.9,8.51,8.51,0,0,1-3.31-.9l-.84-1.93h0a.44.44,0,0,0-.57-.25h0l-12,5.78c-1,.18-2.17.37-3.68.61s-1.8,1.44-1.08,3.73c16.5-.42,25.24-.6,26.2-.6a29.23,29.23,0,0,0,.36-3.74,9.76,9.76,0,0,0-.84-3.13A.06.06,0,0,1,245.73,286.21Z" transform="translate(0 -17.28)"/><path class="cls-23" d="M219,176.29l-27-3.43c.84,28.18,32.71,92.63,40.3,108.35l12.46-.84C237.6,264.47,230.85,198.15,219,176.29Z" transform="translate(0 -17.28)"/><path id="Skin-2" class="cls-11" d="M162.43,171.53l-12.65-9.76c-6.33-1.14-9.22-2.16-8.79-3,.66-1.26,2.4-.42,3-1.2s-.91-3.19-2.35-5.36-.12-2.11.72-1.87a38.83,38.83,0,0,1,8.55,6.81l16.87,7.46Zm85,23.43c.91,1.21,6.57,4.34,10.36,6a1.46,1.46,0,0,1,.73,2.41c-3.68,3.38-7,.91-10.84-.12-4.28-1.08-3,4.1-6.33,3.26.54-2.35,2-6.81.42-9.28q-1.08-1.62-15.42-28.73l9.52-1.93q9.75,25.93,11.56,28.37Z" transform="translate(0 -17.28)"/><path id="Coat-Back" class="cls-24" d="M186.58,177.61c-7.29,4.46-25.3-3.37-33.73-12.58l2.83-6.45c9.28,3.37,17.11,5.9,22.65,3.31,5.84-2.71,9.39-23.37,18.19-32l4,.72C200.92,145,198.21,170.45,186.58,177.61Z" transform="translate(0 -17.28)"/><path id="Shirt-2" class="cls-25" d="M205,128.1l-10.24,1.63c0,19.7-10.6,34.57-13.31,48.43-.24,1.2-.54,3.55,1.08,3.55h35.6C216.33,158.88,213.44,141.9,205,128.1Z" transform="translate(0 -17.28)"/><path id="Coat-Front-2" class="cls-9" d="M225.91,191.59h-32q-6.24-15.81,7.65-63.49h4.09q34.51,21.51,41.74,66.68l-7.46,1.51q-7.41-8.78-18.32-28.55A115.65,115.65,0,0,1,225.91,191.59Z" transform="translate(0 -17.28)"/><g id="Clock-2" data-name="Clock"><circle id="Clock-Frame-2" data-name="Clock-Frame" class="cls-1" cx="92.31" cy="65.22" r="22.83"/><circle id="Time-2" data-name="Time" class="cls-2" cx="92.31" cy="47.15" r="1.26"/><circle class="cls-2" cx="74.24" cy="65.22" r="1.26"/><circle class="cls-2" cx="110.38" cy="65.22" r="1.26"/><circle class="cls-2" cx="92.31" cy="83.29" r="1.26"/><polygon id="Hand-2" data-name="Hand" class="cls-3" points="92.31 49.74 93.15 64.8 91.47 64.8 92.31 49.74"/><polygon class="cls-3" points="99.96 72.87 92.01 66.13 93.21 64.92 99.96 72.87"/><circle class="cls-4" cx="92.31" cy="65.22" r="1.75"/></g><g id="Background-Shape-2-2" data-name="Background-Shape-2" class="cls-5"><path id="Background-Shape-2-3" data-name="Background-Shape" class="cls-26" d="M201.75,192.3C198.8,159.42,41,96,11.66,127.13s-1.15,89.57,60.23,104.5S204.64,225.19,201.75,192.3Z" transform="translate(0 -17.28)"/><path class="cls-27" d="M104.17,213.68c2.65-27.94,144-81.79,170.22-55.35S294,240.43,239,253.14,101.52,241.57,104.17,213.68Z" transform="translate(0 -17.28)"/></g><g id="Light-2" data-name="Light"><ellipse id="Hanging-Lamp-Light-2" data-name="Hanging-Lamp-Light" class="cls-8" cx="167.24" cy="64.96" rx="15.66" ry="7.05"/><path id="Hanging-Lamp-2" data-name="Hanging-Lamp" class="cls-9" d="M185.49,87.12c0-8.67-8.2-15.72-18.25-15.72S149,78.45,149,87.12" transform="translate(0 -17.28)"/></g><rect id="Wire-2" data-name="Wire" class="cls-9" x="166.33" y="6.07" width="1.87" height="50.29"/><g class="cls-10"><ellipse class="cls-8" cx="195.79" cy="50.4" rx="11.68" ry="5.72"/><path class="cls-9" d="M209.46,71.6c0-7-6.09-12.71-13.61-12.71s-13.62,5.66-13.62,12.71" transform="translate(0 -17.28)"/><rect class="cls-9" x="195.06" y="6.07" width="1.87" height="42.76"/></g><g id="Head-2-2" data-name="Head"><path class="cls-11" d="M75.5,147.91a14.79,14.79,0,0,1-3.19-10.6c1.45-11.32,17-7.89,19.7-1.93s1.5,20.48-2.53,21.27c-1.63.3-4.88-.91-8.19-3.2l1.2,15.42-12.65-.78Z" transform="translate(0 -17.28)"/></g><path id="Hair-2-2" data-name="Hair" class="cls-12" d="M82.85,139.24c.06,6.86,1.15,10.3,3.25,10.42,3.14.18,5.85-1.63,7.23-1.57,1,.06.73,1.33,0,2.23-.6.72-3.31,1.33-3.37,2.53s2.11.42,2.05,1.08c-.06,1.15.18,3.38-1.87,3.26s-7.83-1.21-8.67-4.34c-.55-2-.73-6.14-.55-12.35-.12,0-.24-.06-.36-.06a3.22,3.22,0,0,0-3.37,3A3,3,0,0,0,78,145.8a40.39,40.39,0,0,1-2.71,3.14c-3.37-2.35-5.66-8.8-1.8-14.58a7.74,7.74,0,0,1,6-4.88,9,9,0,0,1,6-.06c3.56.54,6.63,1.81,7.47,2.53-.18,3.37-.9,4.34-6.44,3.92A9.52,9.52,0,0,0,82.85,139.24Z" transform="translate(0 -17.28)"/><ellipse id="Ballsy-Ball-2" data-name="Ballsy-Ball" class="cls-13" cx="66.17" cy="245.79" rx="39.03" ry="37.64"/><path id="Skin-2-2" data-name="Skin" class="cls-11" d="M146.09,293.07c-5.42-33.43-9.87-55.59-12.46-62.34-1.69-4.46-14.58-3.92-13.07,5,.6,3.73,3.07,13.79,6.32,25.24,1.87,6.68,6.57,19.33,13.07,33.85ZM66.47,255.42c2.29-.3,28.91-3.13,47.7-5.9,7.53-1.08,3.5-15.36-4.33-13.85-2.65.48-5.43,1.08-8.32,1.69-10,2.1-31,9.57-36.92,11.92C60.81,250.79,63.22,255.85,66.47,255.42Z" transform="translate(0 -17.28)"/><path id="Leg-Back-2" data-name="Leg-Back" class="cls-14" d="M114.71,233.44c-.36,20.36,14.1,32.16,18.62,49.15l11.86-1.81c-1.2-3.13-4.94-45.11-11.08-53.66l-.06-.06V227q-1-3.44-47.83-15.42H82.37v3.61l32.22,16.56A9.54,9.54,0,0,0,114.71,233.44Z" transform="translate(0 -17.28)"/><path id="Leg-Front-2" data-name="Leg-Front" class="cls-15" d="M75.32,245.61l3,9c6.51-1.63,25.9,3.43,50.48-6.2a.44.44,0,0,0,.24-.36c4.58-3.08,7.11-14.94-1-18.19-12.17-4.94-35.66-14.28-40.18-15.54H60.27c-2.59,16.62,1.8,24.21,16.8,26.74,2.35.36,5.06.9,8,1.44Z" transform="translate(0 -17.28)"/><path id="shoe-2-2" data-name="shoe" class="cls-16" d="M66.67,247.78a1,1,0,0,1,1,1h0a8.36,8.36,0,0,0,.56,3.21,9.06,9.06,0,0,0,2.5,2.8l2.21-.13h0a.49.49,0,0,1,.51.48l.47,14.72c.32,1.05.73,2.32,1.29,3.86s-.46,2.5-3,2.94c-7.9-16.32-12-25-12.55-26a26.18,26.18,0,0,1,3.42-2.2,11,11,0,0,1,3.4-.72Z" transform="translate(0 -17.28)"/><path class="cls-11" d="M109.17,210.31l16,6.69c4.52,5.36,7.05,7.59,7.59,6.74.79-1.32-1-2.53-.54-3.49s3.43-.9,6.33-.66,2-1.09,1.32-1.69a43.06,43.06,0,0,0-11-4.46l-16.14-12ZM25.63,228.56c-1,1.33-7,4.88-11.14,6.75a1.63,1.63,0,0,0-.78,2.65c4,3.61,7.59.84,11.86-.3,4.64-1.27,3.31,4.39,7,3.43-.6-2.53-2.29-7.41-.66-10.06q1.08-1.8,16.62-32.95l-8.91-1.62Q27.6,225.82,25.63,228.56Z" transform="translate(0 -17.28)"/><path id="Back-Arm-2" data-name="Back-Arm" class="cls-17" d="M83.51,158.81,78.09,161c.24,5.9-.6,22.23,1.87,27,7.35,14.27,23.49,20.78,40.66,29.45l4.09-8.43c-.48-.37-1-.67-1.38-1a2.08,2.08,0,0,0,1.38-1.44,2.32,2.32,0,0,0-1.44-3,16.18,16.18,0,0,0-6.75-1C101.28,189.71,91.1,174.59,83.51,158.81Z" transform="translate(0 -17.28)"/><path id="Shirt-2-2" data-name="Shirt" class="cls-12" d="M75.8,159c3.74.55,6.39.43,7.9-.36,0,14.58,5.36,30,13.55,51,.54,1.32.6,6.26-.54,6.5q-13.74,2.63-37.65,0C61.05,191.28,65.69,174.05,75.8,159Z" transform="translate(0 -17.28)"/><path id="Coat-Front-2-2" data-name="Coat-Front" class="cls-18" d="M33.64,273.55c20.9-8.43,42.41,2.11,57.46-1.26C99.23,230,75.8,180.44,77.49,157.73H71.77Q41.86,176.26,28.7,216.39a9.31,9.31,0,0,0-3.07,1.09c-.9.48.36,3.37,1.45,4-.36,1.33-.79,2.71-1.15,4l9.58,2.83C42,211.15,49.3,199,57.43,191.94c-.06,6.14,1.69,12.47.67,18.85-.12.79-.24,1.51-.42,2.29a2.3,2.3,0,0,0-2,1.87l-.24,1.5a2.44,2.44,0,0,0,.66,2.11C50,236.51,34.43,256.51,33.64,273.55Z" transform="translate(0 -17.28)"/><polygon id="Shade-Lapel-2" data-name="Shade-Lapel" class="cls-2" points="69.12 149.85 73.82 155.21 69.12 160.03 83.21 179.9 71.71 160.03 76.47 155.21 71.17 149.12 73.82 140.99 69.12 149.85"/><path id="Buttons-2" data-name="Buttons" class="cls-19" d="M81.89,202.84a2,2,0,1,0-2,2h0a2,2,0,0,0,2-2Zm2.53,11.81a2,2,0,1,0-2,2h0a2,2,0,0,0,2-2Zm.48,11.74a2.05,2.05,0,1,0-2.05,2.05h0a2,2,0,0,0,2.05-2Z" transform="translate(0 -17.28)"/><path class="cls-20" d="M138.26,293.61a.85.85,0,0,1,1.1-.44l0,0h0a6.66,6.66,0,0,0,2.65.78,7.68,7.68,0,0,0,3.07-.9l.72-1.81h0a.46.46,0,0,1,.55-.24l11.38,5.12c.9.12,2.05.3,3.43.48s1.75,1.33,1.09,3.44H137.84a24.93,24.93,0,0,1-.36-3.44,9.23,9.23,0,0,1,.78-3C138.2,293.67,138.2,293.61,138.26,293.61Z" transform="translate(0 -17.28)"/><g id="Head-2-3" data-name="Head-2"><path class="cls-11" d="M218,144.54H206.81l1.87-13.49c-3,1.8-6,2.71-7.35,2.35-3.5-.91-3.8-13.8-1.09-18.86s16.57-7.28,17.23,2.77a12.76,12.76,0,0,1-3.37,9.16Z" transform="translate(0 -17.28)"/></g><path id="hair-2-3" data-name="hair-2" class="cls-12" d="M200.18,112.07c-.6,1.39-.24,3.08,2.29,2.9,2.59,3.13,6.27,5.24,6.75,5.24.06,0,1.68-2.29,3.25-1.33,1.81,1.08,1.51,3.13.48,4.7-.54.84-1.32,2.11,0,3,2.05,1.51,7.35-1.87,8.25-4.7,1.63-5.3-.66-12.59-6.44-13.61.36-1,1.75-1.39,2.71-1.63a16.74,16.74,0,0,1,6.93.49c2.77.6,5.54,1.5,8.37,1.5a11.75,11.75,0,0,0,4.27-.78,18.31,18.31,0,0,0,3.8-2.17,4.29,4.29,0,0,1,3.73-.24,19.26,19.26,0,0,1,3.86,1.56c2.65,1.39,5.06,3.08,7.89,4.1a21.6,21.6,0,0,0,6.56,1.2c3.86.07,8.5-.78,11-4a7.47,7.47,0,0,0,.66-7.65,11.84,11.84,0,0,0-4.82-5.48,15.32,15.32,0,0,0-7.41-2.83,13.45,13.45,0,0,0-8.13,2.29c-2.41,1.5-4.52,3-7.41,3.49a18.44,18.44,0,0,1-8.31-.78,34.64,34.64,0,0,0-8.55-2.17,17.5,17.5,0,0,0-8.38,1.14,11.72,11.72,0,0,0-5.48,5,17.28,17.28,0,0,0-1.5,3.8,11.88,11.88,0,0,0-.3,1.44,3.64,3.64,0,0,1-.24,1.39c-.31.42-.79.3-1.27.3-.72,0-4.7.18-6.14.42C204.52,108.94,200.78,110.69,200.18,112.07Z" transform="translate(0 -17.28)"/><path id="Leg-2" data-name="Leg" class="cls-11" d="M208.92,184.11q-29.34,47.16-30.3,55.17-.6,5.61,25.3,55.84l3.73-2.65c-12.11-32-18.19-48.19-18.07-48.73.18-1.21,41.32-47.22,40.84-61.62Z" transform="translate(0 -17.28)"/><path id="Pant-2" data-name="Pant" class="cls-21" d="M199,260.6c-1.81-5.72-3.68-11.38-5.48-17a91.37,91.37,0,0,0,27.76-62.4l-24.21,6.14a197.4,197.4,0,0,0-12.11,22.11c-5.66,12.1-8.49,18.31-8.55,26.14-.12,7.29,2.29,13,7.05,24.21a190.36,190.36,0,0,0,14.69,27.77c3-.42,5.85-.79,8.8-1.21Q203.14,273.74,199,260.6Z" transform="translate(0 -17.28)"/><path id="shoe-2-3" data-name="shoe-2" class="cls-20" d="M209.42,293a.94.94,0,0,0-1.24-.46h0a5.51,5.51,0,0,1-6.08,0l-.79-1.89h0a.47.47,0,0,0-.6-.22L188.66,296c-1,.16-2.16.3-3.61.55s-1.87,1.44-1.15,3.68c16.33-.14,24.94-.21,25.9-.24a21.91,21.91,0,0,0,.38-3.71,8.31,8.31,0,0,0-.78-3.29Z" transform="translate(0 -17.28)"/><polygon class="cls-22" points="203.68 162.56 250.9 277.24 256.44 277.9 239.09 225.92 222.41 164.9 203.68 162.56"/><path class="cls-20" d="M256.8,292.29a.92.92,0,0,0-1.23-.44h0a7.13,7.13,0,0,1-2.84.91,8.52,8.52,0,0,1-3.31-.91l-.84-1.92h0a.45.45,0,0,0-.57-.26l0,0-12,5.78c-1,.18-2.17.36-3.67.6s-1.81,1.45-1.09,3.73c16.5-.42,25.24-.6,26.2-.6a25.88,25.88,0,0,0,.36-3.73,9.69,9.69,0,0,0-.84-3.13A.06.06,0,0,1,256.8,292.29Z" transform="translate(0 -17.28)"/><path class="cls-23" d="M230.06,182.36,203,178.93c.85,28.19,32.71,92.64,40.3,108.36l12.47-.85C248.67,270.54,241.92,204.23,230.06,182.36Z" transform="translate(0 -17.28)"/><path id="Skin-2-3" data-name="Skin-2" class="cls-11" d="M173.5,177.61l-12.65-9.76c-6.32-1.15-9.21-2.17-8.79-3,.66-1.27,2.41-.43,3-1.21s-.9-3.19-2.35-5.36-.12-2.11.72-1.87a39.12,39.12,0,0,1,8.56,6.81l16.86,7.47ZM258.55,201c.9,1.2,6.56,4.33,10.36,6a1.46,1.46,0,0,1,.72,2.41c-3.67,3.37-7,.9-10.84-.12-4.28-1.09-3,4.09-6.33,3.25.55-2.35,2-6.81.42-9.28q-1.08-1.62-15.41-28.73l9.51-1.92q9.77,25.92,11.57,28.37Z" transform="translate(0 -17.28)"/><path id="Coat-Back-2" data-name="Coat-Back" class="cls-24" d="M197.65,183.69c-7.29,4.46-25.29-3.37-33.73-12.59l2.83-6.44c9.28,3.37,17.11,5.9,22.65,3.31,5.84-2.71,9.4-23.37,18.19-32l4,.72C212,151.1,209.28,176.52,197.65,183.69Z" transform="translate(0 -17.28)"/><path id="Shirt-2-3" data-name="Shirt-2" class="cls-25" d="M216,134.18l-10.24,1.63c0,19.69-10.6,34.57-13.31,48.42-.24,1.21-.54,3.55,1.09,3.55h35.59C227.41,165,224.52,148,216,134.18Z" transform="translate(0 -17.28)"/><path id="Coat-Front-2-3" data-name="Coat-Front-2" class="cls-9" d="M237,197.66h-32q-6.24-15.81,7.65-63.48h4.1q34.5,21.49,41.74,66.67L251,202.36q-7.41-8.76-18.31-28.55A116.42,116.42,0,0,1,237,197.66Z" transform="translate(0 -17.28)"/></svg>