<svg id="Calque_1" data-name="Calque 1" xmlns="http://www.w3.org/2000/svg" xmlns:xlink="http://www.w3.org/1999/xlink" viewBox="0 0 500 500"><defs><style>.cls-1{fill:#48acbc;}.cls-2{fill-opacity:0.1;}.cls-3{fill:#afb9c5;}.cls-4{fill:#c5cfd6;}.cls-5{opacity:0.35;}.cls-6{fill:url(#Dégradé_MVA);}.cls-7{fill:url(#Dégradé_MVA-2);}.cls-8{fill:#61c1d1;}.cls-9{fill:#1491af;}.cls-10{opacity:0.7;}.cls-11{fill:#b28b67;}.cls-12{fill:#191847;}.cls-13{fill:#7db0b5;}.cls-14{fill:#4f391d;}.cls-15{fill:#895f34;}.cls-16{fill:#e4e4e4;}.cls-17{fill:#4d398e;}.cls-18{fill:#6b47c4;}.cls-19{fill-opacity:0.4;}.cls-20{fill:#93c7c9;}.cls-21{fill:#2f3676;}.cls-22{fill:#997659;}.cls-23{fill:#5c63ab;}.cls-24{fill:#115c68;}.cls-25{fill:#dde3e9;}</style><linearGradient id="Dégradé_MVA" x1="9.84" y1="256.63" x2="344.94" y2="256.63" gradientUnits="userSpaceOnUse"><stop offset="0" stop-color="#6b47c4"/><stop offset="0.5" stop-color="#9159ff"/><stop offset="1" stop-color="#1491af"/></linearGradient><linearGradient id="Dégradé_MVA-2" x1="182.7" y1="300.28" x2="490" y2="300.28" xlink:href="#Dégradé_MVA"/></defs><title>Favoriser</title><g id="Clock"><circle id="Clock-Frame" class="cls-1" cx="163.1" cy="98.7" r="37.9"/><circle id="Time" class="cls-2" cx="163.1" cy="68.7" r="2.1"/><circle class="cls-2" cx="133.1" cy="98.7" r="2.1"/><circle class="cls-2" cx="193.1" cy="98.7" r="2.1"/><circle class="cls-2" cx="163.1" cy="128.7" r="2.1"/><polygon id="Hand" class="cls-3" points="163.1 73 164.5 98 161.7 98 163.1 73"/><polygon class="cls-3" points="175.8 111.4 162.6 100.2 164.6 98.2 175.8 111.4"/><circle class="cls-4" cx="163.1" cy="98.7" r="2.9"/></g><g id="Background-Shape-2" class="cls-5"><path id="Background-Shape" class="cls-6" d="M344.8,281C339.9,226.4,77.9,121.1,29.2,172.8s-1.9,148.7,100,173.5S349.6,335.6,344.8,281Z"/><path class="cls-7" d="M182.8,316.5c4.4-46.4,239.1-135.8,282.6-91.9S497.9,360.9,406.6,382,178.4,362.8,182.8,316.5Z"/></g><g id="Light"><ellipse id="Hanging-Lamp-Light" class="cls-8" cx="287.5" cy="98.27" rx="26" ry="11.7"/><path id="Hanging-Lamp" class="cls-9" d="M317.8,106.37c0-14.4-13.6-26.1-30.3-26.1s-30.3,11.7-30.3,26.1"/></g><rect id="Wire" class="cls-9" x="286" y="0.5" width="3.1" height="83.5"/><g class="cls-10"><ellipse class="cls-8" cx="334.9" cy="74.1" rx="19.4" ry="9.5"/><path class="cls-9" d="M357.6,80.6c0-11.6-10.1-21.1-22.6-21.1s-22.6,9.4-22.6,21.1"/><rect class="cls-9" x="333.7" y="0.5" width="3.1" height="71"/></g><g id="Head"><path class="cls-11" d="M135.2,207.3c-3.7-5-6.1-11-5.3-17.6,2.4-18.8,28.2-13.1,32.7-3.2s2.5,34-4.2,35.3c-2.7.5-8.1-1.5-13.6-5.3l2,25.6-21-1.3Z"/></g><path id="Hair" class="cls-12" d="M147.4,192.9c.1,11.4,1.9,17.1,5.4,17.3,5.2.3,9.7-2.7,12-2.6,1.7.1,1.2,2.2,0,3.7-1,1.2-5.5,2.2-5.6,4.2s3.5.7,3.4,1.8c-.1,1.9.3,5.6-3.1,5.4s-13-2-14.4-7.2c-.9-3.3-1.2-10.2-.9-20.5-.2,0-.4-.1-.6-.1a5.34,5.34,0,0,0-5.6,5,5,5,0,0,0,1.4,3.9,66.46,66.46,0,0,1-4.5,5.2c-5.6-3.9-9.4-14.6-3-24.2a12.86,12.86,0,0,1,9.9-8.1,14.93,14.93,0,0,1,10-.1c5.9.9,11,3,12.4,4.2-.3,5.6-1.5,7.2-10.7,6.5C151.2,188.3,149.4,190.2,147.4,192.9Z"/><ellipse id="Ballsy-Ball" class="cls-13" cx="119.7" cy="398.5" rx="64.8" ry="62.5"/><path id="Skin" class="cls-11" d="M252.4,448.3c-9-55.5-16.4-92.3-20.7-103.5-2.8-7.4-24.2-6.5-21.7,8.3,1,6.2,5.1,22.9,10.5,41.9,3.1,11.1,10.9,32.1,21.7,56.2ZM120.2,385.8c3.8-.5,48-5.2,79.2-9.8,12.5-1.8,5.8-25.5-7.2-23-4.4.8-9,1.8-13.8,2.8-16.7,3.5-51.4,15.9-61.3,19.8C110.8,378.1,114.8,386.5,120.2,385.8Z"/><path id="Leg-Back" class="cls-14" d="M200.3,349.3c-.6,33.8,23.4,53.4,30.9,81.6l19.7-3c-2-5.2-8.2-74.9-18.4-89.1l-.1-.1v-.1q-1.65-5.7-79.4-25.6h-6.4v6l53.5,27.5A13.68,13.68,0,0,0,200.3,349.3Z"/><path id="Leg-Front" class="cls-15" d="M134.9,369.5l5,14.9c10.8-2.7,43,5.7,83.8-10.3a.68.68,0,0,0,.4-.6c7.6-5.1,11.8-24.8-1.6-30.2-20.2-8.2-59.2-23.7-66.7-25.8H109.9c-4.3,27.6,3,40.2,27.9,44.4,3.9.6,8.4,1.5,13.3,2.4Z"/><path id="shoe" class="cls-16" d="M120.54,373.11a1.69,1.69,0,0,1,1.68,1.63h0a14.19,14.19,0,0,0,.93,5.33,15.26,15.26,0,0,0,4.16,4.65l3.67-.23h0a.83.83,0,0,1,.84.81l.79,24.43c.52,1.75,1.21,3.86,2.13,6.41s-.76,4.16-5,4.88c-13.1-27.1-20-41.53-20.82-43.14a43.09,43.09,0,0,1,5.67-3.66,18.7,18.7,0,0,1,5.65-1.2Z"/><path class="cls-11" d="M191.1,310.9,217.7,322c7.5,8.9,11.7,12.6,12.6,11.2,1.3-2.2-1.6-4.2-.9-5.8s5.7-1.5,10.5-1.1,3.4-1.8,2.2-2.8a71.09,71.09,0,0,0-18.3-7.4l-26.8-20ZM52.4,341.2c-1.6,2.2-11.7,8.1-18.5,11.2-2.7,1.3-2.1,3.6-1.3,4.4,6.7,6,12.6,1.4,19.7-.5,7.7-2.1,5.5,7.3,11.6,5.7-1-4.2-3.8-12.3-1.1-16.7q1.8-3,27.6-54.7l-14.8-2.7Q55.65,336.65,52.4,341.2Z"/><path id="Back-Arm" class="cls-17" d="M148.5,225.4l-9,3.7c.4,9.8-1,36.9,3.1,44.8,12.2,23.7,39,34.5,67.5,48.9l6.8-14c-.8-.6-1.6-1.1-2.3-1.7a3.47,3.47,0,0,0,2.3-2.4,3.87,3.87,0,0,0-2.4-4.9,27.11,27.11,0,0,0-11.2-1.7C178,276.7,161.1,251.6,148.5,225.4Z"/><path id="Shirt" class="cls-12" d="M135.7,225.7c6.2.9,10.6.7,13.1-.6,0,24.2,8.9,49.8,22.5,84.7.9,2.2,1,10.4-.9,10.8q-22.8,4.35-62.5,0C111.2,279.3,118.9,250.7,135.7,225.7Z"/><path id="Coat-Front" class="cls-18" d="M65.7,415.9c34.7-14,70.4,3.5,95.4-2.1,13.5-70.2-25.4-152.5-22.6-190.2H129Q79.35,254.35,57.5,321a15.54,15.54,0,0,0-5.1,1.8c-1.5.8.6,5.6,2.4,6.7-.6,2.2-1.3,4.5-1.9,6.7l15.9,4.7c10.7-28.6,22.9-48.8,36.4-60.5-.1,10.2,2.8,20.7,1.1,31.3-.2,1.3-.4,2.5-.7,3.8a3.82,3.82,0,0,0-3.3,3.1l-.4,2.5a4.06,4.06,0,0,0,1.1,3.5C92.9,354.4,67,387.6,65.7,415.9Z"/><polygon id="Shade-Lapel" class="cls-2" points="124.6 239.2 132.4 248.1 124.6 256.1 148 289.1 128.9 256.1 136.8 248.1 128 238 132.4 224.5 124.6 239.2"/><path id="Buttons" class="cls-19" d="M145.8,298.5a3.4,3.4,0,1,0-3.4,3.4A3.37,3.37,0,0,0,145.8,298.5Zm4.2,19.6a3.4,3.4,0,1,0-3.4,3.4A3.37,3.37,0,0,0,150,318.1Zm.8,19.5a3.4,3.4,0,1,0-3.4,3.4A3.37,3.37,0,0,0,150.8,337.6Z"/><path class="cls-20" d="M239.4,449.2a1.39,1.39,0,0,1,1.9-.7h0a11.27,11.27,0,0,0,4.4,1.3,12.7,12.7,0,0,0,5.1-1.5l1.2-3h0a.74.74,0,0,1,.9-.4l18.9,8.5c1.5.2,3.4.5,5.7.8s2.9,2.2,1.8,5.7H238.7a39.23,39.23,0,0,1-.6-5.7,15.11,15.11,0,0,1,1.3-5C239.3,449.3,239.3,449.2,239.4,449.2Z"/><g id="Head-2" data-name="Head"><path class="cls-11" d="M371.7,201.7H353.2l3.1-22.4c-5,3-9.9,4.5-12.2,3.9-5.8-1.5-6.3-22.9-1.8-31.3s27.5-12.1,28.6,4.6c.4,5.8-2,11-5.6,15.2Z"/></g><path id="hair-2" data-name="hair" class="cls-12" d="M342.2,147.8c-1,2.3-.4,5.1,3.8,4.8,4.3,5.2,10.4,8.7,11.2,8.7.1,0,2.8-3.8,5.4-2.2,3,1.8,2.5,5.2.8,7.8-.9,1.4-2.2,3.5,0,5,3.4,2.5,12.2-3.1,13.7-7.8,2.7-8.8-1.1-20.9-10.7-22.6.6-1.7,2.9-2.3,4.5-2.7,3.8-.8,7.8,0,11.5.8,4.6,1,9.2,2.5,13.9,2.5a19.39,19.39,0,0,0,7.1-1.3,30.21,30.21,0,0,0,6.3-3.6c2-1.3,4.1-1,6.2-.4a31.85,31.85,0,0,1,6.4,2.6c4.4,2.3,8.4,5.1,13.1,6.8a36.24,36.24,0,0,0,10.9,2c6.4.1,14.1-1.3,18.3-6.7,2.9-3.8,2.9-8.5,1.1-12.7-1.6-4-4.5-6.8-8-9.1a25.5,25.5,0,0,0-12.3-4.7c-4.8-.4-9.5,1.3-13.5,3.8s-7.5,5-12.3,5.8a30.62,30.62,0,0,1-13.8-1.3c-4.7-1.6-9.2-3.2-14.2-3.6a28.88,28.88,0,0,0-13.9,1.9,19.3,19.3,0,0,0-9.1,8.3,28.54,28.54,0,0,0-2.5,6.3,20.48,20.48,0,0,0-.5,2.4,5.87,5.87,0,0,1-.4,2.3c-.5.7-1.3.5-2.1.5-1.2,0-7.8.3-10.2.7C349.4,142.6,343.2,145.5,342.2,147.8Z"/><path id="Leg" class="cls-11" d="M356.7,267.4Q308,345.7,306.4,359q-1,9.3,42,92.7l6.2-4.4c-20.1-53.1-30.2-80-30-80.9.3-2,68.6-78.4,67.8-102.3Z"/><path id="Pant" class="cls-21" d="M340.2,394.4c-3-9.5-6.1-18.9-9.1-28.2a151.66,151.66,0,0,0,46.1-103.6L337,272.8a326.07,326.07,0,0,0-20.1,36.7c-9.4,20.1-14.1,30.4-14.2,43.4-.2,12.1,3.8,21.6,11.7,40.2a314.88,314.88,0,0,0,24.4,46.1c4.9-.7,9.7-1.3,14.6-2C349.2,423.2,344.8,408.9,340.2,394.4Z"/><path id="shoe-2" data-name="shoe" class="cls-20" d="M357.54,448.2a1.58,1.58,0,0,0-2.07-.76h0a9.13,9.13,0,0,1-10.09-.05l-1.31-3.14h0a.78.78,0,0,0-1-.37l-20,9.32c-1.59.27-3.59.5-6,.91s-3.1,2.39-1.91,6.12c27.12-.24,41.42-.35,43-.41a36.25,36.25,0,0,0,.64-6.15,13.84,13.84,0,0,0-1.3-5.47Z"/><polygon class="cls-22" points="348 260.3 426.4 450.7 435.6 451.8 406.8 365.5 379.1 264.2 348 260.3"/><path class="cls-20" d="M436.2,447a1.53,1.53,0,0,0-2.1-.7h0a11.71,11.71,0,0,1-4.7,1.5,14.24,14.24,0,0,1-5.5-1.5l-1.4-3.2h0a.73.73,0,0,0-1-.4l-20,9.6c-1.6.3-3.6.6-6.1,1s-3,2.4-1.8,6.2c27.4-.7,41.9-1,43.5-1a46.22,46.22,0,0,0,.6-6.2,16.15,16.15,0,0,0-1.4-5.2A.1.1,0,0,1,436.2,447Z"/><path class="cls-23" d="M391.8,264.5l-44.9-5.7c1.4,46.8,54.3,153.8,66.9,179.9l20.7-1.4C422.7,410.9,411.5,300.8,391.8,264.5Z"/><path id="Skin-2" data-name="Skin" class="cls-11" d="M297.9,256.6l-21-16.2c-10.5-1.9-15.3-3.6-14.6-5,1.1-2.1,4-.7,5-2s-1.5-5.3-3.9-8.9-.2-3.5,1.2-3.1a64.9,64.9,0,0,1,14.2,11.3l28,12.4Zm141.2,38.9c1.5,2,10.9,7.2,17.2,10,2.5,1.1,2,3.3,1.2,4-6.1,5.6-11.6,1.5-18-.2-7.1-1.8-4.9,6.8-10.5,5.4.9-3.9,3.3-11.3.7-15.4q-1.8-2.7-25.6-47.7l15.8-3.2Q436.1,291.45,439.1,295.5Z"/><path id="Coat-Back" class="cls-24" d="M338,266.7c-12.1,7.4-42-5.6-56-20.9l4.7-10.7c15.4,5.6,28.4,9.8,37.6,5.5,9.7-4.5,15.6-38.8,30.2-53.1l6.7,1.2C361.8,212.6,357.3,254.8,338,266.7Z"/><path id="Shirt-2" data-name="Shirt" class="cls-25" d="M368.5,184.5l-17,2.7c0,32.7-17.6,57.4-22.1,80.4-.4,2-.9,5.9,1.8,5.9h59.1C387.4,235.6,382.6,207.4,368.5,184.5Z"/><path id="Coat-Front-2" data-name="Coat-Front" class="cls-9" d="M403.3,289.9H350.1q-10.35-26.25,12.7-105.4h6.8q57.3,35.7,69.3,110.7l-12.4,2.5q-12.3-14.55-30.4-47.4A193.37,193.37,0,0,1,403.3,289.9Z"/></svg>