<svg id="Calque_1" data-name="Calque 1" xmlns="http://www.w3.org/2000/svg" xmlns:xlink="http://www.w3.org/1999/xlink" viewBox="0 0 299 194.68"><defs><style>.cls-1{fill:none;}.cls-2{fill:#b8afd3;stroke:#fff;stroke-miterlimit:10;stroke-width:4.92px;}.cls-3{fill:#cbd9e8;}.cls-4{fill:#bbdaf4;opacity:0.58;}.cls-10,.cls-13,.cls-15,.cls-16,.cls-21,.cls-30,.cls-4,.cls-46,.cls-50,.cls-56,.cls-58,.cls-64,.cls-65,.cls-68,.cls-7,.cls-77,.cls-80,.cls-86,.cls-87,.cls-9{isolation:isolate;}.cls-5{clip-path:url(#clip-path);}.cls-6{fill:#fff;}.cls-7{fill:#056f59;opacity:0.12;}.cls-16,.cls-8{fill:#6a5ba4;}.cls-45,.cls-9{fill:#5b4d9b;}.cls-50,.cls-9{opacity:0.37;}.cls-10{opacity:0.15;fill:url(#Dégradé_sans_nom_3);}.cls-11{fill:url(#Dégradé_sans_nom_2);}.cls-12{fill:#1d182d;}.cls-13{fill:#513327;opacity:0.22;}.cls-14{fill:#5d576d;}.cls-15,.cls-17{fill:#4a494d;}.cls-15,.cls-16{opacity:0.53;}.cls-18{fill:url(#Dégradé_sans_nom_60);}.cls-19{fill:url(#Dégradé_sans_nom_59);}.cls-20{fill:#3b358c;}.cls-21{fill:#db5742;}.cls-21,.cls-80{opacity:0.55;}.cls-22{fill:url(#Dégradé_sans_nom_59-2);}.cls-23{fill:url(#Dégradé_sans_nom_6);}.cls-24{fill:url(#Dégradé_sans_nom_52);}.cls-25{fill:url(#Dégradé_sans_nom_60-2);}.cls-26{fill:url(#Dégradé_sans_nom_59-3);}.cls-27{fill:url(#Dégradé_sans_nom_60-3);}.cls-28{fill:url(#Dégradé_sans_nom_60-4);}.cls-29,.cls-30{opacity:0.45;}.cls-30{fill:url(#Dégradé_sans_nom_59-4);}.cls-31{fill:url(#Dégradé_sans_nom_59-5);}.cls-32{fill:url(#Dégradé_sans_nom_60-5);}.cls-33{fill:#010101;}.cls-34{fill:#eeeded;}.cls-35{fill:#ef7a57;}.cls-36{fill:url(#Dégradé_sans_nom_60-6);}.cls-37{fill:url(#Dégradé_sans_nom_16);}.cls-38{fill:url(#Dégradé_sans_nom_60-7);}.cls-39{fill:#060811;}.cls-40{fill:url(#Dégradé_sans_nom_59-6);}.cls-41{fill:url(#Dégradé_sans_nom_59-7);}.cls-42{fill:url(#Dégradé_sans_nom_60-8);}.cls-43{fill:url(#Dégradé_sans_nom_59-8);}.cls-44{fill:url(#Dégradé_sans_nom_59-9);}.cls-46{opacity:0.38;fill:url(#Dégradé_sans_nom_59-10);}.cls-47{fill:url(#Dégradé_sans_nom_60-9);}.cls-48{fill:#b35245;}.cls-49{fill:url(#Dégradé_sans_nom_60-10);}.cls-50{fill:url(#Dégradé_sans_nom_52-2);}.cls-51{fill:url(#Dégradé_sans_nom_59-11);}.cls-52{fill:url(#Dégradé_sans_nom_59-12);}.cls-53{fill:url(#Dégradé_sans_nom_29);}.cls-54{fill:url(#Dégradé_sans_nom_60-11);}.cls-55,.cls-56,.cls-68,.cls-77{opacity:0.36;}.cls-56{fill:url(#Dégradé_sans_nom_59-13);}.cls-57,.cls-58{fill:url(#Dégradé_sans_nom_60-12);}.cls-58,.cls-65{opacity:0.24;}.cls-59{fill:#fffae4;}.cls-60{fill:url(#Dégradé_sans_nom_60-14);}.cls-61{fill:#3c1b0f;}.cls-62{fill:url(#Dégradé_sans_nom_59-14);}.cls-63,.cls-64{opacity:0.2;}.cls-64,.cls-65{fill:url(#Dégradé_sans_nom_52-3);}.cls-66{fill:url(#Dégradé_sans_nom_59-15);}.cls-67{fill:url(#Dégradé_sans_nom_59-16);}.cls-68{fill:url(#Dégradé_sans_nom_59-17);}.cls-69{fill:url(#Dégradé_sans_nom_60-15);}.cls-70{fill:url(#Dégradé_sans_nom_52-5);}.cls-71{fill:url(#Dégradé_sans_nom_60-16);}.cls-72{fill:url(#Dégradé_sans_nom_59-18);}.cls-73{fill:url(#Dégradé_sans_nom_60-18);}.cls-74{fill:url(#Dégradé_sans_nom_59-19);}.cls-75{fill:url(#Dégradé_sans_nom_60-19);}.cls-76{fill:url(#Dégradé_sans_nom_60-20);}.cls-77{fill:url(#Dégradé_sans_nom_59-20);}.cls-78{fill:url(#Dégradé_sans_nom_60-21);}.cls-79{fill:url(#Dégradé_sans_nom_52-6);}.cls-80{fill:url(#Dégradé_sans_nom_53);}.cls-81{fill:url(#Dégradé_sans_nom_60-22);}.cls-82{fill:url(#Dégradé_sans_nom_60-23);}.cls-83{fill:url(#Dégradé_sans_nom_59-21);}.cls-84{fill:url(#Dégradé_sans_nom_60-24);}.cls-85,.cls-86,.cls-87{opacity:0.41;}.cls-86{fill:url(#Dégradé_sans_nom_59-22);}.cls-87{fill:url(#Dégradé_sans_nom_59-23);}.cls-88{fill:url(#Dégradé_sans_nom_60-25);}</style><clipPath id="clip-path" transform="translate(0 -147.76)"><path class="cls-1" d="M272.51,300.79c24.79-.39,35.95-31.16,16.82-45.31a3.36,3.36,0,0,1-.83-.61c-13.87-17.2,6.09-28.88,3.73-58.34-3.56-44.71-45.78-53.78-74.9-30.55-53.23,42.44-78.67-40-130.53-12.44-27.67,14.76-10.85,56.35-38,54-66.36-5.67-63.09,94.09-1.9,92.49Z"/></clipPath><linearGradient id="Dégradé_sans_nom_3" x1="-349.04" y1="604.35" x2="-320.16" y2="604.35" gradientTransform="matrix(1, 0, 0, -1, 534.41, 887.42)" gradientUnits="userSpaceOnUse"><stop offset="0" stop-color="#e9474d"/><stop offset="1" stop-color="#ed7b64"/></linearGradient><linearGradient id="Dégradé_sans_nom_2" x1="-401.32" y1="600.15" x2="-360.15" y2="614.83" gradientTransform="matrix(1, 0, 0, -1, 534.41, 887.42)" gradientUnits="userSpaceOnUse"><stop offset="0" stop-color="#5b4d9b"/><stop offset="0.75" stop-color="#292a60"/></linearGradient><linearGradient id="Dégradé_sans_nom_60" x1="1146.95" y1="605.7" x2="1157.23" y2="605.7" gradientTransform="matrix(1, 0, 0, -1, 534.41, 887.42)" gradientUnits="userSpaceOnUse"><stop offset="0" stop-color="#ed7b64"/><stop offset="0.59" stop-color="#f18a66"/></linearGradient><linearGradient id="Dégradé_sans_nom_59" x1="-461.76" y1="692.78" x2="-458.37" y2="692.78" gradientTransform="matrix(1, 0, 0, -1, 534.41, 887.42)" gradientUnits="userSpaceOnUse"><stop offset="0" stop-color="#20325c"/><stop offset="1" stop-color="#0a3e62"/></linearGradient><linearGradient id="Dégradé_sans_nom_59-2" x1="-473.88" y1="717.17" x2="-472.48" y2="686.36" xlink:href="#Dégradé_sans_nom_59"/><linearGradient id="Dégradé_sans_nom_6" x1="-465.88" y1="676.49" x2="-464.78" y2="693.22" gradientTransform="matrix(1, 0, 0, -1, 534.41, 887.42)" gradientUnits="userSpaceOnUse"><stop offset="0" stop-color="#ed7b64"/><stop offset="1" stop-color="#f18a66"/></linearGradient><linearGradient id="Dégradé_sans_nom_52" x1="-466.38" y1="697.58" x2="-458.87" y2="680.68" gradientTransform="matrix(1, 0, 0, -1, 534.41, 887.42)" gradientUnits="userSpaceOnUse"><stop offset="0" stop-color="#ed7b64"/><stop offset="1" stop-color="#f18a66" stop-opacity="0"/></linearGradient><linearGradient id="Dégradé_sans_nom_60-2" x1="-470.73" y1="686.02" x2="-469.63" y2="714.75" xlink:href="#Dégradé_sans_nom_60"/><linearGradient id="Dégradé_sans_nom_59-3" x1="-470.34" y1="725.24" x2="-466.88" y2="686.11" xlink:href="#Dégradé_sans_nom_59"/><linearGradient id="Dégradé_sans_nom_60-3" x1="-461.35" y1="685.82" x2="-460.2" y2="714.53" xlink:href="#Dégradé_sans_nom_60"/><linearGradient id="Dégradé_sans_nom_60-4" x1="-462.74" y1="612.36" x2="-450.63" y2="612.36" xlink:href="#Dégradé_sans_nom_60"/><linearGradient id="Dégradé_sans_nom_59-4" x1="-466.55" y1="725.42" x2="-459.18" y2="687.07" xlink:href="#Dégradé_sans_nom_59"/><linearGradient id="Dégradé_sans_nom_59-5" x1="-281.74" y1="699.69" x2="-279.43" y2="719.82" xlink:href="#Dégradé_sans_nom_59"/><linearGradient id="Dégradé_sans_nom_60-5" x1="-301.27" y1="687.55" x2="-277.68" y2="687.55" xlink:href="#Dégradé_sans_nom_60"/><linearGradient id="Dégradé_sans_nom_60-6" x1="-298.14" y1="702.43" x2="-276.35" y2="702.43" xlink:href="#Dégradé_sans_nom_60"/><linearGradient id="Dégradé_sans_nom_16" x1="-304.7" y1="645.23" x2="-305.36" y2="580.64" gradientTransform="matrix(1, 0, 0, -1, 534.41, 887.42)" gradientUnits="userSpaceOnUse"><stop offset="0" stop-color="#4a494d"/><stop offset="1" stop-color="#059eda"/></linearGradient><linearGradient id="Dégradé_sans_nom_60-7" x1="-302.99" y1="618.25" x2="-283.02" y2="618.25" xlink:href="#Dégradé_sans_nom_60"/><linearGradient id="Dégradé_sans_nom_59-6" x1="-286.16" y1="699.8" x2="-286.06" y2="720.1" xlink:href="#Dégradé_sans_nom_59"/><linearGradient id="Dégradé_sans_nom_59-7" x1="-296.81" y1="700.19" x2="-294.79" y2="720.37" xlink:href="#Dégradé_sans_nom_59"/><linearGradient id="Dégradé_sans_nom_60-8" x1="-299.15" y1="703.31" x2="-293.85" y2="703.31" xlink:href="#Dégradé_sans_nom_60"/><linearGradient id="Dégradé_sans_nom_59-8" x1="-403.83" y1="689.23" x2="-378.02" y2="712.54" xlink:href="#Dégradé_sans_nom_59"/><linearGradient id="Dégradé_sans_nom_59-9" x1="-388.3" y1="686.03" x2="-362.9" y2="711.05" xlink:href="#Dégradé_sans_nom_59"/><linearGradient id="Dégradé_sans_nom_59-10" x1="-403.96" y1="695.74" x2="-368.63" y2="695.74" xlink:href="#Dégradé_sans_nom_59"/><linearGradient id="Dégradé_sans_nom_60-9" x1="-388.82" y1="681.48" x2="-387.92" y2="694.59" xlink:href="#Dégradé_sans_nom_60"/><linearGradient id="Dégradé_sans_nom_60-10" x1="-390.87" y1="689.47" x2="-387.78" y2="711.58" xlink:href="#Dégradé_sans_nom_60"/><linearGradient id="Dégradé_sans_nom_52-2" x1="-387.43" y1="706.79" x2="-379.12" y2="693.61" xlink:href="#Dégradé_sans_nom_52"/><linearGradient id="Dégradé_sans_nom_59-11" x1="-399.16" y1="685.21" x2="-387.8" y2="723.82" xlink:href="#Dégradé_sans_nom_59"/><linearGradient id="Dégradé_sans_nom_59-12" x1="-399.49" y1="691.43" x2="-374.43" y2="717.48" xlink:href="#Dégradé_sans_nom_59"/><linearGradient id="Dégradé_sans_nom_29" x1="-386.08" y1="618.16" x2="-376.63" y2="567.01" gradientTransform="matrix(1, 0, 0, -1, 534.41, 887.42)" gradientUnits="userSpaceOnUse"><stop offset="0" stop-color="#f8ac41"/><stop offset="0.75" stop-color="#fed88a"/></linearGradient><linearGradient id="Dégradé_sans_nom_60-11" x1="-401.93" y1="690.49" x2="-397.06" y2="712.06" xlink:href="#Dégradé_sans_nom_60"/><linearGradient id="Dégradé_sans_nom_59-13" x1="-303.8" y1="705.42" x2="-286.18" y2="705.42" xlink:href="#Dégradé_sans_nom_59"/><linearGradient id="Dégradé_sans_nom_60-12" x1="-381.43" y1="689.05" x2="-376.52" y2="710.63" xlink:href="#Dégradé_sans_nom_60"/><linearGradient id="Dégradé_sans_nom_60-14" x1="-389.13" y1="701.74" x2="-386.28" y2="701.74" xlink:href="#Dégradé_sans_nom_60"/><linearGradient id="Dégradé_sans_nom_59-14" x1="-391.53" y1="695.38" x2="-383.87" y2="695.38" xlink:href="#Dégradé_sans_nom_59"/><linearGradient id="Dégradé_sans_nom_52-3" x1="-377.79" y1="709.7" x2="-377.79" y2="696.61" xlink:href="#Dégradé_sans_nom_52"/><linearGradient id="Dégradé_sans_nom_59-15" x1="-334.88" y1="659.19" x2="-337.62" y2="710.69" xlink:href="#Dégradé_sans_nom_59"/><linearGradient id="Dégradé_sans_nom_59-16" x1="-322.89" y1="660.16" x2="-327.05" y2="711.61" xlink:href="#Dégradé_sans_nom_59"/><linearGradient id="Dégradé_sans_nom_59-17" x1="-337.56" y1="676.56" x2="-311.6" y2="676.56" xlink:href="#Dégradé_sans_nom_59"/><linearGradient id="Dégradé_sans_nom_60-15" x1="-328.9" y1="673.91" x2="-328.9" y2="687.86" xlink:href="#Dégradé_sans_nom_60"/><linearGradient id="Dégradé_sans_nom_52-5" x1="-329.13" y1="687.46" x2="-334.37" y2="674.59" xlink:href="#Dégradé_sans_nom_52"/><linearGradient id="Dégradé_sans_nom_60-16" x1="-337.93" y1="682.92" x2="-329.35" y2="705.42" xlink:href="#Dégradé_sans_nom_60"/><linearGradient id="Dégradé_sans_nom_59-18" x1="-323.77" y1="660.15" x2="-326.43" y2="711.65" xlink:href="#Dégradé_sans_nom_59"/><linearGradient id="Dégradé_sans_nom_60-18" x1="-307.56" y1="606.37" x2="-297.28" y2="606.37" xlink:href="#Dégradé_sans_nom_60"/><linearGradient id="Dégradé_sans_nom_59-19" x1="-310.5" y1="663.15" x2="-329.22" y2="708.67" xlink:href="#Dégradé_sans_nom_59"/><linearGradient id="Dégradé_sans_nom_60-19" x1="-328.81" y1="695.52" x2="-324.12" y2="695.52" xlink:href="#Dégradé_sans_nom_60"/><linearGradient id="Dégradé_sans_nom_60-20" x1="-332.7" y1="682.09" x2="-322.38" y2="703.52" xlink:href="#Dégradé_sans_nom_60"/><linearGradient id="Dégradé_sans_nom_59-20" x1="-326" y1="679.66" x2="-306.13" y2="679.66" xlink:href="#Dégradé_sans_nom_59"/><linearGradient id="Dégradé_sans_nom_60-21" x1="-432.18" y1="674.95" x2="-421.78" y2="682.18" xlink:href="#Dégradé_sans_nom_60"/><linearGradient id="Dégradé_sans_nom_52-6" x1="-425.36" y1="687.9" x2="-428.34" y2="673.49" xlink:href="#Dégradé_sans_nom_52"/><linearGradient id="Dégradé_sans_nom_53" x1="-458.44" y1="634.18" x2="-433.7" y2="634.18" gradientTransform="matrix(1, 0, 0, -1, 534.41, 887.42)" gradientUnits="userSpaceOnUse"><stop offset="0" stop-color="#2e67b0"/><stop offset="1" stop-color="#059eda"/></linearGradient><linearGradient id="Dégradé_sans_nom_60-22" x1="-445.36" y1="607.87" x2="-428.79" y2="607.87" xlink:href="#Dégradé_sans_nom_60"/><linearGradient id="Dégradé_sans_nom_60-23" x1="-427.19" y1="680.73" x2="-415.49" y2="701.48" xlink:href="#Dégradé_sans_nom_60"/><linearGradient id="Dégradé_sans_nom_59-21" x1="-442.72" y1="698.04" x2="-409.04" y2="698.04" xlink:href="#Dégradé_sans_nom_59"/><linearGradient id="Dégradé_sans_nom_60-24" x1="-431.91" y1="696.44" x2="-426.5" y2="696.44" xlink:href="#Dégradé_sans_nom_60"/><linearGradient id="Dégradé_sans_nom_59-22" x1="-421.11" y1="712.3" x2="-418" y2="712.3" xlink:href="#Dégradé_sans_nom_59"/><linearGradient id="Dégradé_sans_nom_59-23" x1="-442.72" y1="698.05" x2="-425.66" y2="698.05" xlink:href="#Dégradé_sans_nom_59"/><linearGradient id="Dégradé_sans_nom_60-25" x1="-334.93" y1="606.46" x2="-322.79" y2="606.46" xlink:href="#Dégradé_sans_nom_60"/></defs><title>gens-nuage</title><path class="cls-2" d="M11.2,212.29c-6.79-31.51,23.15-58.13,49.19-40.37,21.21,14.47,27.15,34.43,49.43,24.1s13.32-46,52.76-44.11c35.35,1.69,33.12,48.91,57.56,44.89C279.83,187,27.92,290.37,11.2,212.29Z" transform="translate(0 -147.76)"/><path class="cls-3" d="M272.51,300.79c24.79-.39,35.95-31.16,16.82-45.31a3.36,3.36,0,0,1-.83-.61c-13.87-17.2,6.09-28.88,3.73-58.34-3.56-44.71-45.78-53.78-74.9-30.55-53.23,42.44-78.67-40-130.53-12.44-27.67,14.76-10.85,56.35-38,54-66.36-5.67-63.09,94.09-1.9,92.49Z" transform="translate(0 -147.76)"/><path class="cls-4" d="M250.7,299.44c21.2-.29,30.73-22.59,14.36-33.59-.23-.16-.46-.32-.71-.47-20-12.86,1-22.48,3.17-45.36,3-30.93-32.13-57.15-64-23.77-17.06,17.88-22,38-43.73,29.68s-41-29.72-68.56-22.39c-32.3,8.59-3.46,35.23-26.69,33.42-56.78-4.43-59,64.66-6.71,63.46Z" transform="translate(0 -147.76)"/><g class="cls-5"><path class="cls-6" d="M269.17,304.15h-18l-3.81-18.21-3.17,18.21H222.06c-1.4-6.79-3-15.84-3.25-22.91a23,23,0,0,1,5.44-15.41h39.57a113.09,113.09,0,0,1,5.35,36.75Z" transform="translate(0 -147.76)"/><path class="cls-7" d="M224.25,265.83h9.54a23,23,0,0,0-5.28,13.59,182.26,182.26,0,0,0,1.56,25.11l-8-.38c-1.4-6.79-3-15.84-3.25-22.91A22.9,22.9,0,0,1,224.25,265.83Z" transform="translate(0 -147.76)"/><path class="cls-7" d="M239.23,304.15l9.22.37-13-18.55Z" transform="translate(0 -147.76)"/><path class="cls-8" d="M211.39,303.74c1.39-12.79,2.51-28.24,2.51-28.24l-8.21-7.86s-10.56-15.48-17.9-6.57c-5.92,7.18-.61,31,1.25,42.69Z" transform="translate(0 -147.76)"/><path class="cls-9" d="M217.47,303.74C218.86,291,220,275.5,220,275.5l-8.2-7.86s-10.56-15.49-17.9-6.58c-5.92,7.18-.61,31,1.24,42.7Z" transform="translate(0 -147.76)"/><path class="cls-8" d="M226.93,303.74c-3.9-12.82-11.54-33.59-11.54-33.59l-10.72-3.81s-16-9.75-19,1.39c-2.24,8.31,10.15,25.6,17.15,36Z" transform="translate(0 -147.76)"/><path class="cls-10" d="M214.25,303.74c-5.64-11.19-16-30.1-14.52-39.77-5-1.94-12.18-3.33-14.09,3.77-2.25,8.31,10.14,25.59,17.14,36Z" transform="translate(0 -147.76)"/><path class="cls-11" d="M170.79,272.7A70.29,70.29,0,0,0,165.25,248l-19.6,6.7.26,3.33-5.77-3.31-11.93.93L126.15,269l1.29,38.55h42.12S171.48,287.14,170.79,272.7Z" transform="translate(0 -147.76)"/><path class="cls-12" d="M69.86,281,53.69,316.83,56.33,336a18.17,18.17,0,0,1,.13,3.9L33,319.47,44,260l7.44-4.54,14.3,1.08Z" transform="translate(0 -147.76)"/><path class="cls-13" d="M56.46,339.84a19,19,0,0,0-.13-3.91l-2.64-19.1L66,289.53l-6.5-9.22L45.1,316.88s3.61,17.62,4.76,23.34C51,345.43,56.46,339.84,56.46,339.84Z" transform="translate(0 -147.76)"/><path class="cls-12" d="M80.53,253.47s6.09,17.26,6.47,23.29c.81,12-6.47,47.53-6.47,47.53l-20.45,2.27-.56-49.16,1.93-20.06Z" transform="translate(0 -147.76)"/><path class="cls-13" d="M77.73,294.65c-1.22,13.91-3.6,29.11-3.6,29.11l6.4.54s7.28-35.57,6.47-47.54c-.41-6-6.47-23.28-6.47-23.28l-9.61,1.94c2,4.8,6.5,15.85,7.16,20.45.61,4.16.27,11.27-.38,18.78" transform="translate(0 -147.76)"/><path class="cls-14" d="M73,319.35c10.09-6,7.59-10.61,7.59-16.65s-2.38-27.37-1.34-30.63c2.08-6.5,22.8-10.62,22.8-10.62l3.58,41.24L103,312.76S62.92,325.3,73,319.35Z" transform="translate(0 -147.76)"/><path class="cls-15" d="M73.29,320.12c9.62-6.7,7.6-10.6,7.6-16.64s-2.38-27.37-1.34-30.63c2.07-6.51,22.8-10.63,22.8-10.63l3.59,41.25-2.68,10.07S62.22,327.85,73.29,320.12Z" transform="translate(0 -147.76)"/><path class="cls-16" d="M105.35,295.44,84.47,273.36s9.1,36.35,8.46,41c-.7,5,10-4.79,10-4.79Z" transform="translate(0 -147.76)"/><path class="cls-17" d="M101.1,270.73l10.33,3.66s12.8,34.65,13.22,40.91S101,347.46,101.1,331.1c.06-8.29,3.84-12.14,2.52-17.07s-23.77-31.25-20.85-42S101.1,270.73,101.1,270.73Z" transform="translate(0 -147.76)"/><path class="cls-15" d="M107.49,325.86c.6-6.5,4.26-9.14,3.35-11.14s-17.29-47.21-17.29-47.21c-4.36-1.15-9.28-1-10.79,4.56-2.91,10.74,19.55,37.07,20.86,42s-2.47,8.75-2.53,17.06C101,347.46,106.91,332.23,107.49,325.86Z" transform="translate(0 -147.76)"/></g><path class="cls-18" d="M38.18,271.89s-4.44,4.52-5.4,6.73-.77,7.51-.77,7.51,3.31,5.6,4.88,5.41c.36-.05.86,0,.69-1.49s-2.31-3.47-2.31-4.88,2.27-4.66,2.27-4.66,1.7.58,1.47,4.27c-.13,2.24,2.3,1.12,2.6-.56s.67-8.05.67-8.05Z" transform="translate(0 -147.76)"/><path class="cls-19" d="M75.75,190.62s-2.29,4.48.29,8a3.75,3.75,0,0,1-3.33-2.6C72.14,194.24,75.75,190.62,75.75,190.62Z" transform="translate(0 -147.76)"/><path class="cls-20" d="M56.2,214.58l3.12-9.75c-9.47,0-16.07,4.79-20.11,32.72-.5,3.47-4.1,36.32-4.1,36.32l10.1,6s0-19.87,4.68-28.82c2.3-4.45-3.62-19.69,0-27.09S56.2,214.58,56.2,214.58Z" transform="translate(0 -147.76)"/><path class="cls-21" d="M49.9,224l-4.68,55.46-7-4.19Z" transform="translate(0 -147.76)"/><path class="cls-22" d="M68.08,174.37s-13.37,1.36-14.36,5.82c0,0-1.74-6.66,5.87-9.86C65.52,167.85,68.08,174.37,68.08,174.37Z" transform="translate(0 -147.76)"/><path class="cls-23" d="M74.5,183.58s-.94,13.56-.58,15.72c.58,3.39.49,7.55,3.28,7.31s-4.37,4.54-4.37,4.54l-12.41,1.22-.61-6.48a15.16,15.16,0,0,1,.61-3.6c.61-2.53.93-11.31.93-11.31l8.08-5.7" transform="translate(0 -147.76)"/><path class="cls-24" d="M79.51,206.63c-5,1.54-5-3.94-5.59-7.32-.37-2.17.57-15.72.57-15.72l-5,1.68L61.34,191s3.21,7.43,2.68,10.66c5,3,7.77,7.67,15,5.65C80,206.58,80.41,206.33,79.51,206.63Z" transform="translate(0 -147.76)"/><path class="cls-20" d="M74.58,204.11a28,28,0,0,1,12.85,3.78c3.76,2.28,4.12,4.52,3.69,7.22l-5.88,58.64s-3-.22-14.63-.61C45.45,272.27,42.28,270,42.28,270l4.47-48.21c.12-8.24,3.17-15.68,11.32-17h1.62a4.09,4.09,0,0,0,2.77,3.34C65.73,209.56,70.72,210.34,74.58,204.11Z" transform="translate(0 -147.76)"/><path class="cls-21" d="M84.87,257.52l2.95-12L72.25,272.9l2.23.4Z" transform="translate(0 -147.76)"/><path class="cls-25" d="M53.82,188.54a3.49,3.49,0,0,1,0,.65c-.06,3.81,1.95,6.94,4.2,9.75,5.82,7.37,16.5-2,17.07-11.49s-4.34-14.18-11-14.79c-4.11-.39-8.9.61-10.36,7.5-.32,1.48.21,2.94.25,4.41a34.69,34.69,0,0,1-.16,4Z" transform="translate(0 -147.76)"/><path class="cls-26" d="M76.35,172.25a10,10,0,0,0-.76-.83,16.39,16.39,0,0,0-1.5-1.26c-.25-.19-.4-.28-.4-.28-3.37-2.31-7.61-3-13.26-1.71-3,.71-8.92,1.37-8.92,1.37.74,1.85,5.71,2.74,5.71,2.74-1.22.43-6.64.16-6.64.16a6.76,6.76,0,0,0,4.6,2c-1.22.54-4.6-.22-4.6-.22,6.63,5.85,12.34,2.67,16.46,2.65a8.32,8.32,0,0,1,5.11,3.51,12,12,0,0,1,.93,2.6,6.39,6.39,0,0,1-.39,3.18c-2.31,6,4.43,11,4.43,11-.37-2.76,0-4.06,1.63-7.75C82.38,181.07,79.06,175.25,76.35,172.25Z" transform="translate(0 -147.76)"/><path class="cls-27" d="M71.41,185.39s2.19-3.15,3.87-1.4.27,6.47-3.53,5.71" transform="translate(0 -147.76)"/><path class="cls-28" d="M78.7,271.15s-5.2,2.6-7,6.21c0,0,6.34,1.25,11.12,1.62l1-3.42Z" transform="translate(0 -147.76)"/><path class="cls-21" d="M87,240.3,81.4,224.7A3.58,3.58,0,0,0,79,227.85a3.65,3.65,0,0,0,.18,1.39l7.19,17.16Z" transform="translate(0 -147.76)"/><path class="cls-20" d="M76.71,208.16l11-.1s5.77,3.33,7.39,12.06,6.31,23.85,4.53,32.3C98.15,259.66,83.78,280,83.78,280L74.5,273.3l12.31-25.68-7.65-26.51Z" transform="translate(0 -147.76)"/><g class="cls-29"><path class="cls-30" d="M76.35,172.25a10,10,0,0,0-.76-.83,16.52,16.52,0,0,0-1.51-1.26,3.89,3.89,0,0,0-.39-.28c-3.37-2.31-7.61-3-13.26-1.71l-.22.06c4.82-.69,8.61.19,11.7,2.34l.44.3a14.93,14.93,0,0,1,1.6,1.38,9,9,0,0,1,.83.91c2.9,3.29,6.48,9.65,2.55,18.76A30.37,30.37,0,0,0,75.8,196a16,16,0,0,0,1.29,1.17c-.37-2.76,0-4.06,1.63-7.76C82.38,181.07,79.05,175.25,76.35,172.25Z" transform="translate(0 -147.76)"/></g><path class="cls-17" d="M249.76,206.39l-4.33-6.77a16.87,16.87,0,0,1,14.5,8.21c5.29,8.72,9.64,30.22,9.64,30.22s6.48,21.82-3.21,39.74L258.57,265s-8.23-12-9.48-13.21S249.76,206.39,249.76,206.39Z" transform="translate(0 -147.76)"/><path class="cls-31" d="M256.73,173s1.49,4.31,1.3,7.31,0,7.43-1.83,8.84-7.56-12.57-6.94-13.21S256.73,173,256.73,173Z" transform="translate(0 -147.76)"/><path class="cls-32" d="M249.65,192.67s.31,10.14,5.48,11.27-3.82,7.77-3.82,7.77l-12.8,2.54-5.37-8.64s5-1.89,1.74-17.81C233.43,180.58,249.65,192.67,249.65,192.67Z" transform="translate(0 -147.76)"/><path class="cls-33" d="M262.11,222.78s6.87,23.35,7.11,32.47c.13,5-2.81,20-2.81,20l-6-18.51Z" transform="translate(0 -147.76)"/><path class="cls-6" d="M243.24,205.92l2.6-1.34s.86.36,3.42-.73,1.7,4.67,1.7,4.67l.36,3.36s-4,.08-4.51,0-3-.23-3-.23Z" transform="translate(0 -147.76)"/><path class="cls-34" d="M243.24,205.92l2.6-1.34s.86.36,3.42-.73,1.7,4.67,1.7,4.67l.36,3.36s-4,.08-4.51,0-3-.23-3-.23Z" transform="translate(0 -147.76)"/><path class="cls-35" d="M247.33,197.12l2.34,1.22.87-.14.08.41s3.2,3.74-2.37,3.95c-2,.08-10.19-4-11.46-9.48a30,30,0,0,1-.76-8.28Z" transform="translate(0 -147.76)"/><path class="cls-36" d="M257.69,184.87c.06.21.11.43.16.61.72,3.8-.74,7.27-2.5,10.52-4.53,8.39-18.95,1.49-19.07-8.53-.13-8.24,1.87-15,8.41-16.74,4-1.1,9-.92,11.68,5.72.57,1.42.29,3,.52,4.45a37.51,37.51,0,0,0,.81,3.93Z" transform="translate(0 -147.76)"/><path class="cls-17" d="M245.64,209.23c5.43.92,9.07-1.22,6.29-7.25-.35-.75,4.52.89,4.8,1.67,2.44,6.71,8,29.56,8,36.82,0,8.26,4.54,28.41-1.53,30.67a2.34,2.34,0,0,1-.87.14c-2,0-11.17,0-12.19-.3s-3.82,2.35-9.44.16-15.93,2.37-19-.18-4.6-22.8-1.73-27.15,3.9-41.59,3.9-41.59,3.61-2.34,11.33-1.35C237.42,201.15,236.84,207.74,245.64,209.23Z" transform="translate(0 -147.76)"/><path class="cls-37" d="M219.47,255.89l-.68,7.67s10.64,7.82,18.28,6.85-1.3-8.56-1.3-8.56Z" transform="translate(0 -147.76)"/><path class="cls-38" d="M251.31,276.31c.31-.68-.61-1.11-2.93-2.21-.09,0-.49-.55-.6-.61-.37-.21,2.9,1.43,3.27.83.5-.8-.12-1.3-3-2.69-1.89-.92-3.71-1.65-3.84-2.37-.36-1.88,4.87-1,2.94-2.2a21,21,0,0,0-3.25-1.36,13.64,13.64,0,0,0-4.74-.87c-5.15-.43-8.59-8.9-7.53-2.7a16.41,16.41,0,0,0,2.16,6.29,27,27,0,0,0,9.53,8.91l.52.26c1.36.74,2.68,1.08,2.95.77.4-.49-1.22-1.49-2.48-2.08-.36-.16,4.22,1.92,4.68,1.39s-1.56-1.64-3-2.36C245.48,275.12,250.85,277.33,251.31,276.31Z" transform="translate(0 -147.76)"/><path class="cls-17" d="M235.06,208.5a6.84,6.84,0,0,0-5.94-7.37c-.12,0-.61-.12-.72-.13-4.44-.31-7,3.32-9.71,6.74-3.09,3.91-10.74,21.73-11.28,36a5.92,5.92,0,0,0,.68,2.94c2.44,4.64,11,19.34,24.52,23.16,0,0,7.38-3.55,8.19-8,0,0-14.63-18-18.85-20.89C222,240.94,234.05,221.29,235.06,208.5Z" transform="translate(0 -147.76)"/><path class="cls-39" d="M232,223.28,222,241l14.28,15.35-9.75-15.44Z" transform="translate(0 -147.76)"/><path class="cls-40" d="M241.81,176.59s15.61,1.83,20.57-5.2l-4.53.72a7.73,7.73,0,0,0,5.07-5.37,13.65,13.65,0,0,1-6.45,2l1.9-3.05a10.44,10.44,0,0,1-6.61,2.29,6.48,6.48,0,0,0,1.66-2.69s-3,3.17-7.17,2c-2.74-.79-10,.19-12.34,5.26C232.5,175.58,241.81,176.59,241.81,176.59Z" transform="translate(0 -147.76)"/><path class="cls-41" d="M245.64,174.2l1.5-5.36s-11.58-2.63-15,4.93C227.1,185,236,197,236,197a9.65,9.65,0,0,0,2-9.81C236.68,183.78,241.92,183.22,245.64,174.2Z" transform="translate(0 -147.76)"/><path class="cls-42" d="M240.44,182.69c-.29-1.5-3.55-3.62-4.92-.16a3.59,3.59,0,0,0,5,4.57" transform="translate(0 -147.76)"/><path class="cls-6" d="M235.89,197.07s4.67,6.64,11.32,7.48l-4.66,7.68-9.44-11.7Z" transform="translate(0 -147.76)"/><path class="cls-6" d="M249.94,202.67a20.35,20.35,0,0,1-2.73,1.88l4.93,6.5,1.5-9.54-2.1-1.63A4.94,4.94,0,0,1,249.94,202.67Z" transform="translate(0 -147.76)"/><path class="cls-43" d="M154.11,171.77s-2.29-8.4-9.85-7.82c-6.4.5-6.38,5.21-11.27,6.51-4.7,1.21-5.79,5.94-4.13,10.87s-1.07,3.11-2.53,6.81-.83,6.61,2.22,9.05-2.39,5.06-3.79,10.19c-2.4,8.8,5.1,11.93,5.1,11.93l8.3-4.08,6.14-2.81,4.88-43Z" transform="translate(0 -147.76)"/><path class="cls-44" d="M145.76,168.79s6.14-3.47,10.13-.31c3.41,2.68.89,5.22,4.42,8.06,4.48,3.61,5.21,7.2,4.22,10.68s-2.07,4-.68,7.17,10,5.64,6.93,15.11c-1.52,4.76-12.54,2.86-12.54,2.86Z" transform="translate(0 -147.76)"/><path class="cls-8" d="M138.82,200.84h-4s-7.31,1.47-12.42,6.17-8.74,37.71-8.74,37.71,5.45,21.43,16.36,27.46,6.23-24.2,6.23-24.2Z" transform="translate(0 -147.76)"/><path class="cls-45" d="M132.67,237l-7.15-13.53-3,18.71.74,22.6Z" transform="translate(0 -147.76)"/><path class="cls-46" d="M153.29,185.26l2.93-5.64A10.93,10.93,0,0,1,157.84,191c-1.65,4.08,8.45,4.82,7.92,12.25-.67,9.14-24.71,3.05-24.71,3.05s-4.37,3.65-7.76,1c-8-6.23,3.61-9.15,1.48-16.92-1.83-6.7-2.79-10.36,3.66-15.23" transform="translate(0 -147.76)"/><path class="cls-8" d="M157.26,200.39h4s7.31,1.47,12.43,6.16,8.75,37.7,8.75,37.7-5.48,21.42-16.37,27.47-6.23-24.2-6.23-24.2Z" transform="translate(0 -147.76)"/><path class="cls-45" d="M163.42,236.54,170.57,223l3.05,18.72-.74,22.59Z" transform="translate(0 -147.76)"/><path class="cls-8" d="M130.31,205l-3-1.54s2.07-7.54,13.6-9.11c13.41-1.83,16.53.5,20.38,6.1" transform="translate(0 -147.76)"/><path class="cls-47" d="M140.57,192.63l-.87-.74-.07,5.38a2.71,2.71,0,0,1-1.73,2.5L134,201.3s6.16,5.3,12.19,4.7a31.33,31.33,0,0,0,11.62-4.09l-3-1.24a2.71,2.71,0,0,1-1.67-2.4l-.3-7.31Z" transform="translate(0 -147.76)"/><path class="cls-48" d="M140.57,192.63l-.91,2.74a10.17,10.17,0,0,0,7.07,3.66c4.77.43,7.14-2.05,7.14-2.05s-.93,1.49-.92-4.61Z" transform="translate(0 -147.76)"/><path class="cls-49" d="M135.6,180.49c.61-6.21,4-11.52,11.36-10.94,11.27.91,10.68,19.74,4.65,25.54-3.65,3.52-9.75,3-12.4-.43S135.12,185.51,135.6,180.49Z" transform="translate(0 -147.76)"/><path class="cls-50" d="M155.28,179.62c-.52-2.44-1-4.79-2.23-6.64l-5.84,2.78a48.81,48.81,0,0,0-.78,7.26,17.84,17.84,0,0,0,1.73,5.24l-1,.61s.47,6.46-.44,8.64a10.27,10.27,0,0,0,6-3.8A18.59,18.59,0,0,0,155.28,179.62Z" transform="translate(0 -147.76)"/><path class="cls-51" d="M153.56,168.1s1.38,5.74-3.08,7.6a8.58,8.58,0,0,1-7.92-.58,7.38,7.38,0,0,1-6,5.64c-4.17.78-1,5.73-1,5.73s-2.47-5.13-2.35-8.6,4.71-7.87,4.71-7.87l3.87-2.44,7.93-.87Z" transform="translate(0 -147.76)"/><path class="cls-52" d="M149.64,170.91s-.85,4,1.43,4.21c3.55.31,2.62,2.17,3,3.58a10.73,10.73,0,0,0,3.16,4.71l.51-6.14-1.17-5.56-2.2-2.16-3.84-.47Z" transform="translate(0 -147.76)"/><path class="cls-53" d="M145.61,254.73h0v-.1Z" transform="translate(0 -147.76)"/><path class="cls-54" d="M137.16,182.1s-.71-3.15-2.84-1.41-.87,7.92,2.87,5.9" transform="translate(0 -147.76)"/><path class="cls-45" d="M144.32,256.39,151,282.7s13.82-.91,19.31-4.23S144.32,256.39,144.32,256.39Z" transform="translate(0 -147.76)"/><g class="cls-55"><path class="cls-56" d="M233.28,175.48c2.64-6.79,10.56-8,12.75-7.81a6.5,6.5,0,0,0,2.2-.13,6.4,6.4,0,0,1-2-.25,13,13,0,0,0-10.13,2.44,8.21,8.21,0,0,0-3.94,4C227.1,185,236,197,236,197a9.78,9.78,0,0,0,2.21-4C234.93,188.82,231,181.34,233.28,175.48Z" transform="translate(0 -147.76)"/></g><path class="cls-57" d="M154.94,181.54s.58-2.69,2.44-1.22.83,6.76-2.39,5.07" transform="translate(0 -147.76)"/><path class="cls-58" d="M154.94,181.54s.58-2.69,2.44-1.22.83,6.76-2.39,5.07" transform="translate(0 -147.76)"/><path class="cls-59" d="M135.09,201.1s4,3.72,11.88,2.61,8.34-2.8,8.34-2.8l6.47,2.44,3.55,8s2.6,6.84,2.56,7.4-2.41,9.11-2.41,9.11l.41,30.55s-5.35,6.09-18.13,6.83-20.29-4.67-20.29-4.67L129.21,238l1.34-17.35,1.12-14.69-.43-4.77Z" transform="translate(0 -147.76)"/><path class="cls-8" d="M154.5,199.87s-.94-.18-.67,7.58c.93,26.81-13.73,46.26-13.73,46.26l11.73,26.88s15.28.87,20.82-3c0,0,1.21-7.37.22-13.28s-4.27-16.31-4-23.81,1.74-17.5,1.74-17.5l-4.17-16.82S163.67,202.48,154.5,199.87Z" transform="translate(0 -147.76)"/><path class="cls-45" d="M146.71,258.94l10.55-5.2-12.1,29.43-17.9-3.46Z" transform="translate(0 -147.76)"/><path class="cls-8" d="M134,201.3s3.07.3,3.32,6.3c1.14,27.87,19.95,46.13,19.95,46.13l-13.2,27.48s-20.42-.43-22.22-3.73c0,0,2.91-15.29,3.38-19.38s.7-7.07,1.38-13.82-1.22-14.62-.71-19.5-2.31-17.42-2.31-17.42S128.16,200.36,134,201.3Z" transform="translate(0 -147.76)"/><path class="cls-45" d="M158.49,201.15l2.77-.76s-.87,1.3-2,2.84a45.34,45.34,0,0,0-4.82,7.84Z" transform="translate(0 -147.76)"/><path class="cls-45" d="M130.08,203.2l-2.83.46a28.52,28.52,0,0,1,4.11,3.49,40.48,40.48,0,0,1,5.3,6.66Z" transform="translate(0 -147.76)"/><path class="cls-8" d="M138.8,199.22c-2.44,6.84-1.18,12.26-.65,15.85,0,0-4.53-9.21-10.88-11.67C127.27,203.41,140.91,193.34,138.8,199.22Z" transform="translate(0 -147.76)"/><path class="cls-8" d="M153.38,198.74c1.1,5.11.13,14.7.13,14.7s2.77-7.66,4.2-9.49c2.65-3.39,3.55-3.56,3.55-3.56S152.17,193.19,153.38,198.74Z" transform="translate(0 -147.76)"/><path class="cls-45" d="M139.6,196.26s-3.29,1.47-2.17,9.23c0,0,.31-5.12,1.37-6.27A3.62,3.62,0,0,0,139.6,196.26Z" transform="translate(0 -147.76)"/><path class="cls-45" d="M153,196.41s-.08,2.6.55,3.27l.3,3.22S154.81,198.8,153,196.41Z" transform="translate(0 -147.76)"/><path class="cls-45" d="M149.46,262.3a1.55,1.55,0,0,1-1.54,1.57h0a1.66,1.66,0,0,1-.32,0,1.59,1.59,0,1,1,1.89-1.53Z" transform="translate(0 -147.76)"/><path class="cls-45" d="M152.58,255.29a1.57,1.57,0,0,1-1.53,1.59,1.59,1.59,0,0,1-1.58-1.27,1.56,1.56,0,0,1,3.11-.32Z" transform="translate(0 -147.76)"/><path class="cls-60" d="M146.23,182.37s0,4.38,1.22,5.7a3.24,3.24,0,0,1-2.14.88,3.88,3.88,0,0,0,2.85-.7A17.45,17.45,0,0,1,146.23,182.37Z" transform="translate(0 -147.76)"/><path class="cls-61" d="M150.52,179.06a3.79,3.79,0,0,1,1.16.12,4.94,4.94,0,0,1,1,.4,4.74,4.74,0,0,1,.92.61,6.07,6.07,0,0,1,.75.77,5.23,5.23,0,0,0-.87-.61,4.7,4.7,0,0,0-.95-.41,4.12,4.12,0,0,0-1-.18,3,3,0,0,0-1,.06h0a.39.39,0,0,1-.48-.25.13.13,0,0,1,0-.06h0a.37.37,0,0,1,.27-.46h.07Z" transform="translate(0 -147.76)"/><path class="cls-61" d="M141.7,180.18a4.27,4.27,0,0,0-1,0,6,6,0,0,0-1,.28,4.94,4.94,0,0,0-1,.52,6.58,6.58,0,0,0-.87.71,6,6,0,0,1,.73-.86,4.45,4.45,0,0,1,.9-.72,5.25,5.25,0,0,1,1.07-.51,4.19,4.19,0,0,1,1.22-.24.43.43,0,0,1,.16,0,.4.4,0,0,1,.23.21.43.43,0,0,1,.05.16.4.4,0,0,1,0,.15.34.34,0,0,1-.09.14l-.13.1a.45.45,0,0,1-.16,0Z" transform="translate(0 -147.76)"/><path class="cls-62" d="M142.88,190.9s3.19,5,7.66.19C150.53,191.09,146.37,193.35,142.88,190.9Z" transform="translate(0 -147.76)"/><path class="cls-61" d="M143.06,183.72a1.64,1.64,0,0,0-.87-.81,2.12,2.12,0,0,0-1.14-.13,2.3,2.3,0,0,0-1.06.46,1.5,1.5,0,0,0-.55,1v.1h-.09l-.66-.21c.23,0,.47,0,.69,0l-.09.08a1.38,1.38,0,0,1,.12-.66,1.42,1.42,0,0,1,.39-.55,2.19,2.19,0,0,1,1.22-.54,2,2,0,0,1,1.3.23,1.44,1.44,0,0,1,.49.43,1.51,1.51,0,0,1,.26.61Z" transform="translate(0 -147.76)"/><path class="cls-61" d="M139.5,183.94l-.76-.28.81.08Z" transform="translate(0 -147.76)"/><path class="cls-61" d="M149.64,183.72a1.48,1.48,0,0,1,.74-1,2,2,0,0,1,1.29-.23,2.28,2.28,0,0,1,1.22.55,1.53,1.53,0,0,1,.52,1.22l-.1-.08c.23,0,.46-.05.69-.05l-.66.21h-.09v-.11a1.44,1.44,0,0,0-.55-1,2.28,2.28,0,0,0-1.06-.45,2.23,2.23,0,0,0-1.14.12,1.66,1.66,0,0,0-.85.82Z" transform="translate(0 -147.76)"/><path class="cls-61" d="M153.16,183.74l.8-.07-.76.27Z" transform="translate(0 -147.76)"/><g class="cls-63"><path class="cls-64" d="M154.94,181.54s.58-2.69,2.44-1.22.83,6.76-2.39,5.07" transform="translate(0 -147.76)"/><path class="cls-65" d="M154.94,181.54s.58-2.69,2.44-1.22.83,6.76-2.39,5.07" transform="translate(0 -147.76)"/></g><path class="cls-66" d="M203.67,177.14h-2.94s-5,.6-7.55-.61-5.2,8.21,0,10.23S203.67,177.14,203.67,177.14Z" transform="translate(0 -147.76)"/><path class="cls-67" d="M195.9,194.82s-4.61,12.12-.29,22,22.18,10.08,22.18,10.08l9.14-9.72-2.36-12.38Z" transform="translate(0 -147.76)"/><path class="cls-68" d="M198.52,194.82s-3.6,12.12-.23,22,17.37,10.07,17.37,10.07l7.15-9.72L221,204.82Z" transform="translate(0 -147.76)"/><path class="cls-69" d="M206,197.92l5.26-2.64s-.47,13.41,3.2,16.37c0,0-9.38,8.35-17.85.92a19.93,19.93,0,0,0,2.06-12.95C197.27,192.43,206,197.92,206,197.92Z" transform="translate(0 -147.76)"/><path class="cls-70" d="M206.3,200.43l3.12-.91s-.1,9.32-11.35,9.86l1.62-6.89Z" transform="translate(0 -147.76)"/><path class="cls-71" d="M204.65,177.77c-4.63-.82-8.8.32-11.66,5.57-1.71,3.13-.7,8.47-2.09,10.1-.92,1.07-1.5.81-1.15,1.5a2.29,2.29,0,0,0,1.56,1.11s.82,8,5.2,9.11a12.59,12.59,0,0,0,13.36-5.54C211.74,196.58,214.74,179.57,204.65,177.77Z" transform="translate(0 -147.76)"/><path class="cls-71" d="M204.65,177.77c-4.63-.82-8.8.32-11.66,5.57-1.71,3.13-.7,8.47-2.09,10.1-.92,1.07-1.5.81-1.15,1.5a2.29,2.29,0,0,0,1.56,1.11s.82,8,5.2,9.11a12.59,12.59,0,0,0,13.36-5.54C211.74,196.58,214.74,179.57,204.65,177.77Z" transform="translate(0 -147.76)"/><path class="cls-72" d="M195.11,177.53s3.19.06,3.87,4.27,3.74,8.85,9,8.16,4.15,7,4.15,7l9.35-10.54a16.3,16.3,0,0,0-11.44-9.69C206.21,175.86,198.29,177.83,195.11,177.53Z" transform="translate(0 -147.76)"/><path class="cls-73" d="M230.94,271.21s4.43,4.5,5.4,6.75.77,7.5.77,7.5-3.31,5.61-4.87,5.41c-.37,0-.87,0-.69-1.48s2.31-3.5,2.3-4.88-2.27-4.67-2.27-4.67-1.69.58-1.47,4.27c.14,2.25-2.29,1.12-2.62-.56s-.65-8.07-.65-8.07Z" transform="translate(0 -147.76)"/><path class="cls-20" d="M210.55,227.44l2.6-17.55s9.14,1.82,9.54,19.84a133.17,133.17,0,0,0,1.94,19.21L234,272.75s-7.76,6.17-11.33,6.17l-8.47-14Z" transform="translate(0 -147.76)"/><path class="cls-12" d="M212.37,246l4.82-11.52,2.92,18.08,7,24.51a7.15,7.15,0,0,1-4.44,1.83L214.2,265Z" transform="translate(0 -147.76)"/><path class="cls-20" d="M197.77,209.37s7.81,6.87,15.38.5a19,19,0,0,1,5.06,5.77c2.29,3.91-.69,17.51-.69,17.51s1.74,33.88,3.78,37.42c0,0-12,4.34-24.71,3-10.7-1.16-14.63-2-14.63-2s4.54-26.6,5.61-36.49c.55-5.07,1.73-22.47,1.73-22.47S193.65,209.14,197.77,209.37Z" transform="translate(0 -147.76)"/><path class="cls-74" d="M213.57,186.75s-12.19-.35-10.81.64c4.81,3.44,6,7,4.77,15.51-4.49,30.27,15.23,33.86,17.06,29.41,4.09-10,9.42-45-12.43-54.54Z" transform="translate(0 -147.76)"/><path class="cls-75" d="M205.6,190.48s2.76-3.17,4.23-1-.73,6.8-4.21,5.39" transform="translate(0 -147.76)"/><path class="cls-76" d="M205.53,190.68s3-3.43,4.57-1.12.18,8.74-4.56,5.82" transform="translate(0 -147.76)"/><path class="cls-12" d="M188.86,244c-2.26-8.67-.23-11.27-.23-16.91,0-1.05,0-2.56-.07-4.33-.36,4.76-.76,9.94-1,12.34-1.07,9.89-5.62,36.49-5.62,36.49s4,.8,14.63,1.95c12.7,1.38,24.71-3,24.71-3C220.89,269.88,196.58,273.55,188.86,244Z" transform="translate(0 -147.76)"/><path class="cls-20" d="M189.61,212.35S184,215.57,182.44,224s-6.09,23-4.37,31.18c1.49,7,21.44,29.15,21.44,29.15l9.75-8.35-16.33-25.91,5-25.12.38-2a8.89,8.89,0,0,0-7.08-10.41h0a9.3,9.3,0,0,0-1.58-.16Z" transform="translate(0 -147.76)"/><path class="cls-12" d="M195.19,230.09l-2.26,20,15.42,24.49-11.77-23.76Z" transform="translate(0 -147.76)"/><path class="cls-77" d="M218.28,181.65c8.89,13.84,8.57,28.71,4.55,35.55-1.45,2.44-9.15,11.44-14.42,4.87,4.06,12.46,14.84,13.47,16.17,10.24C228.23,223.39,232.87,194.52,218.28,181.65Z" transform="translate(0 -147.76)"/><path class="cls-78" d="M116.69,203.89s-5.21-.33-9.19,18-4.13-4.69-4.13-4.69l-7.24-9.32s7.37-7.71,7.47-13.84S116.69,203.89,116.69,203.89Z" transform="translate(0 -147.76)"/><path class="cls-79" d="M119.31,198.59l-7.1,9.86s-9.91,7.37-14.62-2.23l5.57-5.49Z" transform="translate(0 -147.76)"/><path class="cls-45" d="M97.81,206.33a23.42,23.42,0,0,0,4.74,6.35,9.64,9.64,0,0,0,6.59,2.84s2.43,2.6,2.88,9.66-.13,16.7.53,21.68,2.55,26.16,4.33,28.36-4.62,3.75-13.25,2.54S90,273.45,87.08,273.64c-7.43.49-6.1,2.95-9.49,1.22,0,0-3.75-9.34.44-22.2s9.25-29.26,9.25-29.26S95.6,205.11,97.81,206.33Z" transform="translate(0 -147.76)"/><path class="cls-80" d="M84.9,248.38l11.46-17.59-4.69,22.05,9,22.85L83,273.52s-4.77,3.52-5.41,1.34S74.7,263,77,256.58A13.55,13.55,0,0,1,84.9,248.38Z" transform="translate(0 -147.76)"/><path class="cls-81" d="M95.45,271.4,99,275.55l6.61,4.33s-4.44,6.93-8.85,7.82l-7.72-11.06Z" transform="translate(0 -147.76)"/><path class="cls-45" d="M96.13,214.18l1.45-8s-6.45,2.72-11.86,11A84.8,84.8,0,0,0,80,228.64c-3.69,8.65-7.31,19.29-6.86,24.34.65,7.92,12.5,26.3,18.28,30.21,0,0,4.63-5.29,9.26-7.5,0,0-11.66-20.65-14.11-26.14,0,0,5.48-13.13,11.47-19.18S96.13,214.18,96.13,214.18Z" transform="translate(0 -147.76)"/><path class="cls-82" d="M111.7,181.82c4.71-.67,8.47,1.22,11,7,1.54,3.46.08,7,1.41,8.89.87,1.22,1.5,1,1.09,1.7a2.44,2.44,0,0,1-1.73,1s-1.44,7-5.71,8.29c-3.83,1.17-11.75-1.35-14.13-7.25C102.24,198,100.87,183.35,111.7,181.82Z" transform="translate(0 -147.76)"/><path class="cls-83" d="M109,188.07a4.8,4.8,0,0,1,3.78-.35c7.44,1.66,11.74-.61,12.43-3.28.58-2.2-.44-5.11-3-5.27-2.38-.16-2.79-.87-4.22-2.71-.72-.94-1.62-2-2.8-1.92-1.4.05-2.82,1.76-4,.93-2.68-2-7.58-1.28-9.42,1.82-1,1.6-2.75,1.9-4.48,2.44a4.33,4.33,0,0,0-2.84,5.09c.49,2.12-.4,3.29-1.51,4.88-.86,1.21-1.56,2.71-1.08,4.11.38,1.08,1.39,1.8,2,2.77,1.06,1.74.67,4.08,1.72,5.83a4.05,4.05,0,0,0,3,1.94c4.41.55,6.25-5.2,6-8.62-.24-4-.81-5.21.69-6.1C106.3,189,107.64,189,109,188.07Z" transform="translate(0 -147.76)"/><path class="cls-84" d="M107.91,189.46c0-1.25-3.19-3.65-4.88-1.21s.85,7.83,4.85,6.21" transform="translate(0 -147.76)"/><g class="cls-85"><path class="cls-86" d="M113.68,175.47l-.38-.24a4.8,4.8,0,0,1,1.86-.68,2.2,2.2,0,0,1,1.25.36C115.41,175.37,114.48,176.06,113.68,175.47Z" transform="translate(0 -147.76)"/><path class="cls-87" d="M92.92,189.7c1.11-1.57,2-2.74,1.51-4.87a4.34,4.34,0,0,1,2.87-5.11c1.74-.55,3.54-.87,4.48-2.44a6.86,6.86,0,0,1,6.94-2.81,6.33,6.33,0,0,0-4.47,2.81c-.94,1.57-2.75,1.9-4.49,2.44a4.34,4.34,0,0,0-2.86,5.09c.5,2.11-.4,3.28-1.5,4.85-.87,1.22-1.58,2.72-1.1,4.12.38,1.07,1.39,1.83,2,2.77,1.06,1.74.68,4.08,1.74,5.83a4.08,4.08,0,0,0,2.29,1.79,4.21,4.21,0,0,1-1.8.16,4.09,4.09,0,0,1-3-2c-1-1.73-.66-4.08-1.72-5.82-.61-1-1.6-1.7-2-2.78C91.35,192.41,92.07,190.9,92.92,189.7Z" transform="translate(0 -147.76)"/></g><path class="cls-45" d="M107.3,218.24a10.92,10.92,0,0,1,4.07-3.53c1-.53,1.83-1.3,1.06-2.17-1.57-1.76-2.21-.66-6-3.17s-6.7-9-8.82-5.48a8.5,8.5,0,0,0-1.45,4Z" transform="translate(0 -147.76)"/><path class="cls-88" d="M205.82,276l5.8,4.07s-5.64,5.23-9,5.85l-3.14-3.79Z" transform="translate(0 -147.76)"/></svg>