<svg width="257" height="345" viewBox="0 0 257 345" fill="none" xmlns="http://www.w3.org/2000/svg">
<path d="M256.784 225.223C256.784 154.723 202.841 118.757 135.65 118.757C125.713 118.757 111.991 119.703 102.05 122.069L104.889 69.0687H239.749V0.930664H34.3889L26.3449 192.574C50.0039 184.057 84.5449 177.905 108.205 177.905C140.854 177.905 176.816 189.261 176.816 229.005C176.816 261.181 153.63 277.743 126.659 277.743C100.634 277.743 79.8139 260.709 72.7159 237.523L0.315918 259.762C15.9309 312.762 66.5609 344.934 127.601 344.934C193.378 344.938 256.784 306.61 256.784 225.223Z" fill="url(#paint0_linear)"/>
<defs>
<linearGradient id="paint0_linear" x1="0.315918" y1="172.932" x2="422.719" y2="172.932" gradientUnits="userSpaceOnUse">
<stop stop-color="#5474D8"/>
<stop offset="0.469" stop-color="#9159FF"/>
<stop offset="1" stop-color="#9159FF"/>
</linearGradient>
</defs>
</svg>
